%TF.GenerationSoftware,KiCad,Pcbnew,(6.0.7)*%
%TF.CreationDate,2025-08-04T23:03:26+08:00*%
%TF.ProjectId,stepper_with_TMC2209_controller_board_V1,73746570-7065-4725-9f77-6974685f544d,rev?*%
%TF.SameCoordinates,PX496ed40PY848f8c0*%
%TF.FileFunction,Soldermask,Bot*%
%TF.FilePolarity,Negative*%
%FSLAX46Y46*%
G04 Gerber Fmt 4.6, Leading zero omitted, Abs format (unit mm)*
G04 Created by KiCad (PCBNEW (6.0.7)) date 2025-08-04 23:03:26*
%MOMM*%
%LPD*%
G01*
G04 APERTURE LIST*
G04 Aperture macros list*
%AMRoundRect*
0 Rectangle with rounded corners*
0 $1 Rounding radius*
0 $2 $3 $4 $5 $6 $7 $8 $9 X,Y pos of 4 corners*
0 Add a 4 corners polygon primitive as box body*
4,1,4,$2,$3,$4,$5,$6,$7,$8,$9,$2,$3,0*
0 Add four circle primitives for the rounded corners*
1,1,$1+$1,$2,$3*
1,1,$1+$1,$4,$5*
1,1,$1+$1,$6,$7*
1,1,$1+$1,$8,$9*
0 Add four rect primitives between the rounded corners*
20,1,$1+$1,$2,$3,$4,$5,0*
20,1,$1+$1,$4,$5,$6,$7,0*
20,1,$1+$1,$6,$7,$8,$9,0*
20,1,$1+$1,$8,$9,$2,$3,0*%
G04 Aperture macros list end*
%ADD10RoundRect,0.250000X-0.600000X-0.750000X0.600000X-0.750000X0.600000X0.750000X-0.600000X0.750000X0*%
%ADD11O,1.700000X2.000000*%
%ADD12RoundRect,0.250000X-0.350000X-0.625000X0.350000X-0.625000X0.350000X0.625000X-0.350000X0.625000X0*%
%ADD13O,1.200000X1.750000*%
%ADD14RoundRect,0.250000X-0.725000X0.600000X-0.725000X-0.600000X0.725000X-0.600000X0.725000X0.600000X0*%
%ADD15O,1.950000X1.700000*%
%ADD16C,6.400000*%
%ADD17C,2.904000*%
%ADD18RoundRect,0.102000X-0.754000X-0.754000X0.754000X-0.754000X0.754000X0.754000X-0.754000X0.754000X0*%
%ADD19C,1.712000*%
%ADD20RoundRect,0.102000X0.765000X0.765000X-0.765000X0.765000X-0.765000X-0.765000X0.765000X-0.765000X0*%
%ADD21C,1.734000*%
%ADD22RoundRect,0.250000X0.350000X0.625000X-0.350000X0.625000X-0.350000X-0.625000X0.350000X-0.625000X0*%
%ADD23RoundRect,0.250000X-0.600000X-0.725000X0.600000X-0.725000X0.600000X0.725000X-0.600000X0.725000X0*%
%ADD24O,1.700000X1.950000*%
%ADD25C,1.800000*%
G04 APERTURE END LIST*
D10*
%TO.C,J3*%
X123550000Y70025000D03*
D11*
X126050000Y70025000D03*
%TD*%
D10*
%TO.C,J2*%
X113700000Y70000000D03*
D11*
X116200000Y70000000D03*
%TD*%
D12*
%TO.C,J1*%
X62200000Y70100000D03*
D13*
X64200000Y70100000D03*
X66200000Y70100000D03*
X68200000Y70100000D03*
%TD*%
D14*
%TO.C,JM4*%
X55725000Y20750000D03*
D15*
X55725000Y18250000D03*
X55725000Y15750000D03*
X55725000Y13250000D03*
%TD*%
D16*
%TO.C,REF\u002A\u002A*%
X106000000Y5000000D03*
%TD*%
D17*
%TO.C,U4*%
X118000000Y33500000D03*
X123000000Y33500000D03*
%TD*%
D16*
%TO.C,REF\u002A\u002A*%
X106000000Y69000000D03*
%TD*%
D14*
%TO.C,JM5*%
X81025000Y20800000D03*
D15*
X81025000Y18300000D03*
X81025000Y15800000D03*
X81025000Y13300000D03*
%TD*%
D18*
%TO.C,M6*%
X112277500Y25990000D03*
D19*
X112277500Y23450000D03*
X112277500Y20910000D03*
X112277500Y18370000D03*
X112277500Y15830000D03*
X112277500Y13290000D03*
X112277500Y10750000D03*
X112277500Y8210000D03*
X124977500Y25990000D03*
X124977500Y23450000D03*
X124977500Y20910000D03*
X124977500Y18370000D03*
X124977500Y15830000D03*
X124977500Y13290000D03*
X124977500Y10750000D03*
X124977500Y8210000D03*
X119897500Y8210000D03*
X122437500Y8210000D03*
%TD*%
D18*
%TO.C,M1*%
X61225000Y62287500D03*
D19*
X61225000Y59747500D03*
X61225000Y57207500D03*
X61225000Y54667500D03*
X61225000Y52127500D03*
X61225000Y49587500D03*
X61225000Y47047500D03*
X61225000Y44507500D03*
X73925000Y62287500D03*
X73925000Y59747500D03*
X73925000Y57207500D03*
X73925000Y54667500D03*
X73925000Y52127500D03*
X73925000Y49587500D03*
X73925000Y47047500D03*
X73925000Y44507500D03*
X68845000Y44507500D03*
X71385000Y44507500D03*
%TD*%
D20*
%TO.C,U3*%
X41459500Y6430000D03*
D21*
X41459500Y8970000D03*
X41459500Y11510000D03*
X41459500Y14050000D03*
X41459500Y16590000D03*
X41459500Y19130000D03*
X41459500Y21670000D03*
X41459500Y24210000D03*
X41459500Y26750000D03*
X41459500Y29290000D03*
X41459500Y31830000D03*
X41459500Y34370000D03*
X41459500Y36910000D03*
X41459500Y39450000D03*
X41459500Y41990000D03*
X41459500Y44530000D03*
X41459500Y47070000D03*
X41459500Y49610000D03*
X41459500Y52150000D03*
X41459500Y54690000D03*
X41459500Y57230000D03*
X41459500Y59770000D03*
X18599500Y6430000D03*
X18599500Y8970000D03*
X18599500Y11510000D03*
X18599500Y14050000D03*
X18599500Y16590000D03*
X18599500Y19130000D03*
X18599500Y21670000D03*
X18599500Y24210000D03*
X18599500Y26750000D03*
X18599500Y29290000D03*
X18599500Y31830000D03*
X18599500Y34370000D03*
X18599500Y36910000D03*
X18599500Y39450000D03*
X18599500Y41990000D03*
X18599500Y44530000D03*
X18599500Y47070000D03*
X18599500Y49610000D03*
X18599500Y52150000D03*
X18599500Y54690000D03*
X18599500Y57230000D03*
X18599500Y59770000D03*
%TD*%
D12*
%TO.C,J13*%
X74000000Y70100000D03*
D13*
X76000000Y70100000D03*
X78000000Y70100000D03*
X80000000Y70100000D03*
%TD*%
D16*
%TO.C,REF\u002A\u002A*%
X55000000Y5000000D03*
%TD*%
D18*
%TO.C,M5*%
X86877500Y25990000D03*
D19*
X86877500Y23450000D03*
X86877500Y20910000D03*
X86877500Y18370000D03*
X86877500Y15830000D03*
X86877500Y13290000D03*
X86877500Y10750000D03*
X86877500Y8210000D03*
X99577500Y25990000D03*
X99577500Y23450000D03*
X99577500Y20910000D03*
X99577500Y18370000D03*
X99577500Y15830000D03*
X99577500Y13290000D03*
X99577500Y10750000D03*
X99577500Y8210000D03*
X94497500Y8210000D03*
X97037500Y8210000D03*
%TD*%
D22*
%TO.C,J5*%
X11100000Y68900000D03*
D13*
X9100000Y68900000D03*
X7100000Y68900000D03*
X5100000Y68900000D03*
%TD*%
D14*
%TO.C,JM3*%
X106725000Y57250000D03*
D15*
X106725000Y54750000D03*
X106725000Y52250000D03*
X106725000Y49750000D03*
%TD*%
D23*
%TO.C,J6*%
X4750000Y25100000D03*
D24*
X7250000Y25100000D03*
X9750000Y25100000D03*
X12250000Y25100000D03*
%TD*%
D18*
%TO.C,M3*%
X112202500Y62490000D03*
D19*
X112202500Y59950000D03*
X112202500Y57410000D03*
X112202500Y54870000D03*
X112202500Y52330000D03*
X112202500Y49790000D03*
X112202500Y47250000D03*
X112202500Y44710000D03*
X124902500Y62490000D03*
X124902500Y59950000D03*
X124902500Y57410000D03*
X124902500Y54870000D03*
X124902500Y52330000D03*
X124902500Y49790000D03*
X124902500Y47250000D03*
X124902500Y44710000D03*
X119822500Y44710000D03*
X122362500Y44710000D03*
%TD*%
D18*
%TO.C,M4*%
X61377500Y25940000D03*
D19*
X61377500Y23400000D03*
X61377500Y20860000D03*
X61377500Y18320000D03*
X61377500Y15780000D03*
X61377500Y13240000D03*
X61377500Y10700000D03*
X61377500Y8160000D03*
X74077500Y25940000D03*
X74077500Y23400000D03*
X74077500Y20860000D03*
X74077500Y18320000D03*
X74077500Y15780000D03*
X74077500Y13240000D03*
X74077500Y10700000D03*
X74077500Y8160000D03*
X68997500Y8160000D03*
X71537500Y8160000D03*
%TD*%
D14*
%TO.C,JM1*%
X55500000Y57100000D03*
D15*
X55500000Y54600000D03*
X55500000Y52100000D03*
X55500000Y49600000D03*
%TD*%
D12*
%TO.C,J7*%
X85900000Y70100000D03*
D13*
X87900000Y70100000D03*
X89900000Y70100000D03*
X91900000Y70100000D03*
%TD*%
D10*
%TO.C,J8*%
X7250000Y5100000D03*
D11*
X9750000Y5100000D03*
%TD*%
D14*
%TO.C,JM6*%
X106500000Y20750000D03*
D15*
X106500000Y18250000D03*
X106500000Y15750000D03*
X106500000Y13250000D03*
%TD*%
D16*
%TO.C,REF\u002A\u002A*%
X5000000Y37000000D03*
%TD*%
D25*
%TO.C,SW1*%
X49790000Y28850000D03*
X49790000Y31390000D03*
X49790000Y33930000D03*
X49790000Y36470000D03*
X49790000Y39010000D03*
X49790000Y41550000D03*
X57410000Y28850000D03*
X57410000Y31390000D03*
X57410000Y33930000D03*
X57410000Y36470000D03*
X57410000Y39010000D03*
X57410000Y41550000D03*
%TD*%
D18*
%TO.C,M2*%
X86825000Y62387500D03*
D19*
X86825000Y59847500D03*
X86825000Y57307500D03*
X86825000Y54767500D03*
X86825000Y52227500D03*
X86825000Y49687500D03*
X86825000Y47147500D03*
X86825000Y44607500D03*
X99525000Y62387500D03*
X99525000Y59847500D03*
X99525000Y57307500D03*
X99525000Y54767500D03*
X99525000Y52227500D03*
X99525000Y49687500D03*
X99525000Y47147500D03*
X99525000Y44607500D03*
X94445000Y44607500D03*
X96985000Y44607500D03*
%TD*%
D16*
%TO.C,REF\u002A\u002A*%
X55000000Y69000000D03*
%TD*%
D14*
%TO.C,JM2*%
X81325000Y57150000D03*
D15*
X81325000Y54650000D03*
X81325000Y52150000D03*
X81325000Y49650000D03*
%TD*%
M02*
