%TF.GenerationSoftware,KiCad,Pcbnew,(6.0.7)*%
%TF.CreationDate,2025-08-04T23:03:26+08:00*%
%TF.ProjectId,stepper_with_TMC2209_controller_board_V1,73746570-7065-4725-9f77-6974685f544d,rev?*%
%TF.SameCoordinates,PX496ed40PY848f8c0*%
%TF.FileFunction,Paste,Top*%
%TF.FilePolarity,Positive*%
%FSLAX46Y46*%
G04 Gerber Fmt 4.6, Leading zero omitted, Abs format (unit mm)*
G04 Created by KiCad (PCBNEW (6.0.7)) date 2025-08-04 23:03:26*
%MOMM*%
%LPD*%
G01*
G04 APERTURE LIST*
%ADD10R,0.800000X0.800000*%
%ADD11R,0.570000X0.540000*%
%ADD12R,0.950000X0.950000*%
%ADD13R,1.730000X0.970000*%
%ADD14R,1.200000X3.500000*%
%ADD15R,2.010000X5.400000*%
%ADD16R,0.790000X0.930000*%
%ADD17R,0.970000X1.730000*%
%ADD18R,1.040000X1.020000*%
%ADD19R,2.000000X4.100000*%
%ADD20R,0.790000X0.540000*%
%ADD21R,0.540000X0.790000*%
%ADD22R,0.600000X0.540000*%
%ADD23R,1.130000X1.380000*%
%ADD24R,2.200000X1.200000*%
%ADD25R,1.190000X1.730000*%
%ADD26R,0.830000X0.630000*%
%ADD27R,0.530000X1.070000*%
%ADD28R,0.800000X0.900000*%
%ADD29R,5.400000X2.010000*%
%ADD30R,1.070000X0.600000*%
%ADD31R,1.300000X0.300000*%
%ADD32R,1.600000X2.000000*%
G04 APERTURE END LIST*
D10*
%TO.C,U10*%
X122025000Y5300000D03*
X120325000Y5300000D03*
%TD*%
%TO.C,U9*%
X96675000Y5525000D03*
X94975000Y5525000D03*
%TD*%
%TO.C,U8*%
X71000000Y5175000D03*
X69300000Y5175000D03*
%TD*%
%TO.C,U7*%
X122025000Y41925000D03*
X120325000Y41925000D03*
%TD*%
%TO.C,U6*%
X96650000Y41600000D03*
X94950000Y41600000D03*
%TD*%
%TO.C,U5*%
X70875000Y41700000D03*
X69175000Y41700000D03*
%TD*%
D11*
%TO.C,R14*%
X124145000Y5300000D03*
X125005000Y5300000D03*
%TD*%
%TO.C,R13*%
X98695000Y5525000D03*
X99555000Y5525000D03*
%TD*%
%TO.C,R12*%
X73220000Y5175000D03*
X74080000Y5175000D03*
%TD*%
%TO.C,R11*%
X124020000Y41925000D03*
X124880000Y41925000D03*
%TD*%
%TO.C,R10*%
X98645000Y41600000D03*
X99505000Y41600000D03*
%TD*%
%TO.C,R9*%
X73020000Y41700000D03*
X73880000Y41700000D03*
%TD*%
D12*
%TO.C,LED1*%
X47750000Y67950000D03*
X47750000Y69450000D03*
%TD*%
D13*
%TO.C,R1*%
X47117500Y71865000D03*
X47117500Y74825000D03*
%TD*%
D14*
%TO.C,C9*%
X67900000Y47830000D03*
X67900000Y53170000D03*
%TD*%
D15*
%TO.C,C6*%
X31010000Y72165000D03*
X25850000Y72165000D03*
%TD*%
D16*
%TO.C,R27*%
X15620000Y47100000D03*
X13980000Y47100000D03*
%TD*%
D11*
%TO.C,R8*%
X46370000Y41600000D03*
X47230000Y41600000D03*
%TD*%
D14*
%TO.C,C13*%
X93600000Y47930000D03*
X93600000Y53270000D03*
%TD*%
D17*
%TO.C,R21*%
X30975000Y56500000D03*
X28015000Y56500000D03*
%TD*%
D18*
%TO.C,R2*%
X45635000Y49600000D03*
X44165000Y49600000D03*
%TD*%
D16*
%TO.C,R32*%
X39020000Y52200000D03*
X37380000Y52200000D03*
%TD*%
D19*
%TO.C,C3*%
X107500000Y30750000D03*
X107500000Y39450000D03*
%TD*%
D16*
%TO.C,R6*%
X39020000Y47100000D03*
X37380000Y47100000D03*
%TD*%
D20*
%TO.C,C20*%
X26795000Y60175000D03*
X25695000Y60175000D03*
%TD*%
D11*
%TO.C,R16*%
X46370000Y36500000D03*
X47230000Y36500000D03*
%TD*%
D13*
%TO.C,R33*%
X9300000Y62640000D03*
X9300000Y65600000D03*
%TD*%
D11*
%TO.C,R17*%
X46370000Y33900000D03*
X47230000Y33900000D03*
%TD*%
%TO.C,R19*%
X46370000Y28900000D03*
X47230000Y28900000D03*
%TD*%
D16*
%TO.C,R7*%
X15620000Y34400000D03*
X13980000Y34400000D03*
%TD*%
D21*
%TO.C,C8*%
X63500000Y8850000D03*
X63500000Y9950000D03*
%TD*%
D11*
%TO.C,R18*%
X46370000Y31400000D03*
X47230000Y31400000D03*
%TD*%
D16*
%TO.C,R29*%
X15620000Y42000000D03*
X13980000Y42000000D03*
%TD*%
D11*
%TO.C,R15*%
X46370000Y39000000D03*
X47230000Y39000000D03*
%TD*%
D22*
%TO.C,C4*%
X33930000Y71177000D03*
X33930000Y70313000D03*
%TD*%
D14*
%TO.C,C17*%
X119000000Y48130000D03*
X119000000Y53470000D03*
%TD*%
%TO.C,C18*%
X68100000Y11430000D03*
X68100000Y16770000D03*
%TD*%
D16*
%TO.C,R30*%
X15620000Y39500000D03*
X13980000Y39500000D03*
%TD*%
%TO.C,R28*%
X15620000Y44500000D03*
X13980000Y44500000D03*
%TD*%
D20*
%TO.C,C19*%
X27452500Y66175000D03*
X26352500Y66175000D03*
%TD*%
D11*
%TO.C,R3*%
X36800000Y73945000D03*
X37660000Y73945000D03*
%TD*%
D23*
%TO.C,R5*%
X37747500Y66100000D03*
X39747500Y66100000D03*
%TD*%
D22*
%TO.C,C5*%
X38975000Y57103000D03*
X38975000Y57967000D03*
%TD*%
D24*
%TO.C,L1*%
X34330000Y74115000D03*
X34330000Y76175000D03*
%TD*%
D11*
%TO.C,R4*%
X34817500Y66280000D03*
X35677500Y66280000D03*
%TD*%
D25*
%TO.C,F1*%
X32435000Y66325000D03*
X29535000Y66325000D03*
%TD*%
D21*
%TO.C,C7*%
X63000000Y45250000D03*
X63000000Y46350000D03*
%TD*%
D26*
%TO.C,D2*%
X31067500Y63625000D03*
X28787500Y63625000D03*
%TD*%
D27*
%TO.C,U1*%
X35780000Y69695000D03*
X36730000Y69695000D03*
X37680000Y69695000D03*
X37680000Y71995000D03*
X36730000Y71995000D03*
X35780000Y71995000D03*
%TD*%
D13*
%TO.C,R34*%
X6900000Y62640000D03*
X6900000Y65600000D03*
%TD*%
D28*
%TO.C,C2*%
X38130000Y76065000D03*
X36730000Y76065000D03*
%TD*%
D14*
%TO.C,C14*%
X93600000Y11480000D03*
X93600000Y16820000D03*
%TD*%
D21*
%TO.C,C11*%
X88600000Y45350000D03*
X88600000Y46450000D03*
%TD*%
D10*
%TO.C,U2*%
X26195000Y56450000D03*
X24495000Y56450000D03*
%TD*%
D29*
%TO.C,C1*%
X42330000Y74825000D03*
X42330000Y69665000D03*
%TD*%
D17*
%TO.C,R20*%
X26795000Y63625000D03*
X23835000Y63625000D03*
%TD*%
D16*
%TO.C,R26*%
X15620000Y49600000D03*
X13980000Y49600000D03*
%TD*%
D21*
%TO.C,C12*%
X88700000Y8800000D03*
X88700000Y9900000D03*
%TD*%
%TO.C,C16*%
X114375000Y8950000D03*
X114375000Y10050000D03*
%TD*%
D16*
%TO.C,R31*%
X15620000Y36900000D03*
X13980000Y36900000D03*
%TD*%
D14*
%TO.C,C10*%
X119000000Y11330000D03*
X119000000Y16670000D03*
%TD*%
D30*
%TO.C,Q1*%
X28990000Y61100000D03*
X31450000Y60150000D03*
X28990000Y59200000D03*
%TD*%
D31*
%TO.C,FPC1*%
X7657500Y53450000D03*
X7657500Y52950000D03*
X7657500Y52450000D03*
X7657500Y51950000D03*
X7657500Y51450000D03*
X7657500Y50950000D03*
X7657500Y50450000D03*
X7657500Y49950000D03*
X7657500Y49450000D03*
X7657500Y48950000D03*
X7657500Y48450000D03*
X7657500Y47950000D03*
D32*
X4977500Y55150000D03*
X4977500Y46250000D03*
%TD*%
D21*
%TO.C,C15*%
X114150000Y45350000D03*
X114150000Y46450000D03*
%TD*%
M02*
