M48
; DRILL file {KiCad (6.0.7)} date Mon Aug  4 23:03:32 2025
; FORMAT={-:-/ absolute / metric / decimal}
; #@! TF.CreationDate,2025-08-04T23:03:32+08:00
; #@! TF.GenerationSoftware,Kicad,Pcbnew,(6.0.7)
; #@! TF.FileFunction,MixedPlating,1,4
FMAT,2
METRIC
; #@! TA.AperFunction,Plated,PTH,ViaDrill
T1C0.300
; #@! TA.AperFunction,Plated,PTH,ComponentDrill
T2C0.750
; #@! TA.AperFunction,Plated,PTH,ComponentDrill
T3C0.950
; #@! TA.AperFunction,Plated,PTH,ComponentDrill
T4C1.000
; #@! TA.AperFunction,Plated,PTH,ComponentDrill
T5C1.020
; #@! TA.AperFunction,Plated,PTH,ComponentDrill
T6C1.200
; #@! TA.AperFunction,Plated,PTH,ComponentDrill
T7C1.800
; #@! TA.AperFunction,Plated,PTH,ComponentDrill
T8C3.200
%
G90
G05
T1
X5.5Y52.0
X5.75Y51.125
X12.0Y59.5
X12.625Y51.175
X16.5Y52.1
X20.55Y49.15
X22.75Y50.0
X22.8Y52.05
X40.15Y15.3
X40.2Y20.45
X45.6Y51.3
X48.0Y40.35
X48.025Y32.75
X48.05Y35.225
X48.075Y37.675
X48.075Y30.125
X51.375Y37.85
X51.45Y35.175
X51.475Y32.675
X51.575Y30.15
X72.275Y50.875
X72.275Y48.25
X72.3Y53.6
X72.4Y14.4
X72.425Y56.175
X72.425Y16.975
X72.45Y11.8
X76.8Y63.55
X88.9Y68.75
X97.875Y19.6
X97.975Y16.85
X97.975Y11.85
X98.0Y14.475
X98.25Y61.075
X102.25Y51.575
X102.25Y48.475
T2
X5.1Y68.9
X7.1Y68.9
X9.1Y68.9
X11.1Y68.9
X62.2Y70.1
X64.2Y70.1
X66.2Y70.1
X68.2Y70.1
X74.0Y70.1
X76.0Y70.1
X78.0Y70.1
X80.0Y70.1
X85.9Y70.1
X87.9Y70.1
X89.9Y70.1
X91.9Y70.1
T3
X4.75Y25.1
X7.25Y25.1
X9.75Y25.1
X12.25Y25.1
X55.5Y57.1
X55.5Y54.6
X55.5Y52.1
X55.5Y49.6
X55.725Y20.75
X55.725Y18.25
X55.725Y15.75
X55.725Y13.25
X81.025Y20.8
X81.025Y18.3
X81.025Y15.8
X81.025Y13.3
X81.325Y57.15
X81.325Y54.65
X81.325Y52.15
X81.325Y49.65
X106.5Y20.75
X106.5Y18.25
X106.5Y15.75
X106.5Y13.25
X106.725Y57.25
X106.725Y54.75
X106.725Y52.25
X106.725Y49.75
T4
X7.25Y5.1
X9.75Y5.1
X61.225Y62.287
X61.225Y59.747
X61.225Y57.207
X61.225Y54.667
X61.225Y52.127
X61.225Y49.587
X61.225Y47.047
X61.225Y44.508
X61.377Y25.94
X61.377Y23.4
X61.377Y20.86
X61.377Y18.32
X61.377Y15.78
X61.377Y13.24
X61.377Y10.7
X61.377Y8.16
X68.845Y44.508
X68.998Y8.16
X71.385Y44.508
X71.537Y8.16
X73.925Y62.287
X73.925Y59.747
X73.925Y57.207
X73.925Y54.667
X73.925Y52.127
X73.925Y49.587
X73.925Y47.047
X73.925Y44.508
X74.078Y25.94
X74.078Y23.4
X74.078Y20.86
X74.078Y18.32
X74.078Y15.78
X74.078Y13.24
X74.078Y10.7
X74.078Y8.16
X86.825Y62.387
X86.825Y59.847
X86.825Y57.307
X86.825Y54.767
X86.825Y52.227
X86.825Y49.688
X86.825Y47.148
X86.825Y44.607
X86.877Y25.99
X86.877Y23.45
X86.877Y20.91
X86.877Y18.37
X86.877Y15.83
X86.877Y13.29
X86.877Y10.75
X86.877Y8.21
X94.445Y44.607
X94.498Y8.21
X96.985Y44.607
X97.037Y8.21
X99.525Y62.387
X99.525Y59.847
X99.525Y57.307
X99.525Y54.767
X99.525Y52.227
X99.525Y49.688
X99.525Y47.148
X99.525Y44.607
X99.578Y25.99
X99.578Y23.45
X99.578Y20.91
X99.578Y18.37
X99.578Y15.83
X99.578Y13.29
X99.578Y10.75
X99.578Y8.21
X112.203Y62.49
X112.203Y59.95
X112.203Y57.41
X112.203Y54.87
X112.203Y52.33
X112.203Y49.79
X112.203Y47.25
X112.203Y44.71
X112.277Y25.99
X112.277Y23.45
X112.277Y20.91
X112.277Y18.37
X112.277Y15.83
X112.277Y13.29
X112.277Y10.75
X112.277Y8.21
X113.7Y70.0
X116.2Y70.0
X119.822Y44.71
X119.897Y8.21
X122.362Y44.71
X122.438Y8.21
X123.55Y70.025
X124.902Y62.49
X124.902Y59.95
X124.902Y57.41
X124.902Y54.87
X124.902Y52.33
X124.902Y49.79
X124.902Y47.25
X124.902Y44.71
X124.977Y25.99
X124.977Y23.45
X124.977Y20.91
X124.977Y18.37
X124.977Y15.83
X124.977Y13.29
X124.977Y10.75
X124.977Y8.21
X126.05Y70.025
T5
X18.599Y59.77
X18.599Y57.23
X18.599Y54.69
X18.599Y52.15
X18.599Y49.61
X18.599Y47.07
X18.599Y44.53
X18.599Y41.99
X18.599Y39.45
X18.599Y36.91
X18.599Y34.37
X18.599Y31.83
X18.599Y29.29
X18.599Y26.75
X18.599Y24.21
X18.599Y21.67
X18.599Y19.13
X18.599Y16.59
X18.599Y14.05
X18.599Y11.51
X18.599Y8.97
X18.599Y6.43
X41.459Y59.77
X41.459Y57.23
X41.459Y54.69
X41.459Y52.15
X41.459Y49.61
X41.459Y47.07
X41.459Y44.53
X41.459Y41.99
X41.459Y39.45
X41.459Y36.91
X41.459Y34.37
X41.459Y31.83
X41.459Y29.29
X41.459Y26.75
X41.459Y24.21
X41.459Y21.67
X41.459Y19.13
X41.459Y16.59
X41.459Y14.05
X41.459Y11.51
X41.459Y8.97
X41.459Y6.43
T6
X49.79Y41.55
X49.79Y39.01
X49.79Y36.47
X49.79Y33.93
X49.79Y31.39
X49.79Y28.85
X57.41Y41.55
X57.41Y39.01
X57.41Y36.47
X57.41Y33.93
X57.41Y31.39
X57.41Y28.85
T7
X118.0Y33.5
X123.0Y33.5
T8
X5.0Y37.0
X55.0Y69.0
X55.0Y5.0
X106.0Y69.0
X106.0Y5.0
T0
M30
