%TF.GenerationSoftware,KiCad,Pcbnew,(6.0.7)*%
%TF.CreationDate,2025-08-04T23:03:26+08:00*%
%TF.ProjectId,stepper_with_TMC2209_controller_board_V1,73746570-7065-4725-9f77-6974685f544d,rev?*%
%TF.SameCoordinates,PX496ed40PY848f8c0*%
%TF.FileFunction,Soldermask,Top*%
%TF.FilePolarity,Negative*%
%FSLAX46Y46*%
G04 Gerber Fmt 4.6, Leading zero omitted, Abs format (unit mm)*
G04 Created by KiCad (PCBNEW (6.0.7)) date 2025-08-04 23:03:26*
%MOMM*%
%LPD*%
G01*
G04 APERTURE LIST*
G04 Aperture macros list*
%AMRoundRect*
0 Rectangle with rounded corners*
0 $1 Rounding radius*
0 $2 $3 $4 $5 $6 $7 $8 $9 X,Y pos of 4 corners*
0 Add a 4 corners polygon primitive as box body*
4,1,4,$2,$3,$4,$5,$6,$7,$8,$9,$2,$3,0*
0 Add four circle primitives for the rounded corners*
1,1,$1+$1,$2,$3*
1,1,$1+$1,$4,$5*
1,1,$1+$1,$6,$7*
1,1,$1+$1,$8,$9*
0 Add four rect primitives between the rounded corners*
20,1,$1+$1,$2,$3,$4,$5,0*
20,1,$1+$1,$4,$5,$6,$7,0*
20,1,$1+$1,$6,$7,$8,$9,0*
20,1,$1+$1,$8,$9,$2,$3,0*%
%AMFreePoly0*
4,1,6,1.000000,0.000000,0.500000,-0.750000,-0.500000,-0.750000,-0.500000,0.750000,0.500000,0.750000,1.000000,0.000000,1.000000,0.000000,$1*%
%AMFreePoly1*
4,1,6,0.500000,-0.750000,-0.650000,-0.750000,-0.150000,0.000000,-0.650000,0.750000,0.500000,0.750000,0.500000,-0.750000,0.500000,-0.750000,$1*%
G04 Aperture macros list end*
%ADD10RoundRect,0.250000X-0.600000X-0.750000X0.600000X-0.750000X0.600000X0.750000X-0.600000X0.750000X0*%
%ADD11O,1.700000X2.000000*%
%ADD12R,0.800000X0.800000*%
%ADD13R,0.570000X0.540000*%
%ADD14RoundRect,0.102000X0.475000X-0.475000X0.475000X0.475000X-0.475000X0.475000X-0.475000X-0.475000X0*%
%ADD15RoundRect,0.102000X0.865000X-0.485000X0.865000X0.485000X-0.865000X0.485000X-0.865000X-0.485000X0*%
%ADD16R,1.200000X3.500000*%
%ADD17R,2.010000X5.400000*%
%ADD18RoundRect,0.102000X0.395000X0.465000X-0.395000X0.465000X-0.395000X-0.465000X0.395000X-0.465000X0*%
%ADD19RoundRect,0.102000X0.485000X0.865000X-0.485000X0.865000X-0.485000X-0.865000X0.485000X-0.865000X0*%
%ADD20RoundRect,0.102000X0.520000X0.510000X-0.520000X0.510000X-0.520000X-0.510000X0.520000X-0.510000X0*%
%ADD21RoundRect,0.102000X1.000000X-2.050000X1.000000X2.050000X-1.000000X2.050000X-1.000000X-2.050000X0*%
%ADD22R,0.790000X0.540000*%
%ADD23RoundRect,0.250000X-0.350000X-0.625000X0.350000X-0.625000X0.350000X0.625000X-0.350000X0.625000X0*%
%ADD24O,1.200000X1.750000*%
%ADD25RoundRect,0.250000X-0.725000X0.600000X-0.725000X-0.600000X0.725000X-0.600000X0.725000X0.600000X0*%
%ADD26O,1.950000X1.700000*%
%ADD27C,6.400000*%
%ADD28R,0.540000X0.790000*%
%ADD29C,2.904000*%
%ADD30RoundRect,0.102000X-0.754000X-0.754000X0.754000X-0.754000X0.754000X0.754000X-0.754000X0.754000X0*%
%ADD31C,1.712000*%
%ADD32RoundRect,0.102000X-0.300000X0.270000X-0.300000X-0.270000X0.300000X-0.270000X0.300000X0.270000X0*%
%ADD33FreePoly0,270.000000*%
%ADD34FreePoly1,270.000000*%
%ADD35RoundRect,0.102000X0.765000X0.765000X-0.765000X0.765000X-0.765000X-0.765000X0.765000X-0.765000X0*%
%ADD36C,1.734000*%
%ADD37R,1.130000X1.380000*%
%ADD38RoundRect,0.102000X0.300000X-0.270000X0.300000X0.270000X-0.300000X0.270000X-0.300000X-0.270000X0*%
%ADD39R,2.200000X1.200000*%
%ADD40R,1.190000X1.730000*%
%ADD41R,0.830000X0.630000*%
%ADD42RoundRect,0.250000X0.350000X0.625000X-0.350000X0.625000X-0.350000X-0.625000X0.350000X-0.625000X0*%
%ADD43R,0.530000X1.070000*%
%ADD44RoundRect,0.250000X-0.600000X-0.725000X0.600000X-0.725000X0.600000X0.725000X-0.600000X0.725000X0*%
%ADD45O,1.700000X1.950000*%
%ADD46R,0.800000X0.900000*%
%ADD47C,1.800000*%
%ADD48R,5.400000X2.010000*%
%ADD49R,1.070000X0.600000*%
%ADD50R,1.300000X0.300000*%
%ADD51R,1.600000X2.000000*%
G04 APERTURE END LIST*
D10*
%TO.C,J3*%
X123550000Y70025000D03*
D11*
X126050000Y70025000D03*
%TD*%
D10*
%TO.C,J2*%
X113700000Y70000000D03*
D11*
X116200000Y70000000D03*
%TD*%
D12*
%TO.C,U10*%
X122025000Y5300000D03*
X120325000Y5300000D03*
%TD*%
%TO.C,U9*%
X96675000Y5525000D03*
X94975000Y5525000D03*
%TD*%
%TO.C,U8*%
X71000000Y5175000D03*
X69300000Y5175000D03*
%TD*%
%TO.C,U7*%
X122025000Y41925000D03*
X120325000Y41925000D03*
%TD*%
%TO.C,U6*%
X96650000Y41600000D03*
X94950000Y41600000D03*
%TD*%
%TO.C,U5*%
X70875000Y41700000D03*
X69175000Y41700000D03*
%TD*%
D13*
%TO.C,R14*%
X124145000Y5300000D03*
X125005000Y5300000D03*
%TD*%
%TO.C,R13*%
X98695000Y5525000D03*
X99555000Y5525000D03*
%TD*%
%TO.C,R12*%
X73220000Y5175000D03*
X74080000Y5175000D03*
%TD*%
%TO.C,R11*%
X124020000Y41925000D03*
X124880000Y41925000D03*
%TD*%
%TO.C,R10*%
X98645000Y41600000D03*
X99505000Y41600000D03*
%TD*%
%TO.C,R9*%
X73020000Y41700000D03*
X73880000Y41700000D03*
%TD*%
D14*
%TO.C,LED1*%
X47750000Y67950000D03*
X47750000Y69450000D03*
%TD*%
D15*
%TO.C,R1*%
X47117500Y71865000D03*
X47117500Y74825000D03*
%TD*%
D16*
%TO.C,C9*%
X67900000Y47830000D03*
X67900000Y53170000D03*
%TD*%
D17*
%TO.C,C6*%
X31010000Y72165000D03*
X25850000Y72165000D03*
%TD*%
D18*
%TO.C,R27*%
X15620000Y47100000D03*
X13980000Y47100000D03*
%TD*%
D13*
%TO.C,R8*%
X46370000Y41600000D03*
X47230000Y41600000D03*
%TD*%
D16*
%TO.C,C13*%
X93600000Y47930000D03*
X93600000Y53270000D03*
%TD*%
D19*
%TO.C,R21*%
X30975000Y56500000D03*
X28015000Y56500000D03*
%TD*%
D20*
%TO.C,R2*%
X45635000Y49600000D03*
X44165000Y49600000D03*
%TD*%
D18*
%TO.C,R32*%
X39020000Y52200000D03*
X37380000Y52200000D03*
%TD*%
D21*
%TO.C,C3*%
X107500000Y30750000D03*
X107500000Y39450000D03*
%TD*%
D18*
%TO.C,R6*%
X39020000Y47100000D03*
X37380000Y47100000D03*
%TD*%
D22*
%TO.C,C20*%
X26795000Y60175000D03*
X25695000Y60175000D03*
%TD*%
D13*
%TO.C,R16*%
X46370000Y36500000D03*
X47230000Y36500000D03*
%TD*%
D15*
%TO.C,R33*%
X9300000Y62640000D03*
X9300000Y65600000D03*
%TD*%
D13*
%TO.C,R17*%
X46370000Y33900000D03*
X47230000Y33900000D03*
%TD*%
%TO.C,R19*%
X46370000Y28900000D03*
X47230000Y28900000D03*
%TD*%
D23*
%TO.C,J1*%
X62200000Y70100000D03*
D24*
X64200000Y70100000D03*
X66200000Y70100000D03*
X68200000Y70100000D03*
%TD*%
D18*
%TO.C,R7*%
X15620000Y34400000D03*
X13980000Y34400000D03*
%TD*%
D25*
%TO.C,JM4*%
X55725000Y20750000D03*
D26*
X55725000Y18250000D03*
X55725000Y15750000D03*
X55725000Y13250000D03*
%TD*%
D27*
%TO.C,REF\u002A\u002A*%
X106000000Y5000000D03*
%TD*%
D28*
%TO.C,C8*%
X63500000Y8850000D03*
X63500000Y9950000D03*
%TD*%
D29*
%TO.C,U4*%
X118000000Y33500000D03*
X123000000Y33500000D03*
%TD*%
D13*
%TO.C,R18*%
X46370000Y31400000D03*
X47230000Y31400000D03*
%TD*%
D27*
%TO.C,REF\u002A\u002A*%
X106000000Y69000000D03*
%TD*%
D18*
%TO.C,R29*%
X15620000Y42000000D03*
X13980000Y42000000D03*
%TD*%
D25*
%TO.C,JM5*%
X81025000Y20800000D03*
D26*
X81025000Y18300000D03*
X81025000Y15800000D03*
X81025000Y13300000D03*
%TD*%
D13*
%TO.C,R15*%
X46370000Y39000000D03*
X47230000Y39000000D03*
%TD*%
D30*
%TO.C,M6*%
X112277500Y25990000D03*
D31*
X112277500Y23450000D03*
X112277500Y20910000D03*
X112277500Y18370000D03*
X112277500Y15830000D03*
X112277500Y13290000D03*
X112277500Y10750000D03*
X112277500Y8210000D03*
X124977500Y25990000D03*
X124977500Y23450000D03*
X124977500Y20910000D03*
X124977500Y18370000D03*
X124977500Y15830000D03*
X124977500Y13290000D03*
X124977500Y10750000D03*
X124977500Y8210000D03*
X119897500Y8210000D03*
X122437500Y8210000D03*
%TD*%
D32*
%TO.C,C4*%
X33930000Y71177000D03*
X33930000Y70313000D03*
%TD*%
D16*
%TO.C,C17*%
X119000000Y48130000D03*
X119000000Y53470000D03*
%TD*%
D30*
%TO.C,M1*%
X61225000Y62287500D03*
D31*
X61225000Y59747500D03*
X61225000Y57207500D03*
X61225000Y54667500D03*
X61225000Y52127500D03*
X61225000Y49587500D03*
X61225000Y47047500D03*
X61225000Y44507500D03*
X73925000Y62287500D03*
X73925000Y59747500D03*
X73925000Y57207500D03*
X73925000Y54667500D03*
X73925000Y52127500D03*
X73925000Y49587500D03*
X73925000Y47047500D03*
X73925000Y44507500D03*
X68845000Y44507500D03*
X71385000Y44507500D03*
%TD*%
D33*
%TO.C,JP2*%
X9400000Y60800000D03*
D34*
X9400000Y59350000D03*
%TD*%
D16*
%TO.C,C18*%
X68100000Y11430000D03*
X68100000Y16770000D03*
%TD*%
D35*
%TO.C,U3*%
X41459500Y6430000D03*
D36*
X41459500Y8970000D03*
X41459500Y11510000D03*
X41459500Y14050000D03*
X41459500Y16590000D03*
X41459500Y19130000D03*
X41459500Y21670000D03*
X41459500Y24210000D03*
X41459500Y26750000D03*
X41459500Y29290000D03*
X41459500Y31830000D03*
X41459500Y34370000D03*
X41459500Y36910000D03*
X41459500Y39450000D03*
X41459500Y41990000D03*
X41459500Y44530000D03*
X41459500Y47070000D03*
X41459500Y49610000D03*
X41459500Y52150000D03*
X41459500Y54690000D03*
X41459500Y57230000D03*
X41459500Y59770000D03*
X18599500Y6430000D03*
X18599500Y8970000D03*
X18599500Y11510000D03*
X18599500Y14050000D03*
X18599500Y16590000D03*
X18599500Y19130000D03*
X18599500Y21670000D03*
X18599500Y24210000D03*
X18599500Y26750000D03*
X18599500Y29290000D03*
X18599500Y31830000D03*
X18599500Y34370000D03*
X18599500Y36910000D03*
X18599500Y39450000D03*
X18599500Y41990000D03*
X18599500Y44530000D03*
X18599500Y47070000D03*
X18599500Y49610000D03*
X18599500Y52150000D03*
X18599500Y54690000D03*
X18599500Y57230000D03*
X18599500Y59770000D03*
%TD*%
D18*
%TO.C,R30*%
X15620000Y39500000D03*
X13980000Y39500000D03*
%TD*%
%TO.C,R28*%
X15620000Y44500000D03*
X13980000Y44500000D03*
%TD*%
D22*
%TO.C,C19*%
X27452500Y66175000D03*
X26352500Y66175000D03*
%TD*%
D13*
%TO.C,R3*%
X36800000Y73945000D03*
X37660000Y73945000D03*
%TD*%
D37*
%TO.C,R5*%
X37747500Y66100000D03*
X39747500Y66100000D03*
%TD*%
D23*
%TO.C,J13*%
X74000000Y70100000D03*
D24*
X76000000Y70100000D03*
X78000000Y70100000D03*
X80000000Y70100000D03*
%TD*%
D38*
%TO.C,C5*%
X38975000Y57103000D03*
X38975000Y57967000D03*
%TD*%
D27*
%TO.C,REF\u002A\u002A*%
X55000000Y5000000D03*
%TD*%
D30*
%TO.C,M5*%
X86877500Y25990000D03*
D31*
X86877500Y23450000D03*
X86877500Y20910000D03*
X86877500Y18370000D03*
X86877500Y15830000D03*
X86877500Y13290000D03*
X86877500Y10750000D03*
X86877500Y8210000D03*
X99577500Y25990000D03*
X99577500Y23450000D03*
X99577500Y20910000D03*
X99577500Y18370000D03*
X99577500Y15830000D03*
X99577500Y13290000D03*
X99577500Y10750000D03*
X99577500Y8210000D03*
X94497500Y8210000D03*
X97037500Y8210000D03*
%TD*%
D39*
%TO.C,L1*%
X34330000Y74115000D03*
X34330000Y76175000D03*
%TD*%
D13*
%TO.C,R4*%
X34817500Y66280000D03*
X35677500Y66280000D03*
%TD*%
D40*
%TO.C,F1*%
X32435000Y66325000D03*
X29535000Y66325000D03*
%TD*%
D28*
%TO.C,C7*%
X63000000Y45250000D03*
X63000000Y46350000D03*
%TD*%
D41*
%TO.C,D2*%
X31067500Y63625000D03*
X28787500Y63625000D03*
%TD*%
D33*
%TO.C,JP3*%
X6800000Y60800000D03*
D34*
X6800000Y59350000D03*
%TD*%
D42*
%TO.C,J5*%
X11100000Y68900000D03*
D24*
X9100000Y68900000D03*
X7100000Y68900000D03*
X5100000Y68900000D03*
%TD*%
D25*
%TO.C,JM3*%
X106725000Y57250000D03*
D26*
X106725000Y54750000D03*
X106725000Y52250000D03*
X106725000Y49750000D03*
%TD*%
D43*
%TO.C,U1*%
X35780000Y69695000D03*
X36730000Y69695000D03*
X37680000Y69695000D03*
X37680000Y71995000D03*
X36730000Y71995000D03*
X35780000Y71995000D03*
%TD*%
D15*
%TO.C,R34*%
X6900000Y62640000D03*
X6900000Y65600000D03*
%TD*%
D44*
%TO.C,J6*%
X4750000Y25100000D03*
D45*
X7250000Y25100000D03*
X9750000Y25100000D03*
X12250000Y25100000D03*
%TD*%
D46*
%TO.C,C2*%
X38130000Y76065000D03*
X36730000Y76065000D03*
%TD*%
D30*
%TO.C,M3*%
X112202500Y62490000D03*
D31*
X112202500Y59950000D03*
X112202500Y57410000D03*
X112202500Y54870000D03*
X112202500Y52330000D03*
X112202500Y49790000D03*
X112202500Y47250000D03*
X112202500Y44710000D03*
X124902500Y62490000D03*
X124902500Y59950000D03*
X124902500Y57410000D03*
X124902500Y54870000D03*
X124902500Y52330000D03*
X124902500Y49790000D03*
X124902500Y47250000D03*
X124902500Y44710000D03*
X119822500Y44710000D03*
X122362500Y44710000D03*
%TD*%
D30*
%TO.C,M4*%
X61377500Y25940000D03*
D31*
X61377500Y23400000D03*
X61377500Y20860000D03*
X61377500Y18320000D03*
X61377500Y15780000D03*
X61377500Y13240000D03*
X61377500Y10700000D03*
X61377500Y8160000D03*
X74077500Y25940000D03*
X74077500Y23400000D03*
X74077500Y20860000D03*
X74077500Y18320000D03*
X74077500Y15780000D03*
X74077500Y13240000D03*
X74077500Y10700000D03*
X74077500Y8160000D03*
X68997500Y8160000D03*
X71537500Y8160000D03*
%TD*%
D25*
%TO.C,JM1*%
X55500000Y57100000D03*
D26*
X55500000Y54600000D03*
X55500000Y52100000D03*
X55500000Y49600000D03*
%TD*%
D23*
%TO.C,J7*%
X85900000Y70100000D03*
D24*
X87900000Y70100000D03*
X89900000Y70100000D03*
X91900000Y70100000D03*
%TD*%
D10*
%TO.C,J8*%
X7250000Y5100000D03*
D11*
X9750000Y5100000D03*
%TD*%
D16*
%TO.C,C14*%
X93600000Y11480000D03*
X93600000Y16820000D03*
%TD*%
D28*
%TO.C,C11*%
X88600000Y45350000D03*
X88600000Y46450000D03*
%TD*%
D12*
%TO.C,U2*%
X26195000Y56450000D03*
X24495000Y56450000D03*
%TD*%
D25*
%TO.C,JM6*%
X106500000Y20750000D03*
D26*
X106500000Y18250000D03*
X106500000Y15750000D03*
X106500000Y13250000D03*
%TD*%
D27*
%TO.C,REF\u002A\u002A*%
X5000000Y37000000D03*
%TD*%
D47*
%TO.C,SW1*%
X49790000Y28850000D03*
X49790000Y31390000D03*
X49790000Y33930000D03*
X49790000Y36470000D03*
X49790000Y39010000D03*
X49790000Y41550000D03*
X57410000Y28850000D03*
X57410000Y31390000D03*
X57410000Y33930000D03*
X57410000Y36470000D03*
X57410000Y39010000D03*
X57410000Y41550000D03*
%TD*%
D48*
%TO.C,C1*%
X42330000Y74825000D03*
X42330000Y69665000D03*
%TD*%
D19*
%TO.C,R20*%
X26795000Y63625000D03*
X23835000Y63625000D03*
%TD*%
D18*
%TO.C,R26*%
X15620000Y49600000D03*
X13980000Y49600000D03*
%TD*%
D28*
%TO.C,C12*%
X88700000Y8800000D03*
X88700000Y9900000D03*
%TD*%
%TO.C,C16*%
X114375000Y8950000D03*
X114375000Y10050000D03*
%TD*%
D30*
%TO.C,M2*%
X86825000Y62387500D03*
D31*
X86825000Y59847500D03*
X86825000Y57307500D03*
X86825000Y54767500D03*
X86825000Y52227500D03*
X86825000Y49687500D03*
X86825000Y47147500D03*
X86825000Y44607500D03*
X99525000Y62387500D03*
X99525000Y59847500D03*
X99525000Y57307500D03*
X99525000Y54767500D03*
X99525000Y52227500D03*
X99525000Y49687500D03*
X99525000Y47147500D03*
X99525000Y44607500D03*
X94445000Y44607500D03*
X96985000Y44607500D03*
%TD*%
D18*
%TO.C,R31*%
X15620000Y36900000D03*
X13980000Y36900000D03*
%TD*%
D16*
%TO.C,C10*%
X119000000Y11330000D03*
X119000000Y16670000D03*
%TD*%
D49*
%TO.C,Q1*%
X28990000Y61100000D03*
X31450000Y60150000D03*
X28990000Y59200000D03*
%TD*%
D50*
%TO.C,FPC1*%
X7657500Y53450000D03*
X7657500Y52950000D03*
X7657500Y52450000D03*
X7657500Y51950000D03*
X7657500Y51450000D03*
X7657500Y50950000D03*
X7657500Y50450000D03*
X7657500Y49950000D03*
X7657500Y49450000D03*
X7657500Y48950000D03*
X7657500Y48450000D03*
X7657500Y47950000D03*
D51*
X4977500Y55150000D03*
X4977500Y46250000D03*
%TD*%
D28*
%TO.C,C15*%
X114150000Y45350000D03*
X114150000Y46450000D03*
%TD*%
D27*
%TO.C,REF\u002A\u002A*%
X55000000Y69000000D03*
%TD*%
D25*
%TO.C,JM2*%
X81325000Y57150000D03*
D26*
X81325000Y54650000D03*
X81325000Y52150000D03*
X81325000Y49650000D03*
%TD*%
M02*
