%TF.GenerationSoftware,KiCad,Pcbnew,(6.0.7)*%
%TF.CreationDate,2025-07-27T15:57:52+08:00*%
%TF.ProjectId,Rotary_Encoder_AS5048A_V8,526f7461-7279-45f4-956e-636f6465725f,rev?*%
%TF.SameCoordinates,PXbebc200PY5f5e100*%
%TF.FileFunction,Legend,Top*%
%TF.FilePolarity,Positive*%
%FSLAX46Y46*%
G04 Gerber Fmt 4.6, Leading zero omitted, Abs format (unit mm)*
G04 Created by KiCad (PCBNEW (6.0.7)) date 2025-07-27 15:57:52*
%MOMM*%
%LPD*%
G01*
G04 APERTURE LIST*
%ADD10C,0.150000*%
%ADD11C,0.125000*%
%ADD12C,0.100000*%
%ADD13C,0.250000*%
%ADD14C,0.200000*%
%ADD15C,0.120000*%
%ADD16C,0.203200*%
G04 APERTURE END LIST*
D10*
X3329880Y10690667D02*
X3710833Y10690667D01*
X3253690Y10462096D02*
X3520357Y11262096D01*
X3787023Y10462096D01*
X4015595Y10500191D02*
X4129880Y10462096D01*
X4320357Y10462096D01*
X4396547Y10500191D01*
X4434642Y10538286D01*
X4472738Y10614477D01*
X4472738Y10690667D01*
X4434642Y10766858D01*
X4396547Y10804953D01*
X4320357Y10843048D01*
X4167976Y10881143D01*
X4091785Y10919239D01*
X4053690Y10957334D01*
X4015595Y11033524D01*
X4015595Y11109715D01*
X4053690Y11185905D01*
X4091785Y11224000D01*
X4167976Y11262096D01*
X4358452Y11262096D01*
X4472738Y11224000D01*
X5196547Y11262096D02*
X4815595Y11262096D01*
X4777500Y10881143D01*
X4815595Y10919239D01*
X4891785Y10957334D01*
X5082261Y10957334D01*
X5158452Y10919239D01*
X5196547Y10881143D01*
X5234642Y10804953D01*
X5234642Y10614477D01*
X5196547Y10538286D01*
X5158452Y10500191D01*
X5082261Y10462096D01*
X4891785Y10462096D01*
X4815595Y10500191D01*
X4777500Y10538286D01*
X5729880Y11262096D02*
X5806071Y11262096D01*
X5882261Y11224000D01*
X5920357Y11185905D01*
X5958452Y11109715D01*
X5996547Y10957334D01*
X5996547Y10766858D01*
X5958452Y10614477D01*
X5920357Y10538286D01*
X5882261Y10500191D01*
X5806071Y10462096D01*
X5729880Y10462096D01*
X5653690Y10500191D01*
X5615595Y10538286D01*
X5577500Y10614477D01*
X5539404Y10766858D01*
X5539404Y10957334D01*
X5577500Y11109715D01*
X5615595Y11185905D01*
X5653690Y11224000D01*
X5729880Y11262096D01*
X6682261Y10995429D02*
X6682261Y10462096D01*
X6491785Y11300191D02*
X6301309Y10728762D01*
X6796547Y10728762D01*
X7215595Y10919239D02*
X7139404Y10957334D01*
X7101309Y10995429D01*
X7063214Y11071620D01*
X7063214Y11109715D01*
X7101309Y11185905D01*
X7139404Y11224000D01*
X7215595Y11262096D01*
X7367976Y11262096D01*
X7444166Y11224000D01*
X7482261Y11185905D01*
X7520357Y11109715D01*
X7520357Y11071620D01*
X7482261Y10995429D01*
X7444166Y10957334D01*
X7367976Y10919239D01*
X7215595Y10919239D01*
X7139404Y10881143D01*
X7101309Y10843048D01*
X7063214Y10766858D01*
X7063214Y10614477D01*
X7101309Y10538286D01*
X7139404Y10500191D01*
X7215595Y10462096D01*
X7367976Y10462096D01*
X7444166Y10500191D01*
X7482261Y10538286D01*
X7520357Y10614477D01*
X7520357Y10766858D01*
X7482261Y10843048D01*
X7444166Y10881143D01*
X7367976Y10919239D01*
X7825119Y10690667D02*
X8206071Y10690667D01*
X7748928Y10462096D02*
X8015595Y11262096D01*
X8282261Y10462096D01*
X3329880Y9402667D02*
X3710833Y9402667D01*
X3253690Y9174096D02*
X3520357Y9974096D01*
X3787023Y9174096D01*
X4053690Y9174096D02*
X4053690Y9974096D01*
X4053690Y9669334D02*
X4129880Y9707429D01*
X4282261Y9707429D01*
X4358452Y9669334D01*
X4396547Y9631239D01*
X4434642Y9555048D01*
X4434642Y9326477D01*
X4396547Y9250286D01*
X4358452Y9212191D01*
X4282261Y9174096D01*
X4129880Y9174096D01*
X4053690Y9212191D01*
X4739404Y9212191D02*
X4815595Y9174096D01*
X4967976Y9174096D01*
X5044166Y9212191D01*
X5082261Y9288381D01*
X5082261Y9326477D01*
X5044166Y9402667D01*
X4967976Y9440762D01*
X4853690Y9440762D01*
X4777500Y9478858D01*
X4739404Y9555048D01*
X4739404Y9593143D01*
X4777500Y9669334D01*
X4853690Y9707429D01*
X4967976Y9707429D01*
X5044166Y9669334D01*
X5425119Y9250286D02*
X5463214Y9212191D01*
X5425119Y9174096D01*
X5387023Y9212191D01*
X5425119Y9250286D01*
X5425119Y9174096D01*
X6415595Y9593143D02*
X6682261Y9593143D01*
X6796547Y9174096D02*
X6415595Y9174096D01*
X6415595Y9974096D01*
X6796547Y9974096D01*
X7139404Y9707429D02*
X7139404Y9174096D01*
X7139404Y9631239D02*
X7177500Y9669334D01*
X7253690Y9707429D01*
X7367976Y9707429D01*
X7444166Y9669334D01*
X7482261Y9593143D01*
X7482261Y9174096D01*
X8206071Y9212191D02*
X8129880Y9174096D01*
X7977500Y9174096D01*
X7901309Y9212191D01*
X7863214Y9250286D01*
X7825119Y9326477D01*
X7825119Y9555048D01*
X7863214Y9631239D01*
X7901309Y9669334D01*
X7977500Y9707429D01*
X8129880Y9707429D01*
X8206071Y9669334D01*
X8663214Y9174096D02*
X8587023Y9212191D01*
X8548928Y9250286D01*
X8510833Y9326477D01*
X8510833Y9555048D01*
X8548928Y9631239D01*
X8587023Y9669334D01*
X8663214Y9707429D01*
X8777500Y9707429D01*
X8853690Y9669334D01*
X8891785Y9631239D01*
X8929880Y9555048D01*
X8929880Y9326477D01*
X8891785Y9250286D01*
X8853690Y9212191D01*
X8777500Y9174096D01*
X8663214Y9174096D01*
X9615595Y9174096D02*
X9615595Y9974096D01*
X9615595Y9212191D02*
X9539404Y9174096D01*
X9387023Y9174096D01*
X9310833Y9212191D01*
X9272738Y9250286D01*
X9234642Y9326477D01*
X9234642Y9555048D01*
X9272738Y9631239D01*
X9310833Y9669334D01*
X9387023Y9707429D01*
X9539404Y9707429D01*
X9615595Y9669334D01*
X10301309Y9212191D02*
X10225119Y9174096D01*
X10072738Y9174096D01*
X9996547Y9212191D01*
X9958452Y9288381D01*
X9958452Y9593143D01*
X9996547Y9669334D01*
X10072738Y9707429D01*
X10225119Y9707429D01*
X10301309Y9669334D01*
X10339404Y9593143D01*
X10339404Y9516953D01*
X9958452Y9440762D01*
X10682261Y9174096D02*
X10682261Y9707429D01*
X10682261Y9555048D02*
X10720357Y9631239D01*
X10758452Y9669334D01*
X10834642Y9707429D01*
X10910833Y9707429D01*
X11672738Y9974096D02*
X11939404Y9174096D01*
X12206071Y9974096D01*
X12434642Y9897905D02*
X12472738Y9936000D01*
X12548928Y9974096D01*
X12739404Y9974096D01*
X12815595Y9936000D01*
X12853690Y9897905D01*
X12891785Y9821715D01*
X12891785Y9745524D01*
X12853690Y9631239D01*
X12396547Y9174096D01*
X12891785Y9174096D01*
D11*
X-6207620Y-4893333D02*
X-6183810Y-4821904D01*
X-6183810Y-4702857D01*
X-6207620Y-4655238D01*
X-6231429Y-4631428D01*
X-6279048Y-4607619D01*
X-6326667Y-4607619D01*
X-6374286Y-4631428D01*
X-6398096Y-4655238D01*
X-6421905Y-4702857D01*
X-6445715Y-4798095D01*
X-6469524Y-4845714D01*
X-6493334Y-4869523D01*
X-6540953Y-4893333D01*
X-6588572Y-4893333D01*
X-6636191Y-4869523D01*
X-6660000Y-4845714D01*
X-6683810Y-4798095D01*
X-6683810Y-4679047D01*
X-6660000Y-4607619D01*
X-6183810Y-4393333D02*
X-6683810Y-4393333D01*
X-6683810Y-4202857D01*
X-6660000Y-4155238D01*
X-6636191Y-4131428D01*
X-6588572Y-4107619D01*
X-6517143Y-4107619D01*
X-6469524Y-4131428D01*
X-6445715Y-4155238D01*
X-6421905Y-4202857D01*
X-6421905Y-4393333D01*
X-6183810Y-3893333D02*
X-6683810Y-3893333D01*
X-6183810Y-3274285D02*
X-6683810Y-3274285D01*
X-6183810Y-3036190D02*
X-6683810Y-3036190D01*
X-6183810Y-2750476D01*
X-6683810Y-2750476D01*
X6522380Y1083334D02*
X6546190Y1154762D01*
X6546190Y1273810D01*
X6522380Y1321429D01*
X6498571Y1345239D01*
X6450952Y1369048D01*
X6403333Y1369048D01*
X6355714Y1345239D01*
X6331904Y1321429D01*
X6308095Y1273810D01*
X6284285Y1178572D01*
X6260476Y1130953D01*
X6236666Y1107143D01*
X6189047Y1083334D01*
X6141428Y1083334D01*
X6093809Y1107143D01*
X6070000Y1130953D01*
X6046190Y1178572D01*
X6046190Y1297620D01*
X6070000Y1369048D01*
X6546190Y1583334D02*
X6046190Y1583334D01*
X6046190Y1773810D01*
X6070000Y1821429D01*
X6093809Y1845239D01*
X6141428Y1869048D01*
X6212857Y1869048D01*
X6260476Y1845239D01*
X6284285Y1821429D01*
X6308095Y1773810D01*
X6308095Y1583334D01*
X6546190Y2083334D02*
X6046190Y2083334D01*
X6046190Y2797620D02*
X6046190Y2892858D01*
X6070000Y2940477D01*
X6117619Y2988096D01*
X6212857Y3011905D01*
X6379523Y3011905D01*
X6474761Y2988096D01*
X6522380Y2940477D01*
X6546190Y2892858D01*
X6546190Y2797620D01*
X6522380Y2750000D01*
X6474761Y2702381D01*
X6379523Y2678572D01*
X6212857Y2678572D01*
X6117619Y2702381D01*
X6070000Y2750000D01*
X6046190Y2797620D01*
X6046190Y3226191D02*
X6450952Y3226191D01*
X6498571Y3250000D01*
X6522380Y3273810D01*
X6546190Y3321429D01*
X6546190Y3416667D01*
X6522380Y3464286D01*
X6498571Y3488096D01*
X6450952Y3511905D01*
X6046190Y3511905D01*
X6046190Y3678572D02*
X6046190Y3964286D01*
X6546190Y3821429D02*
X6046190Y3821429D01*
D10*
%TO.C,U2*%
X-8577143Y11348572D02*
X-8577143Y10862858D01*
X-8548572Y10805715D01*
X-8520000Y10777143D01*
X-8462858Y10748572D01*
X-8348572Y10748572D01*
X-8291429Y10777143D01*
X-8262858Y10805715D01*
X-8234286Y10862858D01*
X-8234286Y11348572D01*
X-7977143Y11291429D02*
X-7948572Y11320000D01*
X-7891429Y11348572D01*
X-7748572Y11348572D01*
X-7691429Y11320000D01*
X-7662858Y11291429D01*
X-7634286Y11234286D01*
X-7634286Y11177143D01*
X-7662858Y11091429D01*
X-8005715Y10748572D01*
X-7634286Y10748572D01*
%TO.C,R1*%
X910000Y5768572D02*
X710000Y6054286D01*
X567142Y5768572D02*
X567142Y6368572D01*
X795714Y6368572D01*
X852857Y6340000D01*
X881428Y6311429D01*
X910000Y6254286D01*
X910000Y6168572D01*
X881428Y6111429D01*
X852857Y6082858D01*
X795714Y6054286D01*
X567142Y6054286D01*
X1481428Y5768572D02*
X1138571Y5768572D01*
X1310000Y5768572D02*
X1310000Y6368572D01*
X1252857Y6282858D01*
X1195714Y6225715D01*
X1138571Y6197143D01*
%TO.C,LED1*%
X4348571Y5728572D02*
X4062857Y5728572D01*
X4062857Y6328572D01*
X4548571Y6042858D02*
X4748571Y6042858D01*
X4834285Y5728572D02*
X4548571Y5728572D01*
X4548571Y6328572D01*
X4834285Y6328572D01*
X5091428Y5728572D02*
X5091428Y6328572D01*
X5234285Y6328572D01*
X5320000Y6300000D01*
X5377142Y6242858D01*
X5405714Y6185715D01*
X5434285Y6071429D01*
X5434285Y5985715D01*
X5405714Y5871429D01*
X5377142Y5814286D01*
X5320000Y5757143D01*
X5234285Y5728572D01*
X5091428Y5728572D01*
X6005714Y5728572D02*
X5662857Y5728572D01*
X5834285Y5728572D02*
X5834285Y6328572D01*
X5777142Y6242858D01*
X5720000Y6185715D01*
X5662857Y6157143D01*
%TO.C,JP7*%
X7411428Y-10100000D02*
X7840000Y-10100000D01*
X7925714Y-10128571D01*
X7982857Y-10185714D01*
X8011428Y-10271428D01*
X8011428Y-10328571D01*
X8011428Y-9814285D02*
X7411428Y-9814285D01*
X7411428Y-9585714D01*
X7440000Y-9528571D01*
X7468571Y-9500000D01*
X7525714Y-9471428D01*
X7611428Y-9471428D01*
X7668571Y-9500000D01*
X7697142Y-9528571D01*
X7725714Y-9585714D01*
X7725714Y-9814285D01*
X7411428Y-9271428D02*
X7411428Y-8871428D01*
X8011428Y-9128571D01*
%TO.C,D1*%
X-12542858Y10648572D02*
X-12542858Y11248572D01*
X-12400000Y11248572D01*
X-12314286Y11220000D01*
X-12257143Y11162858D01*
X-12228572Y11105715D01*
X-12200000Y10991429D01*
X-12200000Y10905715D01*
X-12228572Y10791429D01*
X-12257143Y10734286D01*
X-12314286Y10677143D01*
X-12400000Y10648572D01*
X-12542858Y10648572D01*
X-11628572Y10648572D02*
X-11971429Y10648572D01*
X-11800000Y10648572D02*
X-11800000Y11248572D01*
X-11857143Y11162858D01*
X-11914286Y11105715D01*
X-11971429Y11077143D01*
%TO.C,C4*%
X-3660000Y10725715D02*
X-3688572Y10697143D01*
X-3774286Y10668572D01*
X-3831429Y10668572D01*
X-3917143Y10697143D01*
X-3974286Y10754286D01*
X-4002858Y10811429D01*
X-4031429Y10925715D01*
X-4031429Y11011429D01*
X-4002858Y11125715D01*
X-3974286Y11182858D01*
X-3917143Y11240000D01*
X-3831429Y11268572D01*
X-3774286Y11268572D01*
X-3688572Y11240000D01*
X-3660000Y11211429D01*
X-3145715Y11068572D02*
X-3145715Y10668572D01*
X-3288572Y11297143D02*
X-3431429Y10868572D01*
X-3060000Y10868572D01*
%TO.C,C3*%
X-10290000Y10695715D02*
X-10318572Y10667143D01*
X-10404286Y10638572D01*
X-10461429Y10638572D01*
X-10547143Y10667143D01*
X-10604286Y10724286D01*
X-10632858Y10781429D01*
X-10661429Y10895715D01*
X-10661429Y10981429D01*
X-10632858Y11095715D01*
X-10604286Y11152858D01*
X-10547143Y11210000D01*
X-10461429Y11238572D01*
X-10404286Y11238572D01*
X-10318572Y11210000D01*
X-10290000Y11181429D01*
X-10090000Y11238572D02*
X-9718572Y11238572D01*
X-9918572Y11010000D01*
X-9832858Y11010000D01*
X-9775715Y10981429D01*
X-9747143Y10952858D01*
X-9718572Y10895715D01*
X-9718572Y10752858D01*
X-9747143Y10695715D01*
X-9775715Y10667143D01*
X-9832858Y10638572D01*
X-10004286Y10638572D01*
X-10061429Y10667143D01*
X-10090000Y10695715D01*
%TO.C,R2*%
X-4800000Y2228572D02*
X-5000000Y2514286D01*
X-5142858Y2228572D02*
X-5142858Y2828572D01*
X-4914286Y2828572D01*
X-4857143Y2800000D01*
X-4828572Y2771429D01*
X-4800000Y2714286D01*
X-4800000Y2628572D01*
X-4828572Y2571429D01*
X-4857143Y2542858D01*
X-4914286Y2514286D01*
X-5142858Y2514286D01*
X-4571429Y2771429D02*
X-4542858Y2800000D01*
X-4485715Y2828572D01*
X-4342858Y2828572D01*
X-4285715Y2800000D01*
X-4257143Y2771429D01*
X-4228572Y2714286D01*
X-4228572Y2657143D01*
X-4257143Y2571429D01*
X-4600000Y2228572D01*
X-4228572Y2228572D01*
%TO.C,J2*%
X-7380000Y6638572D02*
X-7380000Y6210000D01*
X-7408572Y6124286D01*
X-7465715Y6067143D01*
X-7551429Y6038572D01*
X-7608572Y6038572D01*
X-7122858Y6581429D02*
X-7094286Y6610000D01*
X-7037143Y6638572D01*
X-6894286Y6638572D01*
X-6837143Y6610000D01*
X-6808572Y6581429D01*
X-6780000Y6524286D01*
X-6780000Y6467143D01*
X-6808572Y6381429D01*
X-7151429Y6038572D01*
X-6780000Y6038572D01*
%TO.C,JP3*%
X-7618572Y-10320000D02*
X-7190000Y-10320000D01*
X-7104286Y-10348571D01*
X-7047143Y-10405714D01*
X-7018572Y-10491428D01*
X-7018572Y-10548571D01*
X-7018572Y-10034285D02*
X-7618572Y-10034285D01*
X-7618572Y-9805714D01*
X-7590000Y-9748571D01*
X-7561429Y-9720000D01*
X-7504286Y-9691428D01*
X-7418572Y-9691428D01*
X-7361429Y-9720000D01*
X-7332858Y-9748571D01*
X-7304286Y-9805714D01*
X-7304286Y-10034285D01*
X-7618572Y-9491428D02*
X-7618572Y-9120000D01*
X-7390000Y-9320000D01*
X-7390000Y-9234285D01*
X-7361429Y-9177142D01*
X-7332858Y-9148571D01*
X-7275715Y-9120000D01*
X-7132858Y-9120000D01*
X-7075715Y-9148571D01*
X-7047143Y-9177142D01*
X-7018572Y-9234285D01*
X-7018572Y-9405714D01*
X-7047143Y-9462857D01*
X-7075715Y-9491428D01*
%TO.C,JP1*%
X-12603572Y-10300000D02*
X-12175000Y-10300000D01*
X-12089286Y-10328571D01*
X-12032143Y-10385714D01*
X-12003572Y-10471428D01*
X-12003572Y-10528571D01*
X-12003572Y-10014285D02*
X-12603572Y-10014285D01*
X-12603572Y-9785714D01*
X-12575000Y-9728571D01*
X-12546429Y-9700000D01*
X-12489286Y-9671428D01*
X-12403572Y-9671428D01*
X-12346429Y-9700000D01*
X-12317858Y-9728571D01*
X-12289286Y-9785714D01*
X-12289286Y-10014285D01*
X-12003572Y-9100000D02*
X-12003572Y-9442857D01*
X-12003572Y-9271428D02*
X-12603572Y-9271428D01*
X-12517858Y-9328571D01*
X-12460715Y-9385714D01*
X-12432143Y-9442857D01*
%TO.C,FPC1*%
X-12940000Y6262858D02*
X-13140000Y6262858D01*
X-13140000Y5948572D02*
X-13140000Y6548572D01*
X-12854286Y6548572D01*
X-12625715Y5948572D02*
X-12625715Y6548572D01*
X-12397143Y6548572D01*
X-12340000Y6520000D01*
X-12311429Y6491429D01*
X-12282858Y6434286D01*
X-12282858Y6348572D01*
X-12311429Y6291429D01*
X-12340000Y6262858D01*
X-12397143Y6234286D01*
X-12625715Y6234286D01*
X-11682858Y6005715D02*
X-11711429Y5977143D01*
X-11797143Y5948572D01*
X-11854286Y5948572D01*
X-11940000Y5977143D01*
X-11997143Y6034286D01*
X-12025715Y6091429D01*
X-12054286Y6205715D01*
X-12054286Y6291429D01*
X-12025715Y6405715D01*
X-11997143Y6462858D01*
X-11940000Y6520000D01*
X-11854286Y6548572D01*
X-11797143Y6548572D01*
X-11711429Y6520000D01*
X-11682858Y6491429D01*
X-11111429Y5948572D02*
X-11454286Y5948572D01*
X-11282858Y5948572D02*
X-11282858Y6548572D01*
X-11340000Y6462858D01*
X-11397143Y6405715D01*
X-11454286Y6377143D01*
%TO.C,JP2*%
X-12628572Y-7500000D02*
X-12200000Y-7500000D01*
X-12114286Y-7528571D01*
X-12057143Y-7585714D01*
X-12028572Y-7671428D01*
X-12028572Y-7728571D01*
X-12028572Y-7214285D02*
X-12628572Y-7214285D01*
X-12628572Y-6985714D01*
X-12600000Y-6928571D01*
X-12571429Y-6900000D01*
X-12514286Y-6871428D01*
X-12428572Y-6871428D01*
X-12371429Y-6900000D01*
X-12342858Y-6928571D01*
X-12314286Y-6985714D01*
X-12314286Y-7214285D01*
X-12571429Y-6642857D02*
X-12600000Y-6614285D01*
X-12628572Y-6557142D01*
X-12628572Y-6414285D01*
X-12600000Y-6357142D01*
X-12571429Y-6328571D01*
X-12514286Y-6300000D01*
X-12457143Y-6300000D01*
X-12371429Y-6328571D01*
X-12028572Y-6671428D01*
X-12028572Y-6300000D01*
%TO.C,JP6*%
X2731428Y-7270000D02*
X3160000Y-7270000D01*
X3245714Y-7298571D01*
X3302857Y-7355714D01*
X3331428Y-7441428D01*
X3331428Y-7498571D01*
X3331428Y-6984285D02*
X2731428Y-6984285D01*
X2731428Y-6755714D01*
X2760000Y-6698571D01*
X2788571Y-6670000D01*
X2845714Y-6641428D01*
X2931428Y-6641428D01*
X2988571Y-6670000D01*
X3017142Y-6698571D01*
X3045714Y-6755714D01*
X3045714Y-6984285D01*
X2731428Y-6127142D02*
X2731428Y-6241428D01*
X2760000Y-6298571D01*
X2788571Y-6327142D01*
X2874285Y-6384285D01*
X2988571Y-6412857D01*
X3217142Y-6412857D01*
X3274285Y-6384285D01*
X3302857Y-6355714D01*
X3331428Y-6298571D01*
X3331428Y-6184285D01*
X3302857Y-6127142D01*
X3274285Y-6098571D01*
X3217142Y-6070000D01*
X3074285Y-6070000D01*
X3017142Y-6098571D01*
X2988571Y-6127142D01*
X2960000Y-6184285D01*
X2960000Y-6298571D01*
X2988571Y-6355714D01*
X3017142Y-6384285D01*
X3074285Y-6412857D01*
D12*
%TO.C,C1*%
X-2977143Y4663334D02*
X-2958096Y4644286D01*
X-2939048Y4587143D01*
X-2939048Y4549048D01*
X-2958096Y4491905D01*
X-2996191Y4453810D01*
X-3034286Y4434762D01*
X-3110477Y4415715D01*
X-3167620Y4415715D01*
X-3243810Y4434762D01*
X-3281905Y4453810D01*
X-3320000Y4491905D01*
X-3339048Y4549048D01*
X-3339048Y4587143D01*
X-3320000Y4644286D01*
X-3300953Y4663334D01*
X-2939048Y5044286D02*
X-2939048Y4815715D01*
X-2939048Y4930000D02*
X-3339048Y4930000D01*
X-3281905Y4891905D01*
X-3243810Y4853810D01*
X-3224762Y4815715D01*
%TO.C,C2*%
X-2927143Y5963334D02*
X-2908096Y5944286D01*
X-2889048Y5887143D01*
X-2889048Y5849048D01*
X-2908096Y5791905D01*
X-2946191Y5753810D01*
X-2984286Y5734762D01*
X-3060477Y5715715D01*
X-3117620Y5715715D01*
X-3193810Y5734762D01*
X-3231905Y5753810D01*
X-3270000Y5791905D01*
X-3289048Y5849048D01*
X-3289048Y5887143D01*
X-3270000Y5944286D01*
X-3250953Y5963334D01*
X-3250953Y6115715D02*
X-3270000Y6134762D01*
X-3289048Y6172858D01*
X-3289048Y6268096D01*
X-3270000Y6306191D01*
X-3250953Y6325239D01*
X-3212858Y6344286D01*
X-3174762Y6344286D01*
X-3117620Y6325239D01*
X-2889048Y6096667D01*
X-2889048Y6344286D01*
D10*
%TO.C,JP4*%
X-7598572Y-7520000D02*
X-7170000Y-7520000D01*
X-7084286Y-7548571D01*
X-7027143Y-7605714D01*
X-6998572Y-7691428D01*
X-6998572Y-7748571D01*
X-6998572Y-7234285D02*
X-7598572Y-7234285D01*
X-7598572Y-7005714D01*
X-7570000Y-6948571D01*
X-7541429Y-6920000D01*
X-7484286Y-6891428D01*
X-7398572Y-6891428D01*
X-7341429Y-6920000D01*
X-7312858Y-6948571D01*
X-7284286Y-7005714D01*
X-7284286Y-7234285D01*
X-7398572Y-6377142D02*
X-6998572Y-6377142D01*
X-7627143Y-6520000D02*
X-7198572Y-6662857D01*
X-7198572Y-6291428D01*
%TO.C,JP5*%
X2721428Y-10100000D02*
X3150000Y-10100000D01*
X3235714Y-10128571D01*
X3292857Y-10185714D01*
X3321428Y-10271428D01*
X3321428Y-10328571D01*
X3321428Y-9814285D02*
X2721428Y-9814285D01*
X2721428Y-9585714D01*
X2750000Y-9528571D01*
X2778571Y-9500000D01*
X2835714Y-9471428D01*
X2921428Y-9471428D01*
X2978571Y-9500000D01*
X3007142Y-9528571D01*
X3035714Y-9585714D01*
X3035714Y-9814285D01*
X2721428Y-8928571D02*
X2721428Y-9214285D01*
X3007142Y-9242857D01*
X2978571Y-9214285D01*
X2950000Y-9157142D01*
X2950000Y-9014285D01*
X2978571Y-8957142D01*
X3007142Y-8928571D01*
X3064285Y-8900000D01*
X3207142Y-8900000D01*
X3264285Y-8928571D01*
X3292857Y-8957142D01*
X3321428Y-9014285D01*
X3321428Y-9157142D01*
X3292857Y-9214285D01*
X3264285Y-9242857D01*
%TO.C,FPC2*%
X11260000Y6372858D02*
X11060000Y6372858D01*
X11060000Y6058572D02*
X11060000Y6658572D01*
X11345714Y6658572D01*
X11574285Y6058572D02*
X11574285Y6658572D01*
X11802857Y6658572D01*
X11860000Y6630000D01*
X11888571Y6601429D01*
X11917142Y6544286D01*
X11917142Y6458572D01*
X11888571Y6401429D01*
X11860000Y6372858D01*
X11802857Y6344286D01*
X11574285Y6344286D01*
X12517142Y6115715D02*
X12488571Y6087143D01*
X12402857Y6058572D01*
X12345714Y6058572D01*
X12260000Y6087143D01*
X12202857Y6144286D01*
X12174285Y6201429D01*
X12145714Y6315715D01*
X12145714Y6401429D01*
X12174285Y6515715D01*
X12202857Y6572858D01*
X12260000Y6630000D01*
X12345714Y6658572D01*
X12402857Y6658572D01*
X12488571Y6630000D01*
X12517142Y6601429D01*
X12745714Y6601429D02*
X12774285Y6630000D01*
X12831428Y6658572D01*
X12974285Y6658572D01*
X13031428Y6630000D01*
X13060000Y6601429D01*
X13088571Y6544286D01*
X13088571Y6487143D01*
X13060000Y6401429D01*
X12717142Y6058572D01*
X13088571Y6058572D01*
%TO.C,R3*%
X-4380000Y-5221428D02*
X-4580000Y-4935714D01*
X-4722858Y-5221428D02*
X-4722858Y-4621428D01*
X-4494286Y-4621428D01*
X-4437143Y-4650000D01*
X-4408572Y-4678571D01*
X-4380000Y-4735714D01*
X-4380000Y-4821428D01*
X-4408572Y-4878571D01*
X-4437143Y-4907142D01*
X-4494286Y-4935714D01*
X-4722858Y-4935714D01*
X-4180000Y-4621428D02*
X-3808572Y-4621428D01*
X-4008572Y-4850000D01*
X-3922858Y-4850000D01*
X-3865715Y-4878571D01*
X-3837143Y-4907142D01*
X-3808572Y-4964285D01*
X-3808572Y-5107142D01*
X-3837143Y-5164285D01*
X-3865715Y-5192857D01*
X-3922858Y-5221428D01*
X-4094286Y-5221428D01*
X-4151429Y-5192857D01*
X-4180000Y-5164285D01*
%TO.C,U1*%
X3022857Y3628572D02*
X3022857Y3142858D01*
X3051428Y3085715D01*
X3080000Y3057143D01*
X3137142Y3028572D01*
X3251428Y3028572D01*
X3308571Y3057143D01*
X3337142Y3085715D01*
X3365714Y3142858D01*
X3365714Y3628572D01*
X3965714Y3028572D02*
X3622857Y3028572D01*
X3794285Y3028572D02*
X3794285Y3628572D01*
X3737142Y3542858D01*
X3680000Y3485715D01*
X3622857Y3457143D01*
%TO.C,*%
D13*
%TO.C,U2*%
X-5790000Y9370000D02*
X-5790000Y8610000D01*
X-6260000Y7590000D02*
X-7100000Y7590000D01*
X-5980000Y10510000D02*
X-7380000Y10510000D01*
D10*
%TO.C,R1*%
X2540000Y5550000D02*
X1830000Y5550000D01*
X1830000Y5550000D02*
X1830000Y6550000D01*
X1830000Y6550000D02*
X2540000Y6550000D01*
X3000000Y5550000D02*
X3710000Y5550000D01*
X3710000Y5550000D02*
X3710000Y6550000D01*
X3710000Y6550000D02*
X3000000Y6550000D01*
D14*
%TO.C,LED1*%
X5464000Y7469000D02*
X5083000Y7088000D01*
X5515000Y8675000D02*
X3190000Y8675000D01*
X5515000Y7025000D02*
X5515000Y8675000D01*
X3190000Y7025000D02*
X5515000Y7025000D01*
D15*
%TO.C,JP7*%
X8545000Y-10600000D02*
X8545000Y-8600000D01*
X11345000Y-10600000D02*
X8545000Y-10600000D01*
X11345000Y-8600000D02*
X11345000Y-10600000D01*
X8545000Y-8600000D02*
X11345000Y-8600000D01*
D16*
%TO.C,D1*%
X-11490000Y9780000D02*
X-11490000Y9380000D01*
X-11490000Y9380000D02*
X-11490000Y7980000D01*
X-12790000Y9780000D02*
X-12790000Y9380000D01*
X-12790000Y9380000D02*
X-12790000Y7980000D01*
X-11490000Y9380000D02*
X-12790000Y9380000D01*
D13*
%TO.C,C4*%
X-2860000Y8680000D02*
X-2860000Y7880000D01*
X-2860000Y9240000D02*
X-2860000Y10040000D01*
X-4280000Y8680000D02*
X-4280000Y7880000D01*
X-4280000Y9240000D02*
X-4280000Y10040000D01*
X-3170000Y7570000D02*
X-3970000Y7570000D01*
X-3970000Y10350000D02*
X-3170000Y10350000D01*
X-3970000Y10350000D02*
G75*
G03*
X-4280000Y10040000I0J-310000D01*
G01*
X-2860000Y10040000D02*
G75*
G03*
X-3170000Y10350000I-310000J0D01*
G01*
X-3170000Y7570000D02*
G75*
G03*
X-2860000Y7880000I0J310000D01*
G01*
X-4280000Y7880000D02*
G75*
G03*
X-3970000Y7570000I310000J0D01*
G01*
%TO.C,C3*%
X-10820000Y9110000D02*
X-10820000Y9910000D01*
X-10820000Y8550000D02*
X-10820000Y7750000D01*
X-9400000Y9110000D02*
X-9400000Y9910000D01*
X-9400000Y8550000D02*
X-9400000Y7750000D01*
X-10510000Y10220000D02*
X-9710000Y10220000D01*
X-9710000Y7440000D02*
X-10510000Y7440000D01*
X-9710000Y7440000D02*
G75*
G03*
X-9400000Y7750000I0J310000D01*
G01*
X-10820000Y7750000D02*
G75*
G03*
X-10510000Y7440000I310000J0D01*
G01*
X-10510000Y10220000D02*
G75*
G03*
X-10820000Y9910000I0J-310000D01*
G01*
X-9400000Y9910000D02*
G75*
G03*
X-9710000Y10220000I-310000J0D01*
G01*
D10*
%TO.C,R2*%
X-4470000Y1800000D02*
X-3760000Y1800000D01*
X-5640000Y1800000D02*
X-5640000Y800000D01*
X-5640000Y800000D02*
X-4930000Y800000D01*
X-4930000Y1800000D02*
X-5640000Y1800000D01*
X-3760000Y800000D02*
X-4470000Y800000D01*
X-3760000Y1800000D02*
X-3760000Y800000D01*
D15*
%TO.C,J2*%
X-6095000Y5115000D02*
X-6095000Y5240000D01*
X-6095000Y5115000D02*
X-4705000Y5115000D01*
X-4705000Y5115000D02*
X-4705000Y5240000D01*
X-4791724Y5115000D02*
X-4705000Y5115000D01*
X-6095000Y6485000D02*
X-5400000Y6485000D01*
X-6095000Y5115000D02*
X-6008276Y5115000D01*
X-6095000Y5800000D02*
X-6095000Y6485000D01*
%TO.C,JP3*%
X-3570000Y-10810000D02*
X-6370000Y-10810000D01*
X-6370000Y-8810000D02*
X-3570000Y-8810000D01*
X-6370000Y-10810000D02*
X-6370000Y-8810000D01*
X-3570000Y-8810000D02*
X-3570000Y-10810000D01*
%TO.C,JP1*%
X-8400000Y-10800000D02*
X-11200000Y-10800000D01*
X-8400000Y-8800000D02*
X-8400000Y-10800000D01*
X-11200000Y-10800000D02*
X-11200000Y-8800000D01*
X-11200000Y-8800000D02*
X-8400000Y-8800000D01*
D13*
%TO.C,FPC1*%
X-11782500Y5350000D02*
X-13782500Y5350000D01*
X-8522500Y5280000D02*
X-9592500Y5280000D01*
X-8292500Y-5080000D02*
X-9362500Y-5080000D01*
X-8522500Y-5080000D02*
X-9592500Y-5080000D01*
X-8292500Y5280000D02*
X-9362500Y5280000D01*
X-12572500Y2590000D02*
X-13782500Y3090000D01*
X-13772500Y2100000D02*
X-12572500Y2590000D01*
X-11782500Y-5150000D02*
X-13782500Y-5150000D01*
X-8292500Y-3030000D02*
X-8292500Y-5080000D01*
X-8292500Y5280000D02*
X-8292500Y3230000D01*
X-13782500Y5350000D02*
X-13782500Y-5030000D01*
D15*
%TO.C,JP2*%
X-8400000Y-8000000D02*
X-11200000Y-8000000D01*
X-11200000Y-6000000D02*
X-8400000Y-6000000D01*
X-11200000Y-8000000D02*
X-11200000Y-6000000D01*
X-8400000Y-6000000D02*
X-8400000Y-8000000D01*
%TO.C,JP6*%
X6760000Y-7770000D02*
X3960000Y-7770000D01*
X6760000Y-5770000D02*
X6760000Y-7770000D01*
X3960000Y-5770000D02*
X6760000Y-5770000D01*
X3960000Y-7770000D02*
X3960000Y-5770000D01*
%TO.C,JP4*%
X-6370000Y-6020000D02*
X-3570000Y-6020000D01*
X-3570000Y-8020000D02*
X-6370000Y-8020000D01*
X-6370000Y-8020000D02*
X-6370000Y-6020000D01*
X-3570000Y-6020000D02*
X-3570000Y-8020000D01*
%TO.C,JP5*%
X6750000Y-10600000D02*
X3950000Y-10600000D01*
X3950000Y-8600000D02*
X6750000Y-8600000D01*
X6750000Y-8600000D02*
X6750000Y-10600000D01*
X3950000Y-10600000D02*
X3950000Y-8600000D01*
D13*
%TO.C,FPC2*%
X13782500Y-5150000D02*
X13782500Y5230000D01*
X8292500Y3230000D02*
X8292500Y5280000D01*
X12572500Y-2390000D02*
X13782500Y-2890000D01*
X11782500Y5350000D02*
X13782500Y5350000D01*
X8292500Y-5080000D02*
X9362500Y-5080000D01*
X11782500Y-5150000D02*
X13782500Y-5150000D01*
X8522500Y5280000D02*
X9592500Y5280000D01*
X8292500Y5280000D02*
X9362500Y5280000D01*
X8292500Y-5080000D02*
X8292500Y-3030000D01*
X8522500Y-5080000D02*
X9592500Y-5080000D01*
X13772500Y-1900000D02*
X12572500Y-2390000D01*
D10*
%TO.C,R3*%
X-3520000Y-5410000D02*
X-3520000Y-4410000D01*
X-3520000Y-4410000D02*
X-2810000Y-4410000D01*
X-2350000Y-5410000D02*
X-1640000Y-5410000D01*
X-1640000Y-4410000D02*
X-2350000Y-4410000D01*
X-2810000Y-5410000D02*
X-3520000Y-5410000D01*
X-1640000Y-5410000D02*
X-1640000Y-4410000D01*
D15*
%TO.C,U1*%
X2610000Y0D02*
X2610000Y-2200000D01*
X2610000Y0D02*
X2610000Y2200000D01*
X-2610000Y0D02*
X-2610000Y-3600000D01*
X-2610000Y0D02*
X-2610000Y2200000D01*
%TD*%
M02*
