%TF.GenerationSoftware,KiCad,Pcbnew,(6.0.7)*%
%TF.CreationDate,2025-07-27T15:57:52+08:00*%
%TF.ProjectId,Rotary_Encoder_AS5048A_V8,526f7461-7279-45f4-956e-636f6465725f,rev?*%
%TF.SameCoordinates,PXbebc200PY5f5e100*%
%TF.FileFunction,Paste,Top*%
%TF.FilePolarity,Positive*%
%FSLAX46Y46*%
G04 Gerber Fmt 4.6, Leading zero omitted, Abs format (unit mm)*
G04 Created by KiCad (PCBNEW (6.0.7)) date 2025-07-27 15:57:52*
%MOMM*%
%LPD*%
G01*
G04 APERTURE LIST*
G04 Aperture macros list*
%AMRoundRect*
0 Rectangle with rounded corners*
0 $1 Rounding radius*
0 $2 $3 $4 $5 $6 $7 $8 $9 X,Y pos of 4 corners*
0 Add a 4 corners polygon primitive as box body*
4,1,4,$2,$3,$4,$5,$6,$7,$8,$9,$2,$3,0*
0 Add four circle primitives for the rounded corners*
1,1,$1+$1,$2,$3*
1,1,$1+$1,$4,$5*
1,1,$1+$1,$6,$7*
1,1,$1+$1,$8,$9*
0 Add four rect primitives between the rounded corners*
20,1,$1+$1,$2,$3,$4,$5,0*
20,1,$1+$1,$4,$5,$6,$7,0*
20,1,$1+$1,$6,$7,$8,$9,0*
20,1,$1+$1,$8,$9,$2,$3,0*%
G04 Aperture macros list end*
%ADD10R,1.000000X0.600000*%
%ADD11R,0.570000X0.540000*%
%ADD12R,0.950000X0.950000*%
%ADD13R,0.830000X0.630000*%
%ADD14R,0.900000X0.800000*%
%ADD15R,1.300000X0.300000*%
%ADD16R,1.600000X2.000000*%
%ADD17R,0.600000X0.670000*%
%ADD18R,0.540000X0.600000*%
%ADD19RoundRect,0.100000X0.100000X-0.637500X0.100000X0.637500X-0.100000X0.637500X-0.100000X-0.637500X0*%
G04 APERTURE END LIST*
D10*
%TO.C,U2*%
X-7780000Y8990000D03*
X-7780000Y8040000D03*
X-7780000Y9940000D03*
X-5580000Y8040000D03*
X-5580000Y9940000D03*
%TD*%
D11*
%TO.C,R1*%
X3200000Y6050000D03*
X2340000Y6050000D03*
%TD*%
D12*
%TO.C,LED1*%
X3190000Y7850000D03*
X4690000Y7850000D03*
%TD*%
D13*
%TO.C,D1*%
X-12140000Y10030000D03*
X-12140000Y7730000D03*
%TD*%
D14*
%TO.C,C4*%
X-3570000Y9660000D03*
X-3570000Y8260000D03*
%TD*%
%TO.C,C3*%
X-10110000Y8130000D03*
X-10110000Y9530000D03*
%TD*%
D11*
%TO.C,R2*%
X-4270000Y1300000D03*
X-5130000Y1300000D03*
%TD*%
D15*
%TO.C,FPC1*%
X-7942500Y2850000D03*
X-7942500Y2350000D03*
X-7942500Y1850000D03*
X-7942500Y1350000D03*
X-7942500Y850000D03*
X-7942500Y350000D03*
X-7942500Y-150000D03*
X-7942500Y-650000D03*
X-7942500Y-1150000D03*
X-7942500Y-1650000D03*
X-7942500Y-2150000D03*
X-7942500Y-2650000D03*
D16*
X-10622500Y4550000D03*
X-10622500Y-4350000D03*
%TD*%
D17*
%TO.C,C1*%
X-1323000Y4720000D03*
X-2197000Y4720000D03*
%TD*%
D18*
%TO.C,C2*%
X-1328000Y6060000D03*
X-2192000Y6060000D03*
%TD*%
D15*
%TO.C,FPC2*%
X7942500Y-2650000D03*
X7942500Y-2150000D03*
X7942500Y-1650000D03*
X7942500Y-1150000D03*
X7942500Y-650000D03*
X7942500Y-150000D03*
X7942500Y350000D03*
X7942500Y850000D03*
X7942500Y1350000D03*
X7942500Y1850000D03*
X7942500Y2350000D03*
X7942500Y2850000D03*
D16*
X10622500Y-4350000D03*
X10622500Y4550000D03*
%TD*%
D11*
%TO.C,R3*%
X-3010000Y-4910000D03*
X-2150000Y-4910000D03*
%TD*%
D19*
%TO.C,U1*%
X-1950000Y-2862500D03*
X-1300000Y-2862500D03*
X-650000Y-2862500D03*
X0Y-2862500D03*
X650000Y-2862500D03*
X1300000Y-2862500D03*
X1950000Y-2862500D03*
X1950000Y2862500D03*
X1300000Y2862500D03*
X650000Y2862500D03*
X0Y2862500D03*
X-650000Y2862500D03*
X-1300000Y2862500D03*
X-1950000Y2862500D03*
%TD*%
M02*
