%TF.GenerationSoftware,KiCad,Pcbnew,(6.0.7)*%
%TF.CreationDate,2025-07-27T15:57:52+08:00*%
%TF.ProjectId,Rotary_Encoder_AS5048A_V8,526f7461-7279-45f4-956e-636f6465725f,rev?*%
%TF.SameCoordinates,PXbebc200PY5f5e100*%
%TF.FileFunction,Copper,L1,Top*%
%TF.FilePolarity,Positive*%
%FSLAX46Y46*%
G04 Gerber Fmt 4.6, Leading zero omitted, Abs format (unit mm)*
G04 Created by KiCad (PCBNEW (6.0.7)) date 2025-07-27 15:57:52*
%MOMM*%
%LPD*%
G01*
G04 APERTURE LIST*
G04 Aperture macros list*
%AMRoundRect*
0 Rectangle with rounded corners*
0 $1 Rounding radius*
0 $2 $3 $4 $5 $6 $7 $8 $9 X,Y pos of 4 corners*
0 Add a 4 corners polygon primitive as box body*
4,1,4,$2,$3,$4,$5,$6,$7,$8,$9,$2,$3,0*
0 Add four circle primitives for the rounded corners*
1,1,$1+$1,$2,$3*
1,1,$1+$1,$4,$5*
1,1,$1+$1,$6,$7*
1,1,$1+$1,$8,$9*
0 Add four rect primitives between the rounded corners*
20,1,$1+$1,$2,$3,$4,$5,0*
20,1,$1+$1,$4,$5,$6,$7,0*
20,1,$1+$1,$6,$7,$8,$9,0*
20,1,$1+$1,$8,$9,$2,$3,0*%
%AMFreePoly0*
4,1,6,0.500000,-0.750000,-0.650000,-0.750000,-0.150000,0.000000,-0.650000,0.750000,0.500000,0.750000,0.500000,-0.750000,0.500000,-0.750000,$1*%
%AMFreePoly1*
4,1,6,1.000000,0.000000,0.500000,-0.750000,-0.500000,-0.750000,-0.500000,0.750000,0.500000,0.750000,1.000000,0.000000,1.000000,0.000000,$1*%
G04 Aperture macros list end*
%TA.AperFunction,SMDPad,CuDef*%
%ADD10R,1.000000X0.600000*%
%TD*%
%TA.AperFunction,SMDPad,CuDef*%
%ADD11R,0.570000X0.540000*%
%TD*%
%TA.AperFunction,SMDPad,CuDef*%
%ADD12R,0.950000X0.950000*%
%TD*%
%TA.AperFunction,SMDPad,CuDef*%
%ADD13FreePoly0,0.000000*%
%TD*%
%TA.AperFunction,SMDPad,CuDef*%
%ADD14FreePoly1,0.000000*%
%TD*%
%TA.AperFunction,SMDPad,CuDef*%
%ADD15R,0.830000X0.630000*%
%TD*%
%TA.AperFunction,SMDPad,CuDef*%
%ADD16R,0.900000X0.800000*%
%TD*%
%TA.AperFunction,ComponentPad*%
%ADD17C,3.800000*%
%TD*%
%TA.AperFunction,ComponentPad*%
%ADD18R,0.850000X0.850000*%
%TD*%
%TA.AperFunction,SMDPad,CuDef*%
%ADD19R,1.300000X0.300000*%
%TD*%
%TA.AperFunction,SMDPad,CuDef*%
%ADD20R,1.600000X2.000000*%
%TD*%
%TA.AperFunction,SMDPad,CuDef*%
%ADD21R,0.600000X0.670000*%
%TD*%
%TA.AperFunction,SMDPad,CuDef*%
%ADD22R,0.540000X0.600000*%
%TD*%
%TA.AperFunction,SMDPad,CuDef*%
%ADD23RoundRect,0.100000X0.100000X-0.637500X0.100000X0.637500X-0.100000X0.637500X-0.100000X-0.637500X0*%
%TD*%
%TA.AperFunction,ViaPad*%
%ADD24C,0.400000*%
%TD*%
%TA.AperFunction,Conductor*%
%ADD25C,0.250000*%
%TD*%
%TA.AperFunction,Conductor*%
%ADD26C,0.210000*%
%TD*%
%TA.AperFunction,Conductor*%
%ADD27C,0.200000*%
%TD*%
G04 APERTURE END LIST*
D10*
%TO.P,U2,2,GND*%
%TO.N,GND*%
X-7780000Y8990000D03*
%TO.P,U2,3,EN*%
%TO.N,/5V*%
X-7780000Y8040000D03*
%TO.P,U2,1,IN*%
X-7780000Y9940000D03*
%TO.P,U2,4,NC*%
%TO.N,unconnected-(U2-Pad4)*%
X-5580000Y8040000D03*
%TO.P,U2,5,OUT*%
%TO.N,/3V3*%
X-5580000Y9940000D03*
%TD*%
D11*
%TO.P,R1,2,2*%
%TO.N,Net-(LED1-Pad2)*%
X3200000Y6050000D03*
%TO.P,R1,1,1*%
%TO.N,/3V3*%
X2340000Y6050000D03*
%TD*%
D12*
%TO.P,LED1,2,A*%
%TO.N,Net-(LED1-Pad2)*%
X3190000Y7850000D03*
%TO.P,LED1,1,K*%
%TO.N,GND*%
X4690000Y7850000D03*
%TD*%
D13*
%TO.P,JP7,2,B*%
%TO.N,/CS*%
X10670000Y-9600000D03*
D14*
%TO.P,JP7,1,A*%
%TO.N,/CS7*%
X9220000Y-9600000D03*
%TD*%
D15*
%TO.P,D1,C*%
%TO.N,/5V*%
X-12140000Y10030000D03*
%TO.P,D1,A*%
%TO.N,/5V_reg*%
X-12140000Y7730000D03*
%TD*%
D16*
%TO.P,C4,2,2*%
%TO.N,GND*%
X-3570000Y9660000D03*
%TO.P,C4,1,1*%
%TO.N,/3V3*%
X-3570000Y8260000D03*
%TD*%
%TO.P,C3,2,2*%
%TO.N,GND*%
X-10110000Y8130000D03*
%TO.P,C3,1,1*%
%TO.N,/5V*%
X-10110000Y9530000D03*
%TD*%
D17*
%TO.P,REF\u002A\u002A,1*%
%TO.N,N/C*%
X0Y9002500D03*
%TD*%
D11*
%TO.P,R2,1,1*%
%TO.N,Net-(R2-Pad1)*%
X-4270000Y1300000D03*
%TO.P,R2,2,2*%
%TO.N,/MISO*%
X-5130000Y1300000D03*
%TD*%
D18*
%TO.P,J2,1,Pin_1*%
%TO.N,Net-(J2-Pad1)*%
X-5400000Y5800000D03*
%TD*%
D17*
%TO.P,REF\u002A\u002A,1*%
%TO.N,N/C*%
X0Y-8997500D03*
%TD*%
D13*
%TO.P,JP3,2,B*%
%TO.N,/CS*%
X-4245000Y-9810000D03*
D14*
%TO.P,JP3,1,A*%
%TO.N,/CS3*%
X-5695000Y-9810000D03*
%TD*%
%TO.P,JP1,1,A*%
%TO.N,/CS1*%
X-10525000Y-9800000D03*
D13*
%TO.P,JP1,2,B*%
%TO.N,/CS*%
X-9075000Y-9800000D03*
%TD*%
D19*
%TO.P,FPC1,1,1*%
%TO.N,/5V_reg*%
X-7942500Y2850000D03*
%TO.P,FPC1,2,2*%
%TO.N,/MOSI*%
X-7942500Y2350000D03*
%TO.P,FPC1,3,3*%
%TO.N,/MISO*%
X-7942500Y1850000D03*
%TO.P,FPC1,4,4*%
%TO.N,/CLK*%
X-7942500Y1350000D03*
%TO.P,FPC1,5,5*%
%TO.N,GND*%
X-7942500Y850000D03*
%TO.P,FPC1,6,6*%
%TO.N,/CS1*%
X-7942500Y350000D03*
%TO.P,FPC1,7,7*%
%TO.N,/CS2*%
X-7942500Y-150000D03*
%TO.P,FPC1,8,8*%
%TO.N,/CS3*%
X-7942500Y-650000D03*
%TO.P,FPC1,9,9*%
%TO.N,/CS4*%
X-7942500Y-1150000D03*
%TO.P,FPC1,10,10*%
%TO.N,/CS5*%
X-7942500Y-1650000D03*
%TO.P,FPC1,11,11*%
%TO.N,/CS6*%
X-7942500Y-2150000D03*
%TO.P,FPC1,12,12*%
%TO.N,/CS7*%
X-7942500Y-2650000D03*
D20*
%TO.P,FPC1,13,13*%
%TO.N,GND*%
X-10622500Y4550000D03*
%TO.P,FPC1,14,14*%
X-10622500Y-4350000D03*
%TD*%
D14*
%TO.P,JP2,1,A*%
%TO.N,/CS2*%
X-10525000Y-7000000D03*
D13*
%TO.P,JP2,2,B*%
%TO.N,/CS*%
X-9075000Y-7000000D03*
%TD*%
D14*
%TO.P,JP6,1,A*%
%TO.N,/CS6*%
X4635000Y-6770000D03*
D13*
%TO.P,JP6,2,B*%
%TO.N,/CS*%
X6085000Y-6770000D03*
%TD*%
D21*
%TO.P,C1,1*%
%TO.N,/3V3*%
X-1323000Y4720000D03*
%TO.P,C1,2*%
%TO.N,GND*%
X-2197000Y4720000D03*
%TD*%
D22*
%TO.P,C2,1*%
%TO.N,/3V3*%
X-1328000Y6060000D03*
%TO.P,C2,2*%
%TO.N,GND*%
X-2192000Y6060000D03*
%TD*%
D13*
%TO.P,JP4,2,B*%
%TO.N,/CS*%
X-4245000Y-7020000D03*
D14*
%TO.P,JP4,1,A*%
%TO.N,/CS4*%
X-5695000Y-7020000D03*
%TD*%
%TO.P,JP5,1,A*%
%TO.N,/CS5*%
X4625000Y-9600000D03*
D13*
%TO.P,JP5,2,B*%
%TO.N,/CS*%
X6075000Y-9600000D03*
%TD*%
D19*
%TO.P,FPC2,1,1*%
%TO.N,/CS7*%
X7942500Y-2650000D03*
%TO.P,FPC2,2,2*%
%TO.N,/CS6*%
X7942500Y-2150000D03*
%TO.P,FPC2,3,3*%
%TO.N,/CS5*%
X7942500Y-1650000D03*
%TO.P,FPC2,4,4*%
%TO.N,/CS4*%
X7942500Y-1150000D03*
%TO.P,FPC2,5,5*%
%TO.N,/CS3*%
X7942500Y-650000D03*
%TO.P,FPC2,6,6*%
%TO.N,/CS2*%
X7942500Y-150000D03*
%TO.P,FPC2,7,7*%
%TO.N,/CS1*%
X7942500Y350000D03*
%TO.P,FPC2,8,8*%
%TO.N,GND*%
X7942500Y850000D03*
%TO.P,FPC2,9,9*%
%TO.N,/CLK*%
X7942500Y1350000D03*
%TO.P,FPC2,10,10*%
%TO.N,/MISO*%
X7942500Y1850000D03*
%TO.P,FPC2,11,11*%
%TO.N,/MOSI*%
X7942500Y2350000D03*
%TO.P,FPC2,12,12*%
%TO.N,/5V_reg*%
X7942500Y2850000D03*
D20*
%TO.P,FPC2,13,13*%
%TO.N,GND*%
X10622500Y-4350000D03*
%TO.P,FPC2,14,14*%
X10622500Y4550000D03*
%TD*%
D11*
%TO.P,R3,1,1*%
%TO.N,/3V3*%
X-3010000Y-4910000D03*
%TO.P,R3,2,2*%
%TO.N,/CS*%
X-2150000Y-4910000D03*
%TD*%
D23*
%TO.P,U1,1,~{CSn}*%
%TO.N,/CS*%
X-1950000Y-2862500D03*
%TO.P,U1,2,CLK*%
%TO.N,/CLK*%
X-1300000Y-2862500D03*
%TO.P,U1,3,MISO*%
%TO.N,Net-(R2-Pad1)*%
X-650000Y-2862500D03*
%TO.P,U1,4,MOSI*%
%TO.N,/MOSI*%
X0Y-2862500D03*
%TO.P,U1,5,TEST*%
%TO.N,unconnected-(U1-Pad5)*%
X650000Y-2862500D03*
%TO.P,U1,6,TEST*%
%TO.N,unconnected-(U1-Pad6)*%
X1300000Y-2862500D03*
%TO.P,U1,7,TEST*%
%TO.N,unconnected-(U1-Pad7)*%
X1950000Y-2862500D03*
%TO.P,U1,8,TEST*%
%TO.N,unconnected-(U1-Pad8)*%
X1950000Y2862500D03*
%TO.P,U1,9,TEST*%
%TO.N,unconnected-(U1-Pad9)*%
X1300000Y2862500D03*
%TO.P,U1,10,TEST*%
%TO.N,unconnected-(U1-Pad10)*%
X650000Y2862500D03*
%TO.P,U1,11,VDD5V*%
%TO.N,/3V3*%
X0Y2862500D03*
%TO.P,U1,12,VDD3V*%
X-650000Y2862500D03*
%TO.P,U1,13,GND*%
%TO.N,GND*%
X-1300000Y2862500D03*
%TO.P,U1,14,PWM*%
%TO.N,Net-(J2-Pad1)*%
X-1950000Y2862500D03*
%TD*%
D17*
%TO.P,,1*%
%TO.N,N/C*%
X0Y9002500D03*
%TD*%
%TO.P,,1*%
%TO.N,N/C*%
X0Y-8997500D03*
%TD*%
D24*
%TO.N,GND*%
X10610000Y2830000D03*
%TO.N,/3V3*%
X-780000Y1430000D03*
%TO.N,GND*%
X9360000Y-4370000D03*
X-6615000Y-5415000D03*
X-920000Y-5210000D03*
%TO.N,/3V3*%
X-4170000Y-4920000D03*
%TO.N,GND*%
X-10622500Y1332500D03*
X-11340000Y-2960000D03*
%TO.N,/CS6*%
X-6370000Y-2140000D03*
X6740000Y-2180000D03*
%TO.N,/CS5*%
X6170000Y-1660000D03*
X-5650000Y-1640000D03*
%TO.N,/5V_reg*%
X-12050000Y6650000D03*
%TO.N,/CS*%
X-2150000Y-6080000D03*
X7750000Y-8110000D03*
%TO.N,/5V_reg*%
X-6670000Y3190000D03*
X9200000Y2600000D03*
%TO.N,/CS7*%
X-5700000Y-2660000D03*
X6150000Y-2630000D03*
%TO.N,/CS4*%
X6730000Y-1140000D03*
X-6340000Y-1140000D03*
%TO.N,/CS3*%
X6180000Y-620000D03*
X-5620000Y-650000D03*
%TO.N,/CS2*%
X-6330000Y-160000D03*
X6690000Y-160000D03*
%TO.N,/CS1*%
X6200000Y350000D03*
X-5650000Y350000D03*
%TD*%
D25*
%TO.N,GND*%
X10622500Y2842500D02*
X10622500Y4550000D01*
X10610000Y2830000D02*
X10622500Y2842500D01*
X-9420000Y8130000D02*
X-10110000Y8130000D01*
X-8560000Y8990000D02*
X-9420000Y8130000D01*
X-7780000Y8990000D02*
X-8560000Y8990000D01*
%TO.N,/5V*%
X-6660000Y9420000D02*
X-7180000Y9940000D01*
X-6660000Y8520000D02*
X-6660000Y9420000D01*
X-7180000Y9940000D02*
X-7780000Y9940000D01*
X-7780000Y8040000D02*
X-7140000Y8040000D01*
X-7140000Y8040000D02*
X-6660000Y8520000D01*
%TO.N,/3V3*%
X-5470000Y9830000D02*
X-5470000Y9360000D01*
X-5580000Y9940000D02*
X-5470000Y9830000D01*
X-1328000Y6578000D02*
X-1328000Y6060000D01*
X-4370000Y8260000D02*
X-3010000Y8260000D01*
X-5470000Y9360000D02*
X-4370000Y8260000D01*
X-3010000Y8260000D02*
X-1328000Y6578000D01*
%TO.N,/5V*%
X-8640000Y9940000D02*
X-7780000Y9940000D01*
X-9050000Y9530000D02*
X-8640000Y9940000D01*
X-10110000Y9530000D02*
X-9050000Y9530000D01*
%TO.N,/3V3*%
X-650000Y1560000D02*
X-650000Y2862500D01*
X-780000Y1430000D02*
X-650000Y1560000D01*
D26*
%TO.N,/MISO*%
X9750000Y1850000D02*
X7942500Y1850000D01*
X10000000Y2100000D02*
X9750000Y1850000D01*
X10000000Y3000000D02*
X10000000Y2100000D01*
X9500000Y3500000D02*
X10000000Y3000000D01*
X5123188Y3500000D02*
X9500000Y3500000D01*
X-1794264Y730000D02*
X2353188Y730000D01*
X2353188Y730000D02*
X5123188Y3500000D01*
X-5374264Y4310000D02*
X-1794264Y730000D01*
X-9070000Y4310000D02*
X-5374264Y4310000D01*
X-9300000Y4080000D02*
X-9070000Y4310000D01*
X-9300000Y2100000D02*
X-9300000Y4080000D01*
X-9050000Y1850000D02*
X-9300000Y2100000D01*
X-7942500Y1850000D02*
X-9050000Y1850000D01*
%TO.N,/CLK*%
X-1300000Y-1140000D02*
X-1300000Y-2862500D01*
X-5663406Y825000D02*
X-3265000Y825000D01*
X-3265000Y825000D02*
X-1300000Y-1140000D01*
X-6188406Y1350000D02*
X-5663406Y825000D01*
X-7942500Y1350000D02*
X-6188406Y1350000D01*
%TO.N,/MOSI*%
X0Y-1500000D02*
X0Y-2862500D01*
X-3850000Y2350000D02*
X0Y-1500000D01*
X-7942500Y2350000D02*
X-3850000Y2350000D01*
%TO.N,Net-(R2-Pad1)*%
X-3224264Y1300000D02*
X-4270000Y1300000D01*
X-650000Y-1274264D02*
X-3224264Y1300000D01*
X-650000Y-2862500D02*
X-650000Y-1274264D01*
D27*
%TO.N,/CS7*%
X7942500Y-2650000D02*
X12340000Y-2650000D01*
X12620000Y-2930000D02*
X12620000Y-10639878D01*
X12340000Y-2650000D02*
X12620000Y-2930000D01*
X12620000Y-10639878D02*
X12229878Y-11030000D01*
X12229878Y-11030000D02*
X9460000Y-11030000D01*
X9460000Y-11030000D02*
X9220000Y-10790000D01*
X9220000Y-10790000D02*
X9220000Y-9600000D01*
D25*
%TO.N,GND*%
X9360000Y-4370000D02*
X10602500Y-4370000D01*
X10602500Y-4370000D02*
X10622500Y-4350000D01*
D27*
%TO.N,/CS*%
X-9075000Y-9800000D02*
X-9075000Y-10875000D01*
X-8680000Y-11270000D02*
X-4650000Y-11270000D01*
X-9075000Y-10875000D02*
X-8680000Y-11270000D01*
X-4650000Y-11270000D02*
X-4245000Y-10865000D01*
X-4245000Y-10865000D02*
X-4245000Y-9810000D01*
D25*
%TO.N,GND*%
X2490000Y-5210000D02*
X-920000Y-5210000D01*
X3410000Y330000D02*
X3410000Y-4290000D01*
X3490000Y410000D02*
X3410000Y330000D01*
X3930000Y850000D02*
X3490000Y410000D01*
X3410000Y-4290000D02*
X2490000Y-5210000D01*
X7942500Y850000D02*
X3930000Y850000D01*
D27*
%TO.N,/CS6*%
X4890000Y-2180000D02*
X4635000Y-2435000D01*
X4635000Y-2435000D02*
X4635000Y-6770000D01*
X6740000Y-2180000D02*
X4890000Y-2180000D01*
%TO.N,/CS5*%
X4600000Y-9625000D02*
X4625000Y-9600000D01*
X12350000Y-11320000D02*
X4860000Y-11320000D01*
X4600000Y-11060000D02*
X4600000Y-9625000D01*
X12910000Y-10760000D02*
X12350000Y-11320000D01*
X12910000Y-2100000D02*
X12910000Y-10760000D01*
X4860000Y-11320000D02*
X4600000Y-11060000D01*
X12460000Y-1650000D02*
X12910000Y-2100000D01*
X7942500Y-1650000D02*
X12460000Y-1650000D01*
%TO.N,/3V3*%
X-4160000Y-4910000D02*
X-4170000Y-4920000D01*
X-3010000Y-4910000D02*
X-4160000Y-4910000D01*
%TO.N,/CS3*%
X-7320000Y-9810000D02*
X-5695000Y-9810000D01*
X-7550000Y-9580000D02*
X-7320000Y-9810000D01*
X-7550000Y-5650122D02*
X-7550000Y-9580000D01*
X-8590183Y-5269939D02*
X-7930183Y-5269939D01*
X-10010000Y-2610000D02*
X-9400000Y-3220000D01*
X-9400000Y-3220000D02*
X-9400000Y-4460122D01*
X-9400000Y-4460122D02*
X-8590183Y-5269939D01*
X-10010000Y-1319878D02*
X-10010000Y-2610000D01*
X-7930183Y-5269939D02*
X-7550000Y-5650122D01*
X-7942500Y-650000D02*
X-9340122Y-650000D01*
X-9340122Y-650000D02*
X-10010000Y-1319878D01*
%TO.N,/CS4*%
X-6960000Y-7020000D02*
X-5695000Y-7020000D01*
X-7240000Y-6740000D02*
X-6960000Y-7020000D01*
X-7240000Y-5550000D02*
X-7240000Y-6740000D01*
X-8470061Y-4979939D02*
X-7810061Y-4979939D01*
X-9090000Y-3119878D02*
X-9090000Y-4360000D01*
X-9090000Y-4360000D02*
X-8470061Y-4979939D01*
X-9720000Y-2489878D02*
X-9090000Y-3119878D01*
X-9720000Y-1440000D02*
X-9720000Y-2489878D01*
X-7942500Y-1150000D02*
X-9430000Y-1150000D01*
X-9430000Y-1150000D02*
X-9720000Y-1440000D01*
X-7810061Y-4979939D02*
X-7240000Y-5550000D01*
D25*
%TO.N,GND*%
X-10622500Y-3677500D02*
X-11340000Y-2960000D01*
X-10622500Y-4350000D02*
X-10622500Y-3677500D01*
X10120000Y850000D02*
X10622500Y1352500D01*
X7942500Y850000D02*
X10120000Y850000D01*
X10622500Y1352500D02*
X10622500Y4550000D01*
D26*
%TO.N,/CS7*%
X-5710000Y-2650000D02*
X-7942500Y-2650000D01*
X-5700000Y-2660000D02*
X-5710000Y-2650000D01*
X6175000Y-2655000D02*
X7937500Y-2655000D01*
X7937500Y-2655000D02*
X7942500Y-2650000D01*
X6150000Y-2630000D02*
X6175000Y-2655000D01*
D27*
%TO.N,/CS6*%
X7912500Y-2180000D02*
X7942500Y-2150000D01*
X6740000Y-2180000D02*
X7912500Y-2180000D01*
X-6380000Y-2150000D02*
X-6370000Y-2140000D01*
X-7942500Y-2150000D02*
X-6380000Y-2150000D01*
%TO.N,/CS5*%
X7932500Y-1660000D02*
X7942500Y-1650000D01*
X6170000Y-1660000D02*
X7932500Y-1660000D01*
X-7942500Y-1650000D02*
X-5660000Y-1650000D01*
X-5660000Y-1650000D02*
X-5650000Y-1640000D01*
D25*
%TO.N,GND*%
X-10140000Y850000D02*
X-10622500Y1332500D01*
X-7942500Y850000D02*
X-10140000Y850000D01*
X-10622500Y1332500D02*
X-10622500Y4550000D01*
D26*
%TO.N,/CS1*%
X-5650000Y350000D02*
X-7942500Y350000D01*
%TO.N,/CS4*%
X-6340000Y-1140000D02*
X-6350000Y-1150000D01*
X-6350000Y-1150000D02*
X-7942500Y-1150000D01*
X6740000Y-1150000D02*
X7942500Y-1150000D01*
X6730000Y-1140000D02*
X6740000Y-1150000D01*
%TO.N,/CS3*%
X6180000Y-620000D02*
X6210000Y-650000D01*
X6210000Y-650000D02*
X7942500Y-650000D01*
X-5620000Y-650000D02*
X-7942500Y-650000D01*
%TO.N,/CS1*%
X6200000Y350000D02*
X7942500Y350000D01*
%TO.N,/CS2*%
X6690000Y-160000D02*
X6700000Y-150000D01*
X6700000Y-150000D02*
X7942500Y-150000D01*
X-6340000Y-150000D02*
X-7942500Y-150000D01*
X-6330000Y-160000D02*
X-6340000Y-150000D01*
D25*
%TO.N,GND*%
X-2197000Y6055000D02*
X-2192000Y6060000D01*
X-2197000Y4720000D02*
X-2197000Y6055000D01*
X-2197000Y4517000D02*
X-2197000Y4720000D01*
X-1300000Y3620000D02*
X-2197000Y4517000D01*
X-1300000Y2862500D02*
X-1300000Y3620000D01*
D27*
%TO.N,/CS*%
X6160000Y-8110000D02*
X6085000Y-8035000D01*
X7750000Y-8110000D02*
X6160000Y-8110000D01*
X6085000Y-8035000D02*
X6085000Y-6770000D01*
X6085000Y-9590000D02*
X6085000Y-8035000D01*
X6075000Y-9600000D02*
X6085000Y-9590000D01*
D25*
%TO.N,/3V3*%
X-650000Y3980000D02*
X-650000Y2862500D01*
X-1323000Y4653000D02*
X-650000Y3980000D01*
X-1323000Y4720000D02*
X-1323000Y4653000D01*
X0Y3670000D02*
X-1050000Y4720000D01*
X-1050000Y4720000D02*
X-1323000Y4720000D01*
X0Y2862500D02*
X0Y3670000D01*
%TO.N,Net-(LED1-Pad2)*%
X3200000Y7840000D02*
X3190000Y7850000D01*
X3200000Y6050000D02*
X3200000Y7840000D01*
%TO.N,/3V3*%
X-1328000Y6060000D02*
X2330000Y6060000D01*
X2330000Y6060000D02*
X2340000Y6050000D01*
X-1328000Y6060000D02*
X-1328000Y4725000D01*
X-1328000Y4725000D02*
X-1323000Y4720000D01*
%TO.N,/5V*%
X-10120000Y9520000D02*
X-10110000Y9530000D01*
X-10710000Y9520000D02*
X-10120000Y9520000D01*
X-11220000Y10030000D02*
X-10710000Y9520000D01*
X-12140000Y10030000D02*
X-11220000Y10030000D01*
%TO.N,/5V_reg*%
X-12050000Y6650000D02*
X-12050000Y7640000D01*
X-12050000Y7640000D02*
X-12140000Y7730000D01*
X-7010000Y2850000D02*
X-7942500Y2850000D01*
X-6670000Y3190000D02*
X-7010000Y2850000D01*
D26*
%TO.N,Net-(J2-Pad1)*%
X-2170000Y1810000D02*
X-1950000Y2030000D01*
X-1950000Y2030000D02*
X-1950000Y2862500D01*
X-3597330Y2960000D02*
X-2447330Y1810000D01*
X-3600000Y2960000D02*
X-3597330Y2960000D01*
X-5400000Y4760000D02*
X-3600000Y2960000D01*
X-5400000Y5800000D02*
X-5400000Y4760000D01*
X-2447330Y1810000D02*
X-2170000Y1810000D01*
D27*
%TO.N,/CS*%
X-4245000Y-7020000D02*
X-3090000Y-7020000D01*
X-3090000Y-7020000D02*
X-2150000Y-6080000D01*
X-4245000Y-7020000D02*
X-4245000Y-9810000D01*
X-9075000Y-7000000D02*
X-9075000Y-9800000D01*
X-1950000Y-4010000D02*
X-1950000Y-2862500D01*
X-2150000Y-4910000D02*
X-2150000Y-4210000D01*
X-2150000Y-4210000D02*
X-1950000Y-4010000D01*
X-2150000Y-6080000D02*
X-2150000Y-4910000D01*
X10420000Y-8120000D02*
X10410000Y-8110000D01*
X10670000Y-8370000D02*
X10420000Y-8120000D01*
X10410000Y-8110000D02*
X7750000Y-8110000D01*
X10670000Y-9600000D02*
X10670000Y-8370000D01*
D25*
%TO.N,/5V_reg*%
X7942500Y2850000D02*
X8950000Y2850000D01*
X8950000Y2850000D02*
X9200000Y2600000D01*
D26*
%TO.N,/MOSI*%
X7942500Y2350000D02*
X4411594Y2350000D01*
X2600000Y-3900000D02*
X2300000Y-4200000D01*
X4411594Y2350000D02*
X2600000Y538406D01*
X0Y-3900000D02*
X0Y-2862500D01*
X2600000Y538406D02*
X2600000Y-3900000D01*
X2300000Y-4200000D02*
X300000Y-4200000D01*
X300000Y-4200000D02*
X0Y-3900000D01*
%TO.N,/MISO*%
X-6250000Y1850000D02*
X-7942500Y1850000D01*
X-5130000Y1300000D02*
X-5700000Y1300000D01*
X-5700000Y1300000D02*
X-6250000Y1850000D01*
%TO.N,/CLK*%
X2238406Y-4700000D02*
X3000000Y-3938406D01*
X-1300000Y-2862500D02*
X-1300000Y-4300000D01*
X3000000Y-3938406D02*
X3000000Y500000D01*
X-1300000Y-4300000D02*
X-900000Y-4700000D01*
X3850000Y1350000D02*
X7942500Y1350000D01*
X-900000Y-4700000D02*
X2238406Y-4700000D01*
X3000000Y500000D02*
X3850000Y1350000D01*
%TO.N,/CS2*%
X-12000000Y-400000D02*
X-12000000Y-6700000D01*
X-7942500Y-150000D02*
X-11750000Y-150000D01*
X-12000000Y-6700000D02*
X-11700000Y-7000000D01*
X-11700000Y-7000000D02*
X-10525000Y-7000000D01*
X-11750000Y-150000D02*
X-12000000Y-400000D01*
%TO.N,/CS1*%
X-11688406Y350000D02*
X-12310000Y-271594D01*
X-12310000Y-271594D02*
X-12310000Y-8015000D01*
X-7942500Y350000D02*
X-11688406Y350000D01*
X-12310000Y-8015000D02*
X-10525000Y-9800000D01*
%TD*%
%TA.AperFunction,Conductor*%
%TO.N,GND*%
G36*
X5473965Y716498D02*
G01*
X5520458Y662842D01*
X5530562Y592568D01*
X5523237Y564730D01*
X5508718Y527491D01*
X5486335Y357474D01*
X5487169Y349924D01*
X5503183Y204873D01*
X5505153Y187025D01*
X5507762Y179894D01*
X5507763Y179892D01*
X5525108Y132496D01*
X5564085Y25985D01*
X5568323Y19679D01*
X5568323Y19678D01*
X5615449Y-50453D01*
X5636841Y-118150D01*
X5618237Y-186666D01*
X5613954Y-193179D01*
X5599748Y-213392D01*
X5551010Y-282739D01*
X5524188Y-351533D01*
X5505292Y-400000D01*
X5488718Y-442509D01*
X5466335Y-612526D01*
X5472573Y-669031D01*
X5484260Y-774886D01*
X5485153Y-782975D01*
X5544085Y-944015D01*
X5548322Y-950321D01*
X5548324Y-950324D01*
X5558996Y-966205D01*
X5622241Y-1060322D01*
X5624383Y-1063510D01*
X5645776Y-1131207D01*
X5627172Y-1199723D01*
X5622889Y-1206237D01*
X5571053Y-1279993D01*
X5541010Y-1322739D01*
X5523358Y-1368014D01*
X5488772Y-1456723D01*
X5480580Y-1477734D01*
X5480578Y-1477737D01*
X5478718Y-1482509D01*
X5477923Y-1482199D01*
X5444807Y-1537837D01*
X5381276Y-1569529D01*
X5359076Y-1571500D01*
X4938136Y-1571500D01*
X4921690Y-1570422D01*
X4898188Y-1567328D01*
X4890000Y-1566250D01*
X4881812Y-1567328D01*
X4850129Y-1571499D01*
X4850120Y-1571500D01*
X4850115Y-1571500D01*
X4731150Y-1587162D01*
X4583125Y-1648476D01*
X4583123Y-1648477D01*
X4583124Y-1648477D01*
X4487928Y-1721523D01*
X4487925Y-1721526D01*
X4456013Y-1746013D01*
X4450983Y-1752568D01*
X4436548Y-1771379D01*
X4425681Y-1783770D01*
X4238766Y-1970685D01*
X4226375Y-1981552D01*
X4201013Y-2001013D01*
X4176526Y-2032925D01*
X4176523Y-2032928D01*
X4176517Y-2032936D01*
X4109644Y-2120086D01*
X4103476Y-2128124D01*
X4044849Y-2269662D01*
X4042162Y-2276150D01*
X4026500Y-2395115D01*
X4026500Y-2395120D01*
X4021250Y-2435000D01*
X4022328Y-2443188D01*
X4025422Y-2466690D01*
X4026500Y-2483136D01*
X4026500Y-5427569D01*
X4006498Y-5495690D01*
X3952842Y-5542183D01*
X3935997Y-5548465D01*
X3930239Y-5550156D01*
X3921589Y-5552696D01*
X3914008Y-5557568D01*
X3806159Y-5626878D01*
X3806156Y-5626880D01*
X3798579Y-5631750D01*
X3792678Y-5638560D01*
X3708726Y-5735445D01*
X3708724Y-5735448D01*
X3702824Y-5742257D01*
X3699080Y-5750454D01*
X3699080Y-5750455D01*
X3684356Y-5782696D01*
X3642081Y-5875266D01*
X3621271Y-6020000D01*
X3621271Y-7520000D01*
X3626500Y-7593111D01*
X3643652Y-7651526D01*
X3661928Y-7713766D01*
X3667696Y-7733411D01*
X3672567Y-7740990D01*
X3741878Y-7848841D01*
X3741880Y-7848844D01*
X3746750Y-7856421D01*
X3753560Y-7862322D01*
X3850445Y-7946274D01*
X3850448Y-7946276D01*
X3857257Y-7952176D01*
X3865454Y-7955920D01*
X3865455Y-7955920D01*
X3923762Y-7982548D01*
X3990266Y-8012919D01*
X4135000Y-8033729D01*
X5135000Y-8033729D01*
X5136964Y-8033605D01*
X5136968Y-8033605D01*
X5193080Y-8030066D01*
X5193084Y-8030065D01*
X5199557Y-8029657D01*
X5245232Y-8017075D01*
X5296624Y-8013833D01*
X5358105Y-8022673D01*
X5368433Y-8024158D01*
X5433013Y-8053651D01*
X5471396Y-8113378D01*
X5476500Y-8148875D01*
X5476500Y-8215826D01*
X5456498Y-8283947D01*
X5402842Y-8330440D01*
X5360547Y-8341425D01*
X5350353Y-8342240D01*
X5350350Y-8342241D01*
X5343355Y-8342800D01*
X5336657Y-8344890D01*
X5336655Y-8344890D01*
X5316019Y-8351328D01*
X5260562Y-8355762D01*
X5184945Y-8344890D01*
X5125000Y-8336271D01*
X4125000Y-8336271D01*
X4116024Y-8336913D01*
X4058627Y-8341018D01*
X4058626Y-8341018D01*
X4051889Y-8341500D01*
X3998015Y-8357319D01*
X3920235Y-8380157D01*
X3920233Y-8380158D01*
X3911589Y-8382696D01*
X3904010Y-8387567D01*
X3796159Y-8456878D01*
X3796156Y-8456880D01*
X3788579Y-8461750D01*
X3782678Y-8468560D01*
X3698726Y-8565445D01*
X3698724Y-8565448D01*
X3692824Y-8572257D01*
X3632081Y-8705266D01*
X3611271Y-8850000D01*
X3611271Y-10350000D01*
X3616500Y-10423111D01*
X3637531Y-10494734D01*
X3649501Y-10535500D01*
X3657696Y-10563411D01*
X3662567Y-10570990D01*
X3731878Y-10678841D01*
X3731880Y-10678844D01*
X3736750Y-10686421D01*
X3743560Y-10692322D01*
X3840445Y-10776274D01*
X3840448Y-10776276D01*
X3847257Y-10782176D01*
X3855454Y-10785920D01*
X3855455Y-10785920D01*
X3917842Y-10814411D01*
X3971498Y-10860904D01*
X3991500Y-10929025D01*
X3991500Y-11011864D01*
X3990422Y-11028307D01*
X3986250Y-11060000D01*
X3991500Y-11099880D01*
X3991500Y-11099885D01*
X4003213Y-11188851D01*
X4007162Y-11218851D01*
X4010321Y-11226477D01*
X4010321Y-11226478D01*
X4046898Y-11314782D01*
X4054487Y-11385372D01*
X4022708Y-11448859D01*
X3961650Y-11485086D01*
X3930489Y-11489000D01*
X910329Y-11489000D01*
X842208Y-11468998D01*
X795715Y-11415342D01*
X785611Y-11345068D01*
X815105Y-11280488D01*
X863945Y-11245848D01*
X1023843Y-11182540D01*
X1023848Y-11182538D01*
X1027517Y-11181085D01*
X1138135Y-11120272D01*
X1289618Y-11036993D01*
X1289621Y-11036991D01*
X1293090Y-11035084D01*
X1538271Y-10856950D01*
X1567455Y-10829545D01*
X1756305Y-10652203D01*
X1759192Y-10649492D01*
X1946471Y-10423111D01*
X1949848Y-10419029D01*
X1949851Y-10419025D01*
X1952370Y-10415980D01*
X2114758Y-10160098D01*
X2243794Y-9885881D01*
X2337445Y-9597654D01*
X2394233Y-9299962D01*
X2413262Y-8997500D01*
X2394233Y-8695038D01*
X2337445Y-8397346D01*
X2274030Y-8202176D01*
X2245020Y-8112892D01*
X2245020Y-8112891D01*
X2243794Y-8109119D01*
X2227683Y-8074880D01*
X2177355Y-7967928D01*
X2114758Y-7834902D01*
X1952370Y-7579020D01*
X1929624Y-7551524D01*
X1893930Y-7508379D01*
X1759192Y-7345508D01*
X1538271Y-7138050D01*
X1293090Y-6959916D01*
X1027517Y-6813915D01*
X1023848Y-6812462D01*
X1023843Y-6812460D01*
X749409Y-6703804D01*
X749408Y-6703804D01*
X745739Y-6702351D01*
X452200Y-6626984D01*
X151530Y-6589000D01*
X-151530Y-6589000D01*
X-452200Y-6626984D01*
X-745739Y-6702351D01*
X-749408Y-6703804D01*
X-749409Y-6703804D01*
X-1023843Y-6812460D01*
X-1023848Y-6812462D01*
X-1027517Y-6813915D01*
X-1293090Y-6959916D01*
X-1538271Y-7138050D01*
X-1759192Y-7345508D01*
X-1893930Y-7508379D01*
X-1929623Y-7551524D01*
X-1952370Y-7579020D01*
X-2114758Y-7834902D01*
X-2177355Y-7967928D01*
X-2227682Y-8074880D01*
X-2243794Y-8109119D01*
X-2245020Y-8112891D01*
X-2245020Y-8112892D01*
X-2274030Y-8202176D01*
X-2337445Y-8397346D01*
X-2394233Y-8695038D01*
X-2413262Y-8997500D01*
X-2394233Y-9299962D01*
X-2337445Y-9597654D01*
X-2243794Y-9885881D01*
X-2114758Y-10160098D01*
X-1952370Y-10415980D01*
X-1949851Y-10419025D01*
X-1949848Y-10419029D01*
X-1946471Y-10423111D01*
X-1759192Y-10649492D01*
X-1756305Y-10652203D01*
X-1567454Y-10829545D01*
X-1538271Y-10856950D01*
X-1293090Y-11035084D01*
X-1289621Y-11036991D01*
X-1289618Y-11036993D01*
X-1138135Y-11120272D01*
X-1027517Y-11181085D01*
X-1023848Y-11182538D01*
X-1023843Y-11182540D01*
X-863945Y-11245848D01*
X-807971Y-11289523D01*
X-784495Y-11356526D01*
X-800971Y-11425584D01*
X-852167Y-11474773D01*
X-910329Y-11489000D01*
X-3701313Y-11489000D01*
X-3769434Y-11468998D01*
X-3815927Y-11415342D01*
X-3826031Y-11345068D01*
X-3801278Y-11286300D01*
X-3786526Y-11267075D01*
X-3786523Y-11267072D01*
X-3726502Y-11188851D01*
X-3713476Y-11171875D01*
X-3693555Y-11123781D01*
X-3649006Y-11068501D01*
X-3612644Y-11051104D01*
X-3540235Y-11029843D01*
X-3540233Y-11029842D01*
X-3531589Y-11027304D01*
X-3477718Y-10992683D01*
X-3416159Y-10953122D01*
X-3416156Y-10953120D01*
X-3408579Y-10948250D01*
X-3360117Y-10892322D01*
X-3318726Y-10844555D01*
X-3318724Y-10844552D01*
X-3312824Y-10837743D01*
X-3252081Y-10704734D01*
X-3231271Y-10560000D01*
X-3231271Y-9060000D01*
X-3236500Y-8986889D01*
X-3277696Y-8846589D01*
X-3318159Y-8783627D01*
X-3351878Y-8731159D01*
X-3351880Y-8731156D01*
X-3356750Y-8723579D01*
X-3363560Y-8717678D01*
X-3460445Y-8633726D01*
X-3460448Y-8633724D01*
X-3467257Y-8627824D01*
X-3562842Y-8584172D01*
X-3616498Y-8537679D01*
X-3636500Y-8469558D01*
X-3636500Y-8362431D01*
X-3616498Y-8294310D01*
X-3562842Y-8247817D01*
X-3545997Y-8241535D01*
X-3540239Y-8239844D01*
X-3540238Y-8239844D01*
X-3531589Y-8237304D01*
X-3503635Y-8219339D01*
X-3416159Y-8163122D01*
X-3416156Y-8163120D01*
X-3408579Y-8158250D01*
X-3401113Y-8149634D01*
X-3318726Y-8054555D01*
X-3318724Y-8054552D01*
X-3312824Y-8047743D01*
X-3303777Y-8027934D01*
X-3255825Y-7922932D01*
X-3252081Y-7914734D01*
X-3231271Y-7770000D01*
X-3231271Y-7758672D01*
X-3211269Y-7690551D01*
X-3157613Y-7644058D01*
X-3105271Y-7632672D01*
X-3098189Y-7632672D01*
X-3090000Y-7633750D01*
X-3081811Y-7632672D01*
X-3050126Y-7628501D01*
X-3050116Y-7628500D01*
X-3050115Y-7628500D01*
X-3050107Y-7628499D01*
X-2939336Y-7613916D01*
X-2939334Y-7613916D01*
X-2936178Y-7613500D01*
X-2931149Y-7612838D01*
X-2923523Y-7609679D01*
X-2923522Y-7609679D01*
X-2860331Y-7583504D01*
X-2783124Y-7551524D01*
X-2744973Y-7522250D01*
X-2687928Y-7478477D01*
X-2687925Y-7478474D01*
X-2662566Y-7459015D01*
X-2656013Y-7453987D01*
X-2644732Y-7439286D01*
X-2636548Y-7428621D01*
X-2625681Y-7416230D01*
X-2002255Y-6792804D01*
X-1941290Y-6759079D01*
X-1915641Y-6753205D01*
X-1915639Y-6753204D01*
X-1908241Y-6751510D01*
X-1755042Y-6674459D01*
X-1749271Y-6669530D01*
X-1749268Y-6669528D01*
X-1630422Y-6568023D01*
X-1624645Y-6563089D01*
X-1524576Y-6423830D01*
X-1460615Y-6264720D01*
X-1446431Y-6165060D01*
X-1437034Y-6099031D01*
X-1437034Y-6099027D01*
X-1436453Y-6094947D01*
X-1436296Y-6080000D01*
X-1444097Y-6015537D01*
X-1455985Y-5917299D01*
X-1455986Y-5917296D01*
X-1456898Y-5909758D01*
X-1463850Y-5891358D01*
X-1497353Y-5802696D01*
X-1517513Y-5749344D01*
X-1521813Y-5743087D01*
X-1525335Y-5736350D01*
X-1522937Y-5735096D01*
X-1541500Y-5675318D01*
X-1541500Y-5633413D01*
X-1521498Y-5565292D01*
X-1506800Y-5547054D01*
X-1501739Y-5543261D01*
X-1414385Y-5426705D01*
X-1398790Y-5385107D01*
X-1371946Y-5313500D01*
X-1370291Y-5309084D01*
X-1327650Y-5252319D01*
X-1261088Y-5227619D01*
X-1202268Y-5237676D01*
X-1176119Y-5248992D01*
X-1175652Y-5249194D01*
X-1164994Y-5254416D01*
X-1127639Y-5274951D01*
X-1119962Y-5276922D01*
X-1119957Y-5276924D01*
X-1108948Y-5279750D01*
X-1090239Y-5286155D01*
X-1072522Y-5293822D01*
X-1064695Y-5295062D01*
X-1064694Y-5295062D01*
X-1058569Y-5296032D01*
X-1033881Y-5299942D01*
X-1030415Y-5300491D01*
X-1018793Y-5302898D01*
X-1009131Y-5305379D01*
X-985180Y-5311529D01*
X-985179Y-5311529D01*
X-977503Y-5313500D01*
X-958203Y-5313500D01*
X-938492Y-5315051D01*
X-927254Y-5316831D01*
X-927252Y-5316831D01*
X-919424Y-5318071D01*
X-876984Y-5314059D01*
X-865125Y-5313500D01*
X2162277Y-5313500D01*
X2172918Y-5314002D01*
X2180212Y-5315632D01*
X2188138Y-5315383D01*
X2188139Y-5315383D01*
X2246079Y-5313562D01*
X2250037Y-5313500D01*
X2277004Y-5313500D01*
X2280942Y-5313003D01*
X2281683Y-5312956D01*
X2292522Y-5312103D01*
X2335142Y-5310763D01*
X2342757Y-5308550D01*
X2342760Y-5308550D01*
X2353675Y-5305379D01*
X2373040Y-5301368D01*
X2384331Y-5299942D01*
X2384333Y-5299941D01*
X2392190Y-5298949D01*
X2399554Y-5296033D01*
X2399559Y-5296032D01*
X2431831Y-5283254D01*
X2443064Y-5279408D01*
X2476378Y-5269730D01*
X2476382Y-5269728D01*
X2483993Y-5267517D01*
X2500607Y-5257691D01*
X2518361Y-5248994D01*
X2536311Y-5241887D01*
X2570803Y-5216827D01*
X2580712Y-5210318D01*
X2617413Y-5188613D01*
X2631057Y-5174969D01*
X2646091Y-5162128D01*
X2655299Y-5155438D01*
X2655300Y-5155437D01*
X2661714Y-5150777D01*
X2688893Y-5117923D01*
X2696883Y-5109143D01*
X3379970Y-4426056D01*
X3387859Y-4418877D01*
X3394168Y-4414873D01*
X3439287Y-4366826D01*
X3442041Y-4363985D01*
X3458303Y-4347724D01*
X3458310Y-4347716D01*
X3461103Y-4344923D01*
X3463528Y-4341796D01*
X3463951Y-4341317D01*
X3471090Y-4332960D01*
X3494851Y-4307656D01*
X3500277Y-4301878D01*
X3509578Y-4284960D01*
X3520430Y-4268440D01*
X3527403Y-4259451D01*
X3527404Y-4259449D01*
X3532263Y-4253185D01*
X3549199Y-4214049D01*
X3554418Y-4203396D01*
X3571133Y-4172991D01*
X3571134Y-4172988D01*
X3574951Y-4166045D01*
X3579751Y-4147349D01*
X3586155Y-4128645D01*
X3593823Y-4110927D01*
X3600493Y-4068810D01*
X3602897Y-4057203D01*
X3613500Y-4015909D01*
X3613500Y-3996614D01*
X3615051Y-3976903D01*
X3616832Y-3965658D01*
X3618072Y-3957829D01*
X3614059Y-3915381D01*
X3613500Y-3903522D01*
X3613500Y193690D01*
X3633502Y261811D01*
X3650405Y282785D01*
X4067215Y699595D01*
X4129527Y733621D01*
X4156310Y736500D01*
X5405844Y736500D01*
X5473965Y716498D01*
G37*
%TD.AperFunction*%
%TA.AperFunction,Conductor*%
G36*
X-842208Y11473998D02*
G01*
X-795715Y11420342D01*
X-785611Y11350068D01*
X-815105Y11285488D01*
X-863945Y11250848D01*
X-1023843Y11187540D01*
X-1023848Y11187538D01*
X-1027517Y11186085D01*
X-1030985Y11184179D01*
X-1030986Y11184178D01*
X-1289106Y11042274D01*
X-1293090Y11040084D01*
X-1538271Y10861950D01*
X-1759192Y10654492D01*
X-1852088Y10542200D01*
X-1947952Y10426320D01*
X-1952370Y10420980D01*
X-2114758Y10165098D01*
X-2243794Y9890881D01*
X-2337445Y9602654D01*
X-2394233Y9304962D01*
X-2413262Y9002500D01*
X-2408562Y8927804D01*
X-2407463Y8910328D01*
X-2423148Y8841085D01*
X-2473778Y8791315D01*
X-2543279Y8776819D01*
X-2609584Y8802198D01*
X-2651196Y8858186D01*
X-2666233Y8898297D01*
X-2669385Y8906705D01*
X-2756739Y9023261D01*
X-2873295Y9110615D01*
X-3009684Y9161745D01*
X-3071866Y9168500D01*
X-4068134Y9168500D01*
X-4130316Y9161745D01*
X-4137712Y9158973D01*
X-4137718Y9158971D01*
X-4232933Y9123276D01*
X-4303740Y9118093D01*
X-4366257Y9152162D01*
X-4566024Y9351928D01*
X-4600049Y9414240D01*
X-4594911Y9485253D01*
X-4581029Y9522282D01*
X-4581027Y9522288D01*
X-4578255Y9529684D01*
X-4571500Y9591866D01*
X-4571500Y10288134D01*
X-4578255Y10350316D01*
X-4629385Y10486705D01*
X-4716739Y10603261D01*
X-4833295Y10690615D01*
X-4969684Y10741745D01*
X-5031866Y10748500D01*
X-6128134Y10748500D01*
X-6190316Y10741745D01*
X-6326705Y10690615D01*
X-6443261Y10603261D01*
X-6530615Y10486705D01*
X-6533767Y10478297D01*
X-6533768Y10478295D01*
X-6543769Y10451617D01*
X-6586410Y10394852D01*
X-6652971Y10370152D01*
X-6722320Y10385359D01*
X-6750846Y10406751D01*
X-6760230Y10416135D01*
X-6763427Y10418615D01*
X-6772449Y10426320D01*
X-6785882Y10438935D01*
X-6804679Y10456586D01*
X-6803758Y10457566D01*
X-6829371Y10486668D01*
X-6829385Y10486705D01*
X-6916739Y10603261D01*
X-7033295Y10690615D01*
X-7169684Y10741745D01*
X-7231866Y10748500D01*
X-8328134Y10748500D01*
X-8390316Y10741745D01*
X-8526705Y10690615D01*
X-8643261Y10603261D01*
X-8643903Y10604118D01*
X-8698949Y10574060D01*
X-8721772Y10571244D01*
X-8739889Y10570674D01*
X-8747505Y10568461D01*
X-8747507Y10568461D01*
X-8759348Y10565021D01*
X-8778707Y10561012D01*
X-8780017Y10560846D01*
X-8798797Y10558474D01*
X-8806163Y10555558D01*
X-8806169Y10555556D01*
X-8839902Y10542200D01*
X-8851132Y10538355D01*
X-8885983Y10528230D01*
X-8893593Y10526019D01*
X-8900416Y10521984D01*
X-8911034Y10515705D01*
X-8928787Y10507008D01*
X-8936432Y10503981D01*
X-8947617Y10499552D01*
X-8959370Y10491013D01*
X-8983388Y10473563D01*
X-8993305Y10467049D01*
X-9031362Y10444542D01*
X-9036967Y10438938D01*
X-9045685Y10430220D01*
X-9060718Y10417380D01*
X-9077107Y10405472D01*
X-9087314Y10393134D01*
X-9105292Y10371402D01*
X-9113282Y10362622D01*
X-9154276Y10321628D01*
X-9216588Y10287602D01*
X-9287403Y10292667D01*
X-9318936Y10309897D01*
X-9406108Y10375229D01*
X-9406110Y10375230D01*
X-9413295Y10380615D01*
X-9549684Y10431745D01*
X-9611866Y10438500D01*
X-10608134Y10438500D01*
X-10611531Y10438131D01*
X-10659371Y10432934D01*
X-10729254Y10445462D01*
X-10759230Y10466345D01*
X-10777649Y10483641D01*
X-10780493Y10486398D01*
X-10800230Y10506135D01*
X-10803427Y10508615D01*
X-10812449Y10516320D01*
X-10844679Y10546586D01*
X-10851625Y10550405D01*
X-10851628Y10550407D01*
X-10862434Y10556348D01*
X-10878953Y10567199D01*
X-10887799Y10574060D01*
X-10894959Y10579614D01*
X-10902228Y10582759D01*
X-10902232Y10582762D01*
X-10935537Y10597174D01*
X-10946187Y10602391D01*
X-10984940Y10623695D01*
X-11004563Y10628733D01*
X-11023266Y10635137D01*
X-11034580Y10640033D01*
X-11034581Y10640033D01*
X-11041855Y10643181D01*
X-11049678Y10644420D01*
X-11049688Y10644423D01*
X-11085524Y10650099D01*
X-11097144Y10652505D01*
X-11132289Y10661528D01*
X-11132290Y10661528D01*
X-11139970Y10663500D01*
X-11160224Y10663500D01*
X-11179935Y10665051D01*
X-11192114Y10666980D01*
X-11199943Y10668220D01*
X-11207835Y10667474D01*
X-11243961Y10664059D01*
X-11255819Y10663500D01*
X-11266586Y10663500D01*
X-11334707Y10683502D01*
X-11355679Y10700402D01*
X-11356358Y10701081D01*
X-11361739Y10708261D01*
X-11478295Y10795615D01*
X-11614684Y10846745D01*
X-11676866Y10853500D01*
X-12603134Y10853500D01*
X-12665316Y10846745D01*
X-12801705Y10795615D01*
X-12918261Y10708261D01*
X-13005615Y10591705D01*
X-13056745Y10455316D01*
X-13063500Y10393134D01*
X-13063500Y9666866D01*
X-13056745Y9604684D01*
X-13005615Y9468295D01*
X-12918261Y9351739D01*
X-12801705Y9264385D01*
X-12665316Y9213255D01*
X-12603134Y9206500D01*
X-11676866Y9206500D01*
X-11614684Y9213255D01*
X-11501478Y9255694D01*
X-11486697Y9261235D01*
X-11486696Y9261236D01*
X-11478295Y9264385D01*
X-11476213Y9265945D01*
X-11409989Y9280430D01*
X-11343441Y9255694D01*
X-11329743Y9243838D01*
X-11213647Y9127742D01*
X-11206113Y9119463D01*
X-11202000Y9112982D01*
X-11156904Y9070634D01*
X-11152349Y9066357D01*
X-11149507Y9063602D01*
X-11129770Y9043865D01*
X-11126573Y9041385D01*
X-11117553Y9033682D01*
X-11085321Y9003414D01*
X-11078377Y8999596D01*
X-11075800Y8997724D01*
X-11031880Y8940019D01*
X-11010615Y8883295D01*
X-10923261Y8766739D01*
X-10806705Y8679385D01*
X-10670316Y8628255D01*
X-10608134Y8621500D01*
X-9611866Y8621500D01*
X-9549684Y8628255D01*
X-9413295Y8679385D01*
X-9296739Y8766739D01*
X-9289184Y8776819D01*
X-9237287Y8846065D01*
X-9180427Y8888580D01*
X-9136461Y8896500D01*
X-9128767Y8896500D01*
X-9117584Y8895973D01*
X-9110091Y8894298D01*
X-9102165Y8894547D01*
X-9102164Y8894547D01*
X-9042014Y8896438D01*
X-9038055Y8896500D01*
X-9010144Y8896500D01*
X-9006209Y8896997D01*
X-9006144Y8897005D01*
X-8994307Y8897938D01*
X-8962049Y8898952D01*
X-8958030Y8899078D01*
X-8950111Y8899327D01*
X-8930657Y8904979D01*
X-8911300Y8908987D01*
X-8899070Y8910532D01*
X-8899069Y8910532D01*
X-8891203Y8911526D01*
X-8883832Y8914445D01*
X-8883830Y8914445D01*
X-8850088Y8927804D01*
X-8838858Y8931649D01*
X-8804017Y8941771D01*
X-8804016Y8941771D01*
X-8796407Y8943982D01*
X-8789588Y8948015D01*
X-8789583Y8948017D01*
X-8778972Y8954293D01*
X-8761224Y8962988D01*
X-8742383Y8970448D01*
X-8717014Y8988879D01*
X-8706613Y8996436D01*
X-8696693Y9002952D01*
X-8665465Y9021420D01*
X-8665462Y9021422D01*
X-8658638Y9025458D01*
X-8644317Y9039779D01*
X-8629283Y9052620D01*
X-8612893Y9064528D01*
X-8584702Y9098605D01*
X-8576712Y9107384D01*
X-8560798Y9123298D01*
X-8498486Y9157324D01*
X-8427475Y9152185D01*
X-8390316Y9138255D01*
X-8382468Y9137402D01*
X-8382466Y9137402D01*
X-8331531Y9131869D01*
X-8328134Y9131500D01*
X-7419500Y9131500D01*
X-7351379Y9111498D01*
X-7304886Y9057842D01*
X-7293500Y9005500D01*
X-7293500Y8974500D01*
X-7313502Y8906379D01*
X-7367158Y8859886D01*
X-7419500Y8848500D01*
X-8328134Y8848500D01*
X-8390316Y8841745D01*
X-8526705Y8790615D01*
X-8643261Y8703261D01*
X-8730615Y8586705D01*
X-8781745Y8450316D01*
X-8788500Y8388134D01*
X-8788500Y7691866D01*
X-8781745Y7629684D01*
X-8730615Y7493295D01*
X-8643261Y7376739D01*
X-8526705Y7289385D01*
X-8390316Y7238255D01*
X-8328134Y7231500D01*
X-7231866Y7231500D01*
X-7169684Y7238255D01*
X-7033295Y7289385D01*
X-6916739Y7376739D01*
X-6858330Y7454674D01*
X-6831571Y7481038D01*
X-6796608Y7506439D01*
X-6786693Y7512952D01*
X-6755465Y7531420D01*
X-6755462Y7531422D01*
X-6748638Y7535458D01*
X-6739940Y7544156D01*
X-6736925Y7545802D01*
X-6736772Y7545921D01*
X-6736753Y7545896D01*
X-6677628Y7578182D01*
X-6606813Y7573117D01*
X-6549977Y7530570D01*
X-6538394Y7509401D01*
X-6538077Y7509575D01*
X-6533767Y7501703D01*
X-6530615Y7493295D01*
X-6443261Y7376739D01*
X-6326705Y7289385D01*
X-6190316Y7238255D01*
X-6128134Y7231500D01*
X-5031866Y7231500D01*
X-4969684Y7238255D01*
X-4833295Y7289385D01*
X-4716739Y7376739D01*
X-4629385Y7493295D01*
X-4626233Y7501703D01*
X-4621923Y7509575D01*
X-4620064Y7508557D01*
X-4584611Y7555759D01*
X-4518050Y7580462D01*
X-4448701Y7565259D01*
X-4408439Y7530334D01*
X-4383261Y7496739D01*
X-4266705Y7409385D01*
X-4130316Y7358255D01*
X-4068134Y7351500D01*
X-3071866Y7351500D01*
X-3064718Y7352277D01*
X-2994837Y7339751D01*
X-2962013Y7316109D01*
X-2143391Y6497487D01*
X-2109365Y6435175D01*
X-2107198Y6408134D01*
X-2106500Y6408134D01*
X-2106500Y5711866D01*
X-2099745Y5649684D01*
X-2048615Y5513295D01*
X-2043229Y5506109D01*
X-2038459Y5499744D01*
X-2013611Y5433238D01*
X-2028664Y5363856D01*
X-2038454Y5348620D01*
X-2073615Y5301705D01*
X-2124745Y5165316D01*
X-2131500Y5103134D01*
X-2131500Y4336866D01*
X-2124745Y4274684D01*
X-2121971Y4267285D01*
X-2118830Y4258906D01*
X-2113645Y4188099D01*
X-2147565Y4125729D01*
X-2203123Y4093592D01*
X-2208850Y4092838D01*
X-2216482Y4089677D01*
X-2216481Y4089677D01*
X-2349248Y4034684D01*
X-2349250Y4034683D01*
X-2356876Y4031524D01*
X-2363426Y4026498D01*
X-2477081Y3939286D01*
X-2483987Y3933987D01*
X-2489013Y3927437D01*
X-2489016Y3927434D01*
X-2525436Y3879970D01*
X-2581524Y3806875D01*
X-2642838Y3658850D01*
X-2658500Y3539885D01*
X-2658500Y3192980D01*
X-2678502Y3124859D01*
X-2732158Y3078366D01*
X-2802432Y3068262D01*
X-2867012Y3097756D01*
X-2873595Y3103885D01*
X-3109680Y3339970D01*
X-3116859Y3347859D01*
X-3120863Y3354168D01*
X-3168910Y3399287D01*
X-3171751Y3402041D01*
X-3188012Y3418303D01*
X-3188020Y3418310D01*
X-3190813Y3421103D01*
X-3193936Y3423526D01*
X-3194473Y3423999D01*
X-3202779Y3431092D01*
X-3212724Y3440431D01*
X-3215566Y3443186D01*
X-4609733Y4837353D01*
X-4643759Y4899665D01*
X-4638694Y4970480D01*
X-4612590Y5011101D01*
X-4611739Y5011739D01*
X-4585867Y5046259D01*
X-4543242Y5103134D01*
X-4524385Y5128295D01*
X-4473255Y5264684D01*
X-4466500Y5326866D01*
X-4466500Y6273134D01*
X-4473255Y6335316D01*
X-4524385Y6471705D01*
X-4611739Y6588261D01*
X-4728295Y6675615D01*
X-4864684Y6726745D01*
X-4926866Y6733500D01*
X-5873134Y6733500D01*
X-5935316Y6726745D01*
X-6071705Y6675615D01*
X-6188261Y6588261D01*
X-6275615Y6471705D01*
X-6326745Y6335316D01*
X-6333500Y6273134D01*
X-6333500Y5326866D01*
X-6326745Y5264684D01*
X-6275615Y5128295D01*
X-6270229Y5121109D01*
X-6265921Y5113240D01*
X-6268292Y5111942D01*
X-6248346Y5058565D01*
X-6263396Y4989182D01*
X-6313568Y4938949D01*
X-6374020Y4923500D01*
X-8993871Y4923500D01*
X-9004512Y4924002D01*
X-9011806Y4925632D01*
X-9019732Y4925383D01*
X-9019733Y4925383D01*
X-9077673Y4923562D01*
X-9081631Y4923500D01*
X-9108598Y4923500D01*
X-9112536Y4923003D01*
X-9113277Y4922956D01*
X-9124116Y4922103D01*
X-9166736Y4920763D01*
X-9174351Y4918550D01*
X-9174354Y4918550D01*
X-9185269Y4915379D01*
X-9204634Y4911368D01*
X-9215925Y4909942D01*
X-9215927Y4909941D01*
X-9223784Y4908949D01*
X-9231148Y4906033D01*
X-9231153Y4906032D01*
X-9263425Y4893254D01*
X-9274658Y4889408D01*
X-9307972Y4879730D01*
X-9307976Y4879728D01*
X-9315587Y4877517D01*
X-9332201Y4867691D01*
X-9349955Y4858994D01*
X-9367905Y4851887D01*
X-9374319Y4847227D01*
X-9402394Y4826829D01*
X-9412306Y4820318D01*
X-9449007Y4798613D01*
X-9462651Y4784969D01*
X-9477685Y4772128D01*
X-9493308Y4760777D01*
X-9498361Y4754669D01*
X-9520487Y4727923D01*
X-9528477Y4719143D01*
X-9679970Y4567650D01*
X-9687859Y4560471D01*
X-9694168Y4556467D01*
X-9699593Y4550690D01*
X-9739286Y4508421D01*
X-9742041Y4505579D01*
X-9761103Y4486517D01*
X-9763529Y4483390D01*
X-9763951Y4482911D01*
X-9771090Y4474554D01*
X-9789864Y4454561D01*
X-9800277Y4443472D01*
X-9809578Y4426554D01*
X-9820429Y4410035D01*
X-9832263Y4394779D01*
X-9835410Y4387506D01*
X-9835411Y4387505D01*
X-9849197Y4355647D01*
X-9854418Y4344990D01*
X-9860751Y4333469D01*
X-9874951Y4307639D01*
X-9876921Y4299964D01*
X-9879750Y4288946D01*
X-9886154Y4270243D01*
X-9893823Y4252521D01*
X-9895063Y4244694D01*
X-9895063Y4244693D01*
X-9900492Y4210415D01*
X-9902900Y4198791D01*
X-9911528Y4165188D01*
X-9911529Y4165179D01*
X-9913500Y4157503D01*
X-9913500Y4138202D01*
X-9915051Y4118492D01*
X-9918071Y4099424D01*
X-9917325Y4091533D01*
X-9914059Y4056983D01*
X-9913500Y4045125D01*
X-9913500Y2176129D01*
X-9914002Y2165488D01*
X-9915632Y2158194D01*
X-9915383Y2150268D01*
X-9915383Y2150267D01*
X-9913562Y2092327D01*
X-9913500Y2088369D01*
X-9913500Y2061402D01*
X-9913003Y2057464D01*
X-9912956Y2056723D01*
X-9912103Y2045884D01*
X-9910763Y2003264D01*
X-9908550Y1995649D01*
X-9908550Y1995646D01*
X-9905379Y1984731D01*
X-9901368Y1965366D01*
X-9898949Y1946216D01*
X-9896033Y1938852D01*
X-9896032Y1938847D01*
X-9883254Y1906575D01*
X-9879408Y1895342D01*
X-9869730Y1862028D01*
X-9869728Y1862024D01*
X-9867517Y1854413D01*
X-9863482Y1847591D01*
X-9863482Y1847590D01*
X-9857693Y1837802D01*
X-9848994Y1820045D01*
X-9841887Y1802095D01*
X-9818547Y1769971D01*
X-9816829Y1767606D01*
X-9810318Y1757694D01*
X-9788613Y1720993D01*
X-9774969Y1707349D01*
X-9762128Y1692315D01*
X-9750777Y1676692D01*
X-9744669Y1671639D01*
X-9717923Y1649513D01*
X-9709143Y1641523D01*
X-9537650Y1470030D01*
X-9530471Y1462141D01*
X-9526467Y1455832D01*
X-9520690Y1450407D01*
X-9478421Y1410714D01*
X-9475579Y1407959D01*
X-9456517Y1388897D01*
X-9453385Y1386467D01*
X-9452891Y1386032D01*
X-9444553Y1378909D01*
X-9413472Y1349723D01*
X-9406527Y1345905D01*
X-9406523Y1345902D01*
X-9396556Y1340423D01*
X-9380029Y1329567D01*
X-9364779Y1317738D01*
X-9326119Y1301008D01*
X-9325652Y1300806D01*
X-9314994Y1295584D01*
X-9277639Y1275049D01*
X-9269962Y1273078D01*
X-9269957Y1273076D01*
X-9258948Y1270250D01*
X-9240239Y1263845D01*
X-9222522Y1256178D01*
X-9214695Y1254938D01*
X-9214694Y1254938D01*
X-9205551Y1253490D01*
X-9141398Y1223077D01*
X-9103871Y1162809D01*
X-9099999Y1142650D01*
X-9095703Y1103109D01*
X-9108230Y1033227D01*
X-9156550Y981210D01*
X-9220966Y963500D01*
X-11612277Y963500D01*
X-11622918Y964002D01*
X-11630212Y965632D01*
X-11638138Y965383D01*
X-11638139Y965383D01*
X-11696079Y963562D01*
X-11700037Y963500D01*
X-11727004Y963500D01*
X-11730942Y963003D01*
X-11731683Y962956D01*
X-11742522Y962103D01*
X-11785142Y960763D01*
X-11792757Y958550D01*
X-11792760Y958550D01*
X-11803675Y955379D01*
X-11823040Y951368D01*
X-11834324Y949943D01*
X-11834327Y949942D01*
X-11842190Y948949D01*
X-11881827Y933255D01*
X-11893059Y929409D01*
X-11926379Y919729D01*
X-11926381Y919728D01*
X-11933992Y917517D01*
X-11950610Y907689D01*
X-11968352Y898997D01*
X-11986311Y891887D01*
X-11992726Y887226D01*
X-11992728Y887225D01*
X-12020808Y866824D01*
X-12030732Y860306D01*
X-12067413Y838613D01*
X-12081057Y824969D01*
X-12096091Y812128D01*
X-12111714Y800777D01*
X-12116767Y794669D01*
X-12138893Y767923D01*
X-12146883Y759143D01*
X-12689970Y216056D01*
X-12697859Y208877D01*
X-12704168Y204873D01*
X-12709593Y199096D01*
X-12749286Y156827D01*
X-12752041Y153985D01*
X-12771103Y134923D01*
X-12773529Y131796D01*
X-12773951Y131317D01*
X-12781090Y122960D01*
X-12799864Y102967D01*
X-12810277Y91878D01*
X-12819578Y74960D01*
X-12830429Y58441D01*
X-12842263Y43185D01*
X-12845410Y35912D01*
X-12845411Y35911D01*
X-12859197Y4053D01*
X-12864418Y-6604D01*
X-12880733Y-36283D01*
X-12884951Y-43955D01*
X-12886921Y-51630D01*
X-12889750Y-62648D01*
X-12896154Y-81351D01*
X-12903823Y-99073D01*
X-12905063Y-106900D01*
X-12905063Y-106901D01*
X-12910492Y-141179D01*
X-12912900Y-152803D01*
X-12921528Y-186406D01*
X-12921529Y-186415D01*
X-12923500Y-194091D01*
X-12923500Y-213392D01*
X-12925051Y-233102D01*
X-12928071Y-252170D01*
X-12927325Y-260061D01*
X-12924059Y-294611D01*
X-12923500Y-306469D01*
X-12923500Y-7938871D01*
X-12924002Y-7949512D01*
X-12925632Y-7956806D01*
X-12925383Y-7964732D01*
X-12925383Y-7964733D01*
X-12923562Y-8022673D01*
X-12923500Y-8026631D01*
X-12923500Y-8053598D01*
X-12923003Y-8057536D01*
X-12922956Y-8058277D01*
X-12922103Y-8069116D01*
X-12920763Y-8111736D01*
X-12918550Y-8119351D01*
X-12918550Y-8119354D01*
X-12915379Y-8130269D01*
X-12911368Y-8149634D01*
X-12908949Y-8168784D01*
X-12906033Y-8176148D01*
X-12906032Y-8176153D01*
X-12893254Y-8208425D01*
X-12889408Y-8219658D01*
X-12879730Y-8252972D01*
X-12879728Y-8252976D01*
X-12877517Y-8260587D01*
X-12873482Y-8267409D01*
X-12873482Y-8267410D01*
X-12867693Y-8277198D01*
X-12858994Y-8294955D01*
X-12851887Y-8312905D01*
X-12834793Y-8336432D01*
X-12826829Y-8347394D01*
X-12820318Y-8357306D01*
X-12798613Y-8394007D01*
X-12784969Y-8407651D01*
X-12772128Y-8422685D01*
X-12765438Y-8431893D01*
X-12760777Y-8438308D01*
X-12754669Y-8443361D01*
X-12727923Y-8465487D01*
X-12719143Y-8473477D01*
X-11575634Y-9616986D01*
X-11541608Y-9679298D01*
X-11538729Y-9706081D01*
X-11538729Y-10550000D01*
X-11537330Y-10569557D01*
X-11536022Y-10587842D01*
X-11533500Y-10623111D01*
X-11492304Y-10763411D01*
X-11487433Y-10770990D01*
X-11418122Y-10878841D01*
X-11418120Y-10878844D01*
X-11413250Y-10886421D01*
X-11406440Y-10892322D01*
X-11309555Y-10976274D01*
X-11309552Y-10976276D01*
X-11302743Y-10982176D01*
X-11169734Y-11042919D01*
X-11025000Y-11063729D01*
X-10025000Y-11063729D01*
X-10023036Y-11063605D01*
X-10023032Y-11063605D01*
X-9966920Y-11060066D01*
X-9966916Y-11060065D01*
X-9960443Y-11059657D01*
X-9914768Y-11047075D01*
X-9863376Y-11043833D01*
X-9750935Y-11060000D01*
X-9725000Y-11063729D01*
X-9725207Y-11065167D01*
X-9664575Y-11087793D01*
X-9623691Y-11140431D01*
X-9606524Y-11181876D01*
X-9601497Y-11188427D01*
X-9601496Y-11188429D01*
X-9541150Y-11267072D01*
X-9533477Y-11277072D01*
X-9533474Y-11277075D01*
X-9526399Y-11286295D01*
X-9500797Y-11352512D01*
X-9515060Y-11422062D01*
X-9564659Y-11472859D01*
X-9626360Y-11489000D01*
X-12950633Y-11489000D01*
X-12970018Y-11487500D01*
X-12984852Y-11485190D01*
X-12984855Y-11485190D01*
X-12993724Y-11483809D01*
X-13002626Y-11484973D01*
X-13002750Y-11484989D01*
X-13033192Y-11485260D01*
X-13053870Y-11482930D01*
X-13095264Y-11478266D01*
X-13122771Y-11471987D01*
X-13199853Y-11445015D01*
X-13225274Y-11432773D01*
X-13294426Y-11389322D01*
X-13316485Y-11371730D01*
X-13374230Y-11313985D01*
X-13391822Y-11291926D01*
X-13435273Y-11222774D01*
X-13447515Y-11197353D01*
X-13474487Y-11120272D01*
X-13480766Y-11092766D01*
X-13484110Y-11063087D01*
X-13486830Y-11038947D01*
X-13487112Y-11014140D01*
X-13486424Y-11010052D01*
X-13486271Y-10997500D01*
X-13490227Y-10969876D01*
X-13491500Y-10952014D01*
X-13491500Y7366866D01*
X-13063500Y7366866D01*
X-13056745Y7304684D01*
X-13005615Y7168295D01*
X-12918261Y7051739D01*
X-12801705Y6964385D01*
X-12800071Y6963773D01*
X-12752496Y6916091D01*
X-12737482Y6846700D01*
X-12740142Y6830414D01*
X-12741282Y6827491D01*
X-12742411Y6818915D01*
X-12762099Y6669367D01*
X-12763665Y6657474D01*
X-12744847Y6487025D01*
X-12742238Y6479894D01*
X-12742237Y6479892D01*
X-12736164Y6463297D01*
X-12685915Y6325985D01*
X-12681678Y6319679D01*
X-12681676Y6319676D01*
X-12648104Y6269717D01*
X-12590270Y6183651D01*
X-12463435Y6068240D01*
X-12312732Y5986415D01*
X-12146861Y5942899D01*
X-12059414Y5941526D01*
X-11982997Y5940325D01*
X-11982994Y5940325D01*
X-11975398Y5940206D01*
X-11967994Y5941902D01*
X-11967992Y5941902D01*
X-11905154Y5956294D01*
X-11808241Y5978490D01*
X-11655042Y6055541D01*
X-11649271Y6060470D01*
X-11649268Y6060472D01*
X-11530422Y6161977D01*
X-11524645Y6166911D01*
X-11424576Y6306170D01*
X-11360615Y6465280D01*
X-11346180Y6566705D01*
X-11337034Y6630969D01*
X-11337034Y6630973D01*
X-11336453Y6635053D01*
X-11336296Y6650000D01*
X-11345583Y6726745D01*
X-11355985Y6812701D01*
X-11355986Y6812704D01*
X-11356898Y6820242D01*
X-11359637Y6827491D01*
X-11393447Y6916969D01*
X-11398815Y6987762D01*
X-11365650Y7048808D01*
X-11361739Y7051739D01*
X-11274385Y7168295D01*
X-11223255Y7304684D01*
X-11216500Y7366866D01*
X-11216500Y8093134D01*
X-11223255Y8155316D01*
X-11274385Y8291705D01*
X-11361739Y8408261D01*
X-11478295Y8495615D01*
X-11614684Y8546745D01*
X-11676866Y8553500D01*
X-12603134Y8553500D01*
X-12665316Y8546745D01*
X-12801705Y8495615D01*
X-12918261Y8408261D01*
X-13005615Y8291705D01*
X-13056745Y8155316D01*
X-13063500Y8093134D01*
X-13063500Y7366866D01*
X-13491500Y7366866D01*
X-13491500Y10949250D01*
X-13489754Y10970155D01*
X-13487230Y10985156D01*
X-13487230Y10985159D01*
X-13486424Y10989948D01*
X-13486271Y11002500D01*
X-13486960Y11007312D01*
X-13487277Y11012173D01*
X-13486992Y11012192D01*
X-13487393Y11038951D01*
X-13480766Y11097764D01*
X-13474487Y11125271D01*
X-13447515Y11202353D01*
X-13435273Y11227774D01*
X-13391822Y11296926D01*
X-13374230Y11318985D01*
X-13316485Y11376730D01*
X-13294426Y11394322D01*
X-13225274Y11437773D01*
X-13199853Y11450015D01*
X-13122772Y11476987D01*
X-13095264Y11483266D01*
X-13039774Y11489518D01*
X-13024132Y11489423D01*
X-13024121Y11490300D01*
X-13015149Y11490190D01*
X-13006276Y11488809D01*
X-12997374Y11489973D01*
X-12997372Y11489973D01*
X-12982049Y11491977D01*
X-12974714Y11492936D01*
X-12958379Y11494000D01*
X-910329Y11494000D01*
X-842208Y11473998D01*
G37*
%TD.AperFunction*%
%TA.AperFunction,Conductor*%
G36*
X5452012Y-2830336D02*
G01*
X5487826Y-2882259D01*
X5514085Y-2954015D01*
X5609730Y-3096349D01*
X5736565Y-3211760D01*
X5887268Y-3293585D01*
X6053139Y-3337101D01*
X6140586Y-3338474D01*
X6217003Y-3339675D01*
X6217006Y-3339675D01*
X6224602Y-3339794D01*
X6232006Y-3338098D01*
X6232008Y-3338098D01*
X6311525Y-3319886D01*
X6391759Y-3301510D01*
X6430679Y-3281935D01*
X6487294Y-3268500D01*
X7070662Y-3268500D01*
X7114891Y-3276518D01*
X7174789Y-3298973D01*
X7174791Y-3298973D01*
X7182184Y-3301745D01*
X7190032Y-3302598D01*
X7190034Y-3302598D01*
X7240969Y-3308131D01*
X7244366Y-3308500D01*
X8640634Y-3308500D01*
X8644031Y-3308131D01*
X8694966Y-3302598D01*
X8694968Y-3302598D01*
X8702816Y-3301745D01*
X8710209Y-3298973D01*
X8710211Y-3298973D01*
X8796784Y-3266518D01*
X8841013Y-3258500D01*
X11885500Y-3258500D01*
X11953621Y-3278502D01*
X12000114Y-3332158D01*
X12011500Y-3384500D01*
X12011500Y-10295500D01*
X11991498Y-10363621D01*
X11937842Y-10410114D01*
X11885500Y-10421500D01*
X11809729Y-10421500D01*
X11741608Y-10401498D01*
X11695115Y-10347842D01*
X11683729Y-10295500D01*
X11683729Y-8850000D01*
X11678500Y-8776889D01*
X11637304Y-8636589D01*
X11591786Y-8565762D01*
X11563122Y-8521159D01*
X11563120Y-8521156D01*
X11558250Y-8513579D01*
X11551440Y-8507678D01*
X11454555Y-8423726D01*
X11454552Y-8423724D01*
X11447743Y-8417824D01*
X11343430Y-8370186D01*
X11289775Y-8323694D01*
X11270851Y-8272018D01*
X11270337Y-8268109D01*
X11262838Y-8211150D01*
X11248342Y-8176153D01*
X11204684Y-8070753D01*
X11204683Y-8070751D01*
X11201524Y-8063125D01*
X11174374Y-8027743D01*
X11128477Y-7967928D01*
X11128474Y-7967925D01*
X11119942Y-7956806D01*
X11109016Y-7942566D01*
X11109013Y-7942563D01*
X11103987Y-7936013D01*
X11086940Y-7922932D01*
X11078621Y-7916548D01*
X11066230Y-7905681D01*
X10874315Y-7713766D01*
X10863448Y-7701375D01*
X10849013Y-7682563D01*
X10843987Y-7676013D01*
X10812075Y-7651526D01*
X10812072Y-7651523D01*
X10723429Y-7583504D01*
X10723427Y-7583503D01*
X10716876Y-7578476D01*
X10568851Y-7517162D01*
X10560664Y-7516084D01*
X10560663Y-7516084D01*
X10549458Y-7514609D01*
X10518262Y-7510502D01*
X10449885Y-7501500D01*
X10449882Y-7501500D01*
X10449874Y-7501499D01*
X10418189Y-7497328D01*
X10410000Y-7496250D01*
X10378307Y-7500422D01*
X10361864Y-7501500D01*
X8146232Y-7501500D01*
X8087276Y-7486856D01*
X8005769Y-7443700D01*
X7945737Y-7428621D01*
X7846822Y-7403775D01*
X7846818Y-7403775D01*
X7839451Y-7401924D01*
X7831852Y-7401884D01*
X7831850Y-7401884D01*
X7760394Y-7401510D01*
X7667969Y-7401026D01*
X7660589Y-7402798D01*
X7660587Y-7402798D01*
X7508602Y-7439286D01*
X7508598Y-7439287D01*
X7501223Y-7441058D01*
X7412493Y-7486855D01*
X7411309Y-7487466D01*
X7353519Y-7501500D01*
X7224729Y-7501500D01*
X7156608Y-7481498D01*
X7110115Y-7427842D01*
X7098729Y-7375500D01*
X7098729Y-6020000D01*
X7093500Y-5946889D01*
X7062501Y-5841315D01*
X7054843Y-5815235D01*
X7054842Y-5815233D01*
X7052304Y-5806589D01*
X7020070Y-5756432D01*
X6978122Y-5691159D01*
X6978120Y-5691156D01*
X6973250Y-5683579D01*
X6921757Y-5638960D01*
X6869555Y-5593726D01*
X6869552Y-5593724D01*
X6862743Y-5587824D01*
X6853249Y-5583488D01*
X6779920Y-5550000D01*
X6729734Y-5527081D01*
X6585000Y-5506271D01*
X5435000Y-5506271D01*
X5379544Y-5510706D01*
X5310046Y-5496198D01*
X5259424Y-5446420D01*
X5243500Y-5385107D01*
X5243500Y-2925560D01*
X5263502Y-2857439D01*
X5317158Y-2810946D01*
X5387432Y-2800842D01*
X5452012Y-2830336D01*
G37*
%TD.AperFunction*%
%TA.AperFunction,Conductor*%
G36*
X-3503189Y191498D02*
G01*
X-3482215Y174595D01*
X-1950405Y-1357215D01*
X-1916379Y-1419527D01*
X-1913500Y-1446310D01*
X-1913500Y-1490501D01*
X-1933502Y-1558622D01*
X-1987158Y-1605115D01*
X-2039499Y-1616501D01*
X-2089884Y-1616501D01*
X-2093969Y-1617039D01*
X-2093973Y-1617039D01*
X-2200663Y-1631084D01*
X-2200665Y-1631084D01*
X-2208850Y-1632162D01*
X-2261096Y-1653803D01*
X-2349248Y-1690316D01*
X-2349250Y-1690317D01*
X-2356876Y-1693476D01*
X-2483987Y-1791013D01*
X-2489013Y-1797563D01*
X-2489016Y-1797566D01*
X-2515257Y-1831764D01*
X-2581524Y-1918125D01*
X-2642838Y-2066150D01*
X-2658500Y-2185115D01*
X-2658499Y-3539884D01*
X-2642838Y-3658850D01*
X-2618528Y-3717541D01*
X-2610939Y-3788128D01*
X-2634974Y-3842459D01*
X-2681524Y-3903124D01*
X-2734709Y-4031524D01*
X-2742838Y-4051150D01*
X-2745507Y-4050044D01*
X-2775161Y-4098717D01*
X-2839015Y-4129751D01*
X-2859935Y-4131500D01*
X-3343134Y-4131500D01*
X-3405316Y-4138255D01*
X-3541705Y-4189385D01*
X-3623995Y-4251058D01*
X-3657710Y-4276326D01*
X-3724216Y-4301174D01*
X-3733275Y-4301500D01*
X-3792655Y-4301500D01*
X-3851614Y-4286854D01*
X-3907518Y-4257254D01*
X-3907521Y-4257253D01*
X-3914231Y-4253700D01*
X-3945240Y-4245911D01*
X-4073178Y-4213775D01*
X-4073182Y-4213775D01*
X-4080549Y-4211924D01*
X-4088148Y-4211884D01*
X-4088150Y-4211884D01*
X-4159606Y-4211510D01*
X-4252031Y-4211026D01*
X-4259411Y-4212798D01*
X-4259413Y-4212798D01*
X-4411398Y-4249286D01*
X-4411402Y-4249287D01*
X-4418777Y-4251058D01*
X-4571161Y-4329709D01*
X-4700385Y-4442439D01*
X-4798990Y-4582739D01*
X-4861282Y-4742509D01*
X-4862274Y-4750042D01*
X-4862274Y-4750043D01*
X-4881240Y-4894109D01*
X-4883665Y-4912526D01*
X-4864847Y-5082975D01*
X-4862238Y-5090106D01*
X-4862237Y-5090108D01*
X-4842270Y-5144669D01*
X-4805915Y-5244015D01*
X-4801678Y-5250321D01*
X-4801676Y-5250324D01*
X-4767375Y-5301368D01*
X-4710270Y-5386349D01*
X-4583435Y-5501760D01*
X-4550688Y-5519540D01*
X-4500367Y-5569622D01*
X-4485110Y-5638960D01*
X-4509762Y-5705539D01*
X-4566496Y-5748221D01*
X-4610810Y-5756271D01*
X-4895000Y-5756271D01*
X-4897513Y-5756472D01*
X-4897514Y-5756472D01*
X-4969647Y-5762240D01*
X-4969650Y-5762241D01*
X-4976645Y-5762800D01*
X-4983343Y-5764890D01*
X-4983345Y-5764890D01*
X-5003981Y-5771328D01*
X-5059438Y-5775762D01*
X-5135055Y-5764890D01*
X-5195000Y-5756271D01*
X-6195000Y-5756271D01*
X-6203976Y-5756913D01*
X-6261373Y-5761018D01*
X-6261374Y-5761018D01*
X-6268111Y-5761500D01*
X-6347618Y-5784845D01*
X-6399765Y-5800157D01*
X-6399767Y-5800158D01*
X-6408411Y-5802696D01*
X-6415992Y-5807568D01*
X-6437378Y-5821312D01*
X-6505499Y-5841315D01*
X-6573620Y-5821314D01*
X-6620113Y-5767658D01*
X-6631500Y-5715315D01*
X-6631500Y-5598136D01*
X-6630422Y-5581690D01*
X-6627328Y-5558188D01*
X-6626250Y-5550000D01*
X-6631500Y-5510120D01*
X-6631500Y-5510115D01*
X-6633399Y-5495690D01*
X-6645109Y-5406741D01*
X-6645110Y-5406739D01*
X-6647162Y-5391150D01*
X-6647162Y-5391149D01*
X-6708476Y-5243124D01*
X-6716810Y-5232262D01*
X-6781517Y-5147936D01*
X-6781523Y-5147928D01*
X-6781526Y-5147925D01*
X-6806013Y-5116013D01*
X-6814966Y-5109143D01*
X-6831379Y-5096548D01*
X-6843770Y-5085681D01*
X-7345746Y-4583705D01*
X-7356613Y-4571314D01*
X-7371048Y-4552502D01*
X-7376074Y-4545952D01*
X-7407986Y-4521465D01*
X-7407989Y-4521462D01*
X-7503185Y-4448415D01*
X-7651210Y-4387101D01*
X-7659397Y-4386023D01*
X-7659398Y-4386023D01*
X-7670603Y-4384548D01*
X-7701799Y-4380441D01*
X-7770176Y-4371439D01*
X-7770179Y-4371439D01*
X-7770187Y-4371438D01*
X-7801872Y-4367267D01*
X-7810061Y-4366189D01*
X-7841754Y-4370361D01*
X-7858197Y-4371439D01*
X-8165822Y-4371439D01*
X-8233943Y-4351437D01*
X-8254917Y-4334534D01*
X-8444595Y-4144856D01*
X-8478621Y-4082544D01*
X-8481500Y-4055761D01*
X-8481500Y-3434500D01*
X-8461498Y-3366379D01*
X-8407842Y-3319886D01*
X-8355500Y-3308500D01*
X-7244366Y-3308500D01*
X-7182184Y-3301745D01*
X-7101554Y-3271518D01*
X-7057324Y-3263500D01*
X-6105395Y-3263500D01*
X-6045273Y-3278769D01*
X-5962732Y-3323585D01*
X-5796861Y-3367101D01*
X-5709414Y-3368474D01*
X-5632997Y-3369675D01*
X-5632994Y-3369675D01*
X-5625398Y-3369794D01*
X-5617994Y-3368098D01*
X-5617992Y-3368098D01*
X-5555154Y-3353706D01*
X-5458241Y-3331510D01*
X-5305042Y-3254459D01*
X-5299271Y-3249530D01*
X-5299268Y-3249528D01*
X-5180422Y-3148023D01*
X-5174645Y-3143089D01*
X-5080501Y-3012075D01*
X-5079008Y-3009998D01*
X-5079007Y-3009997D01*
X-5074576Y-3003830D01*
X-5010615Y-2844720D01*
X-4996670Y-2746736D01*
X-4987034Y-2679031D01*
X-4987034Y-2679027D01*
X-4986453Y-2674947D01*
X-4986296Y-2660000D01*
X-5006898Y-2489758D01*
X-5015614Y-2466690D01*
X-5064829Y-2336447D01*
X-5067513Y-2329344D01*
X-5117741Y-2256262D01*
X-5139841Y-2188793D01*
X-5121956Y-2120086D01*
X-5116223Y-2111368D01*
X-5089613Y-2074338D01*
X-5024576Y-1983830D01*
X-4960615Y-1824720D01*
X-4953955Y-1777926D01*
X-4937034Y-1659031D01*
X-4937034Y-1659027D01*
X-4936453Y-1654947D01*
X-4936296Y-1640000D01*
X-4944585Y-1571502D01*
X-4955985Y-1477299D01*
X-4955986Y-1477296D01*
X-4956898Y-1469758D01*
X-4975878Y-1419527D01*
X-5014829Y-1316447D01*
X-5017513Y-1309344D01*
X-5055266Y-1254413D01*
X-5066979Y-1237370D01*
X-5089079Y-1169900D01*
X-5071193Y-1101194D01*
X-5065461Y-1092476D01*
X-4999008Y-999998D01*
X-4999007Y-999997D01*
X-4994576Y-993830D01*
X-4930615Y-834720D01*
X-4906453Y-664947D01*
X-4906296Y-650000D01*
X-4926898Y-479758D01*
X-4987513Y-319344D01*
X-5000448Y-300524D01*
X-5069824Y-199580D01*
X-5091924Y-132110D01*
X-5074038Y-63404D01*
X-5068306Y-54686D01*
X-5029008Y2D01*
X-5029007Y3D01*
X-5024576Y6170D01*
X-4973794Y132496D01*
X-4929827Y188240D01*
X-4856886Y211500D01*
X-3571310Y211500D01*
X-3503189Y191498D01*
G37*
%TD.AperFunction*%
%TA.AperFunction,Conductor*%
G36*
X-10537455Y-783502D02*
G01*
X-10490962Y-837158D01*
X-10480858Y-907432D01*
X-10505613Y-966202D01*
X-10541524Y-1013002D01*
X-10562445Y-1063510D01*
X-10587295Y-1123504D01*
X-10602174Y-1159424D01*
X-10602838Y-1161028D01*
X-10618500Y-1279993D01*
X-10618500Y-1279998D01*
X-10623750Y-1319878D01*
X-10622672Y-1328066D01*
X-10619578Y-1351568D01*
X-10618500Y-1368014D01*
X-10618500Y-2561864D01*
X-10619578Y-2578307D01*
X-10623750Y-2610000D01*
X-10618500Y-2649880D01*
X-10618500Y-2649885D01*
X-10605749Y-2746736D01*
X-10602838Y-2768851D01*
X-10541524Y-2916876D01*
X-10536497Y-2923427D01*
X-10536496Y-2923429D01*
X-10468480Y-3012069D01*
X-10468474Y-3012075D01*
X-10443987Y-3043987D01*
X-10437432Y-3049017D01*
X-10418621Y-3063452D01*
X-10406230Y-3074319D01*
X-10045405Y-3435144D01*
X-10011379Y-3497456D01*
X-10008500Y-3524239D01*
X-10008500Y-4411986D01*
X-10009578Y-4428429D01*
X-10013750Y-4460122D01*
X-10008500Y-4500002D01*
X-10008500Y-4500007D01*
X-9995728Y-4597020D01*
X-9992838Y-4618973D01*
X-9931524Y-4766998D01*
X-9926497Y-4773549D01*
X-9926496Y-4773551D01*
X-9858480Y-4862191D01*
X-9858474Y-4862197D01*
X-9833987Y-4894109D01*
X-9827432Y-4899139D01*
X-9808621Y-4913574D01*
X-9796230Y-4924441D01*
X-9199495Y-5521176D01*
X-9165469Y-5583488D01*
X-9170534Y-5654303D01*
X-9213081Y-5711139D01*
X-9279601Y-5735950D01*
X-9288590Y-5736271D01*
X-9725000Y-5736271D01*
X-9727513Y-5736472D01*
X-9727514Y-5736472D01*
X-9799647Y-5742240D01*
X-9799650Y-5742241D01*
X-9806645Y-5742800D01*
X-9813343Y-5744890D01*
X-9813345Y-5744890D01*
X-9833981Y-5751328D01*
X-9889438Y-5755762D01*
X-9965055Y-5744890D01*
X-10025000Y-5736271D01*
X-11025000Y-5736271D01*
X-11033976Y-5736913D01*
X-11091373Y-5741018D01*
X-11091374Y-5741018D01*
X-11098111Y-5741500D01*
X-11225003Y-5778759D01*
X-11295998Y-5778759D01*
X-11355724Y-5740376D01*
X-11385217Y-5675795D01*
X-11386500Y-5657863D01*
X-11386500Y-889500D01*
X-11366498Y-821379D01*
X-11312842Y-774886D01*
X-11260500Y-763500D01*
X-10605576Y-763500D01*
X-10537455Y-783502D01*
G37*
%TD.AperFunction*%
%TA.AperFunction,Conductor*%
G36*
X12970018Y11492500D02*
G01*
X12984852Y11490190D01*
X12984855Y11490190D01*
X12993724Y11488809D01*
X13002626Y11489973D01*
X13002750Y11489989D01*
X13033192Y11490260D01*
X13040621Y11489423D01*
X13095264Y11483266D01*
X13122771Y11476987D01*
X13199853Y11450015D01*
X13225274Y11437773D01*
X13294426Y11394322D01*
X13316485Y11376730D01*
X13374230Y11318985D01*
X13391822Y11296926D01*
X13435273Y11227774D01*
X13447515Y11202353D01*
X13474487Y11125272D01*
X13480766Y11097764D01*
X13487018Y11042274D01*
X13486923Y11026632D01*
X13487800Y11026621D01*
X13487690Y11017649D01*
X13486309Y11008776D01*
X13487473Y10999874D01*
X13487473Y10999872D01*
X13490436Y10977217D01*
X13491500Y10960879D01*
X13491500Y-1516761D01*
X13471498Y-1584882D01*
X13417842Y-1631375D01*
X13347568Y-1641479D01*
X13282988Y-1611985D01*
X13276405Y-1605856D01*
X12924315Y-1253766D01*
X12913448Y-1241375D01*
X12899013Y-1222563D01*
X12893987Y-1216013D01*
X12862075Y-1191526D01*
X12862072Y-1191523D01*
X12824637Y-1162798D01*
X12773429Y-1123504D01*
X12773427Y-1123503D01*
X12766876Y-1118476D01*
X12618851Y-1057162D01*
X12610664Y-1056084D01*
X12610663Y-1056084D01*
X12594399Y-1053943D01*
X12499885Y-1041500D01*
X12499876Y-1041499D01*
X12468190Y-1037328D01*
X12468189Y-1037328D01*
X12460000Y-1036250D01*
X12428307Y-1040422D01*
X12411864Y-1041500D01*
X9223791Y-1041500D01*
X9155670Y-1021498D01*
X9109177Y-967842D01*
X9098528Y-929109D01*
X9096844Y-913609D01*
X9096844Y-886393D01*
X9100631Y-851533D01*
X9100631Y-851529D01*
X9101000Y-848134D01*
X9101000Y-451866D01*
X9096844Y-413606D01*
X9096844Y-386393D01*
X9100631Y-351533D01*
X9100631Y-351529D01*
X9101000Y-348134D01*
X9101000Y48134D01*
X9099881Y58440D01*
X9096844Y86393D01*
X9096844Y113607D01*
X9100631Y148467D01*
X9100631Y148471D01*
X9101000Y151866D01*
X9101000Y548134D01*
X9094245Y610316D01*
X9043115Y746705D01*
X9022332Y774436D01*
X8997485Y840943D01*
X9012539Y910325D01*
X9022332Y925564D01*
X9037729Y946109D01*
X9043115Y953295D01*
X9094245Y1089684D01*
X9097985Y1124109D01*
X9125228Y1189671D01*
X9183591Y1230097D01*
X9223248Y1236500D01*
X9673871Y1236500D01*
X9684512Y1235998D01*
X9691806Y1234368D01*
X9699732Y1234617D01*
X9699733Y1234617D01*
X9757673Y1236438D01*
X9761631Y1236500D01*
X9788598Y1236500D01*
X9792536Y1236997D01*
X9793277Y1237044D01*
X9804116Y1237897D01*
X9846736Y1239237D01*
X9854351Y1241450D01*
X9854354Y1241450D01*
X9865269Y1244621D01*
X9884634Y1248632D01*
X9895925Y1250058D01*
X9895927Y1250059D01*
X9903784Y1251051D01*
X9911148Y1253967D01*
X9911153Y1253968D01*
X9943425Y1266746D01*
X9954658Y1270592D01*
X9987972Y1280270D01*
X9987976Y1280272D01*
X9995587Y1282483D01*
X10012201Y1292309D01*
X10029955Y1301006D01*
X10047905Y1308113D01*
X10082397Y1333173D01*
X10092306Y1339682D01*
X10129007Y1361387D01*
X10142651Y1375031D01*
X10157685Y1387872D01*
X10166893Y1394562D01*
X10166894Y1394563D01*
X10173308Y1399223D01*
X10200487Y1432077D01*
X10208477Y1440857D01*
X10379970Y1612350D01*
X10387859Y1619529D01*
X10394168Y1623533D01*
X10439287Y1671580D01*
X10442041Y1674421D01*
X10461103Y1693483D01*
X10463533Y1696615D01*
X10463968Y1697109D01*
X10471091Y1705447D01*
X10500277Y1736528D01*
X10504095Y1743473D01*
X10504098Y1743477D01*
X10509577Y1753444D01*
X10520433Y1769971D01*
X10527402Y1778956D01*
X10532262Y1785221D01*
X10549195Y1824350D01*
X10554416Y1835007D01*
X10571131Y1865412D01*
X10571131Y1865413D01*
X10574951Y1872361D01*
X10576922Y1880038D01*
X10576924Y1880043D01*
X10579750Y1891052D01*
X10586156Y1909764D01*
X10589775Y1918125D01*
X10593822Y1927478D01*
X10600491Y1969587D01*
X10602899Y1981211D01*
X10611529Y2014820D01*
X10611529Y2014821D01*
X10613500Y2022497D01*
X10613500Y2041797D01*
X10615051Y2061508D01*
X10616831Y2072746D01*
X10616831Y2072748D01*
X10618071Y2080576D01*
X10614059Y2123017D01*
X10613500Y2134875D01*
X10613500Y2923871D01*
X10614002Y2934512D01*
X10615632Y2941806D01*
X10613562Y3007673D01*
X10613500Y3011631D01*
X10613500Y3038598D01*
X10613003Y3042536D01*
X10612956Y3043277D01*
X10612102Y3054124D01*
X10611012Y3088812D01*
X10610763Y3096736D01*
X10608550Y3104354D01*
X10605379Y3115269D01*
X10601368Y3134634D01*
X10599942Y3145925D01*
X10599941Y3145927D01*
X10598949Y3153784D01*
X10596033Y3161148D01*
X10596032Y3161153D01*
X10583254Y3193425D01*
X10579408Y3204658D01*
X10569730Y3237972D01*
X10569728Y3237976D01*
X10567517Y3245587D01*
X10557691Y3262201D01*
X10548992Y3279959D01*
X10541887Y3297905D01*
X10516827Y3332397D01*
X10510318Y3342306D01*
X10488613Y3379007D01*
X10474969Y3392651D01*
X10462128Y3407685D01*
X10455438Y3416893D01*
X10455437Y3416894D01*
X10450777Y3423308D01*
X10417923Y3450487D01*
X10409143Y3458477D01*
X9987650Y3879970D01*
X9980471Y3887859D01*
X9976467Y3894168D01*
X9928420Y3939287D01*
X9925579Y3942041D01*
X9906517Y3961103D01*
X9903390Y3963529D01*
X9902911Y3963951D01*
X9894554Y3971090D01*
X9869250Y3994851D01*
X9863472Y4000277D01*
X9846554Y4009578D01*
X9830034Y4020430D01*
X9821045Y4027403D01*
X9821043Y4027404D01*
X9814779Y4032263D01*
X9775643Y4049199D01*
X9764990Y4054418D01*
X9734585Y4071133D01*
X9734582Y4071134D01*
X9727639Y4074951D01*
X9708943Y4079751D01*
X9690243Y4086154D01*
X9672521Y4093823D01*
X9664694Y4095063D01*
X9664693Y4095063D01*
X9645106Y4098165D01*
X9630413Y4100492D01*
X9618791Y4102900D01*
X9585188Y4111528D01*
X9585179Y4111529D01*
X9577503Y4113500D01*
X9558202Y4113500D01*
X9538491Y4115051D01*
X9527253Y4116831D01*
X9519424Y4118071D01*
X9506307Y4116831D01*
X9476983Y4114059D01*
X9465125Y4113500D01*
X5199317Y4113500D01*
X5188676Y4114002D01*
X5181382Y4115632D01*
X5173456Y4115383D01*
X5173455Y4115383D01*
X5115516Y4113562D01*
X5111558Y4113500D01*
X5084590Y4113500D01*
X5080652Y4113003D01*
X5079911Y4112956D01*
X5069072Y4112103D01*
X5026453Y4110763D01*
X5018838Y4108550D01*
X5018835Y4108550D01*
X5007920Y4105379D01*
X4988556Y4101368D01*
X4969404Y4098949D01*
X4962036Y4096032D01*
X4962029Y4096030D01*
X4929763Y4083254D01*
X4918529Y4079408D01*
X4877602Y4067517D01*
X4860984Y4057689D01*
X4843242Y4048997D01*
X4825283Y4041887D01*
X4818868Y4037226D01*
X4818866Y4037225D01*
X4790786Y4016824D01*
X4780862Y4010306D01*
X4744181Y3988613D01*
X4730537Y3974969D01*
X4715503Y3962128D01*
X4710237Y3958302D01*
X4699880Y3950777D01*
X4694827Y3944669D01*
X4672701Y3917923D01*
X4664711Y3909143D01*
X2873595Y2118027D01*
X2811283Y2084001D01*
X2740468Y2089066D01*
X2683632Y2131613D01*
X2658821Y2198133D01*
X2658500Y2207122D01*
X2658499Y3535761D01*
X2658499Y3539884D01*
X2652987Y3581759D01*
X2643916Y3650663D01*
X2643916Y3650665D01*
X2642838Y3658850D01*
X2581524Y3806876D01*
X2496314Y3917923D01*
X2489014Y3927436D01*
X2489013Y3927437D01*
X2483987Y3933987D01*
X2477436Y3939014D01*
X2477434Y3939016D01*
X2404668Y3994851D01*
X2356875Y4031524D01*
X2208850Y4092838D01*
X2200662Y4093916D01*
X2093972Y4107962D01*
X2093971Y4107962D01*
X2089885Y4108500D01*
X1950017Y4108500D01*
X1810116Y4108499D01*
X1806031Y4107961D01*
X1806027Y4107961D01*
X1699337Y4093916D01*
X1699335Y4093916D01*
X1691150Y4092838D01*
X1673219Y4085411D01*
X1602630Y4077821D01*
X1576782Y4085410D01*
X1573339Y4086837D01*
X1566480Y4089678D01*
X1566477Y4089679D01*
X1558850Y4092838D01*
X1550662Y4093916D01*
X1443972Y4107962D01*
X1443971Y4107962D01*
X1439885Y4108500D01*
X1300017Y4108500D01*
X1160116Y4108499D01*
X1156031Y4107961D01*
X1156027Y4107961D01*
X1049337Y4093916D01*
X1049335Y4093916D01*
X1041150Y4092838D01*
X1023219Y4085411D01*
X952630Y4077821D01*
X926782Y4085410D01*
X923339Y4086837D01*
X916480Y4089678D01*
X916477Y4089679D01*
X908850Y4092838D01*
X900662Y4093916D01*
X793972Y4107962D01*
X793971Y4107962D01*
X789885Y4108500D01*
X785763Y4108500D01*
X510116Y4108499D01*
X510116Y4110473D01*
X448589Y4124239D01*
X420533Y4145372D01*
X-480354Y5046259D01*
X-514380Y5108571D01*
X-516522Y5121747D01*
X-520401Y5157460D01*
X-520402Y5157465D01*
X-521255Y5165316D01*
X-524027Y5172712D01*
X-524029Y5172718D01*
X-555352Y5256271D01*
X-560535Y5327078D01*
X-526614Y5389447D01*
X-464359Y5423576D01*
X-437370Y5426500D01*
X1636739Y5426500D01*
X1704860Y5406498D01*
X1712304Y5401326D01*
X1801108Y5334771D01*
X1808295Y5329385D01*
X1944684Y5278255D01*
X2006866Y5271500D01*
X2673134Y5271500D01*
X2735316Y5278255D01*
X2741534Y5280586D01*
X2798466Y5280586D01*
X2804684Y5278255D01*
X2866866Y5271500D01*
X3533134Y5271500D01*
X3595316Y5278255D01*
X3731705Y5329385D01*
X3848261Y5416739D01*
X3935615Y5533295D01*
X3986745Y5669684D01*
X3993500Y5731866D01*
X3993500Y6368134D01*
X3986745Y6430316D01*
X3935615Y6566705D01*
X3858674Y6669367D01*
X3833826Y6735873D01*
X3833500Y6744932D01*
X3833500Y6808355D01*
X3853502Y6876476D01*
X3898991Y6918875D01*
X3903300Y6921234D01*
X3911705Y6924385D01*
X4028261Y7011739D01*
X4115615Y7128295D01*
X4166745Y7264684D01*
X4173500Y7326866D01*
X4173500Y8373134D01*
X4166745Y8435316D01*
X4115615Y8571705D01*
X4028261Y8688261D01*
X3911705Y8775615D01*
X3775316Y8826745D01*
X3713134Y8833500D01*
X2666866Y8833500D01*
X2604684Y8826745D01*
X2597287Y8823972D01*
X2597283Y8823971D01*
X2579509Y8817308D01*
X2508702Y8812126D01*
X2446334Y8846049D01*
X2412206Y8908305D01*
X2409531Y8943203D01*
X2410547Y8959341D01*
X2413262Y9002500D01*
X2394233Y9304962D01*
X2337445Y9602654D01*
X2243794Y9890881D01*
X2114758Y10165098D01*
X1952370Y10420980D01*
X1947953Y10426320D01*
X1852088Y10542200D01*
X1759192Y10654492D01*
X1538271Y10861950D01*
X1293090Y11040084D01*
X1289107Y11042274D01*
X1030986Y11184178D01*
X1030985Y11184179D01*
X1027517Y11186085D01*
X1023848Y11187538D01*
X1023843Y11187540D01*
X863945Y11250848D01*
X807971Y11294523D01*
X784495Y11361526D01*
X800971Y11430584D01*
X852167Y11479773D01*
X910329Y11494000D01*
X12950633Y11494000D01*
X12970018Y11492500D01*
G37*
%TD.AperFunction*%
%TD*%
M02*
