%TF.GenerationSoftware,KiCad,Pcbnew,(6.0.7)*%
%TF.CreationDate,2025-07-27T15:57:52+08:00*%
%TF.ProjectId,Rotary_Encoder_AS5048A_V8,526f7461-7279-45f4-956e-636f6465725f,rev?*%
%TF.SameCoordinates,PXbebc200PY5f5e100*%
%TF.FileFunction,Legend,Bot*%
%TF.FilePolarity,Positive*%
%FSLAX46Y46*%
G04 Gerber Fmt 4.6, Leading zero omitted, Abs format (unit mm)*
G04 Created by KiCad (PCBNEW (6.0.7)) date 2025-07-27 15:57:52*
%MOMM*%
%LPD*%
G01*
G04 APERTURE LIST*
%ADD10C,0.150000*%
G04 APERTURE END LIST*
D10*
X3000000Y0D02*
G75*
G03*
X3000000Y0I-3000000J0D01*
G01*
X8140476Y-3752380D02*
X8330952Y-3752380D01*
X8426190Y-3800000D01*
X8473809Y-3847619D01*
X8569047Y-3990476D01*
X8616666Y-4180952D01*
X8616666Y-4561904D01*
X8569047Y-4657142D01*
X8521428Y-4704761D01*
X8426190Y-4752380D01*
X8235714Y-4752380D01*
X8140476Y-4704761D01*
X8092857Y-4657142D01*
X8045238Y-4561904D01*
X8045238Y-4323809D01*
X8092857Y-4228571D01*
X8140476Y-4180952D01*
X8235714Y-4133333D01*
X8426190Y-4133333D01*
X8521428Y-4180952D01*
X8569047Y-4228571D01*
X8616666Y-4323809D01*
X7616666Y-4752380D02*
X7616666Y-4085714D01*
X7616666Y-4180952D02*
X7569047Y-4133333D01*
X7473809Y-4085714D01*
X7330952Y-4085714D01*
X7235714Y-4133333D01*
X7188095Y-4228571D01*
X7188095Y-4752380D01*
X7188095Y-4228571D02*
X7140476Y-4133333D01*
X7045238Y-4085714D01*
X6902380Y-4085714D01*
X6807142Y-4133333D01*
X6759523Y-4228571D01*
X6759523Y-4752380D01*
X6283333Y-4752380D02*
X6283333Y-4085714D01*
X6283333Y-4180952D02*
X6235714Y-4133333D01*
X6140476Y-4085714D01*
X5997619Y-4085714D01*
X5902380Y-4133333D01*
X5854761Y-4228571D01*
X5854761Y-4752380D01*
X5854761Y-4228571D02*
X5807142Y-4133333D01*
X5711904Y-4085714D01*
X5569047Y-4085714D01*
X5473809Y-4133333D01*
X5426190Y-4228571D01*
X5426190Y-4752380D01*
X4188095Y-4752380D02*
X4188095Y-3752380D01*
X3950000Y-3752380D01*
X3807142Y-3800000D01*
X3711904Y-3895238D01*
X3664285Y-3990476D01*
X3616666Y-4180952D01*
X3616666Y-4323809D01*
X3664285Y-4514285D01*
X3711904Y-4609523D01*
X3807142Y-4704761D01*
X3950000Y-4752380D01*
X4188095Y-4752380D01*
X3188095Y-4752380D02*
X3188095Y-4085714D01*
X3188095Y-3752380D02*
X3235714Y-3800000D01*
X3188095Y-3847619D01*
X3140476Y-3800000D01*
X3188095Y-3752380D01*
X3188095Y-3847619D01*
X2283333Y-4752380D02*
X2283333Y-4228571D01*
X2330952Y-4133333D01*
X2426190Y-4085714D01*
X2616666Y-4085714D01*
X2711904Y-4133333D01*
X2283333Y-4704761D02*
X2378571Y-4752380D01*
X2616666Y-4752380D01*
X2711904Y-4704761D01*
X2759523Y-4609523D01*
X2759523Y-4514285D01*
X2711904Y-4419047D01*
X2616666Y-4371428D01*
X2378571Y-4371428D01*
X2283333Y-4323809D01*
X1807142Y-4752380D02*
X1807142Y-4085714D01*
X1807142Y-4180952D02*
X1759523Y-4133333D01*
X1664285Y-4085714D01*
X1521428Y-4085714D01*
X1426190Y-4133333D01*
X1378571Y-4228571D01*
X1378571Y-4752380D01*
X1378571Y-4228571D02*
X1330952Y-4133333D01*
X1235714Y-4085714D01*
X1092857Y-4085714D01*
X997619Y-4133333D01*
X950000Y-4228571D01*
X950000Y-4752380D01*
X92857Y-4704761D02*
X188095Y-4752380D01*
X378571Y-4752380D01*
X473809Y-4704761D01*
X521428Y-4609523D01*
X521428Y-4228571D01*
X473809Y-4133333D01*
X378571Y-4085714D01*
X188095Y-4085714D01*
X92857Y-4133333D01*
X45238Y-4228571D01*
X45238Y-4323809D01*
X521428Y-4419047D01*
X-240477Y-4085714D02*
X-621429Y-4085714D01*
X-383334Y-3752380D02*
X-383334Y-4609523D01*
X-430953Y-4704761D01*
X-526191Y-4752380D01*
X-621429Y-4752380D01*
X-954762Y-4752380D02*
X-954762Y-4085714D01*
X-954762Y-4276190D02*
X-1002381Y-4180952D01*
X-1050000Y-4133333D01*
X-1145239Y-4085714D01*
X-1240477Y-4085714D01*
X-1573810Y-4752380D02*
X-1573810Y-4085714D01*
X-1573810Y-3752380D02*
X-1526191Y-3800000D01*
X-1573810Y-3847619D01*
X-1621429Y-3800000D01*
X-1573810Y-3752380D01*
X-1573810Y-3847619D01*
X-2478572Y-4704761D02*
X-2383334Y-4752380D01*
X-2192858Y-4752380D01*
X-2097620Y-4704761D01*
X-2050000Y-4657142D01*
X-2002381Y-4561904D01*
X-2002381Y-4276190D01*
X-2050000Y-4180952D01*
X-2097620Y-4133333D01*
X-2192858Y-4085714D01*
X-2383334Y-4085714D01*
X-2478572Y-4133333D01*
X-3669048Y-4752380D02*
X-3669048Y-4085714D01*
X-3669048Y-4180952D02*
X-3716667Y-4133333D01*
X-3811905Y-4085714D01*
X-3954762Y-4085714D01*
X-4050000Y-4133333D01*
X-4097620Y-4228571D01*
X-4097620Y-4752380D01*
X-4097620Y-4228571D02*
X-4145239Y-4133333D01*
X-4240477Y-4085714D01*
X-4383334Y-4085714D01*
X-4478572Y-4133333D01*
X-4526191Y-4228571D01*
X-4526191Y-4752380D01*
X-5430953Y-4752380D02*
X-5430953Y-4228571D01*
X-5383334Y-4133333D01*
X-5288096Y-4085714D01*
X-5097620Y-4085714D01*
X-5002381Y-4133333D01*
X-5430953Y-4704761D02*
X-5335715Y-4752380D01*
X-5097620Y-4752380D01*
X-5002381Y-4704761D01*
X-4954762Y-4609523D01*
X-4954762Y-4514285D01*
X-5002381Y-4419047D01*
X-5097620Y-4371428D01*
X-5335715Y-4371428D01*
X-5430953Y-4323809D01*
X-6335715Y-4085714D02*
X-6335715Y-4895238D01*
X-6288096Y-4990476D01*
X-6240477Y-5038095D01*
X-6145239Y-5085714D01*
X-6002381Y-5085714D01*
X-5907143Y-5038095D01*
X-6335715Y-4704761D02*
X-6240477Y-4752380D01*
X-6050000Y-4752380D01*
X-5954762Y-4704761D01*
X-5907143Y-4657142D01*
X-5859524Y-4561904D01*
X-5859524Y-4276190D01*
X-5907143Y-4180952D01*
X-5954762Y-4133333D01*
X-6050000Y-4085714D01*
X-6240477Y-4085714D01*
X-6335715Y-4133333D01*
X-6811905Y-4085714D02*
X-6811905Y-4752380D01*
X-6811905Y-4180952D02*
X-6859524Y-4133333D01*
X-6954762Y-4085714D01*
X-7097620Y-4085714D01*
X-7192858Y-4133333D01*
X-7240477Y-4228571D01*
X-7240477Y-4752380D01*
X-8097620Y-4704761D02*
X-8002381Y-4752380D01*
X-7811905Y-4752380D01*
X-7716667Y-4704761D01*
X-7669048Y-4609523D01*
X-7669048Y-4228571D01*
X-7716667Y-4133333D01*
X-7811905Y-4085714D01*
X-8002381Y-4085714D01*
X-8097620Y-4133333D01*
X-8145239Y-4228571D01*
X-8145239Y-4323809D01*
X-7669048Y-4419047D01*
X-8430953Y-4085714D02*
X-8811905Y-4085714D01*
X-8573810Y-3752380D02*
X-8573810Y-4609523D01*
X-8621429Y-4704761D01*
X-8716667Y-4752380D01*
X-8811905Y-4752380D01*
%TO.C,G\u002A\u002A\u002A*%
G36*
X9884708Y9720517D02*
G01*
X9980000Y9660000D01*
X10032180Y9583467D01*
X10060000Y9480000D01*
X10040517Y9395293D01*
X9980000Y9300000D01*
X9903467Y9247821D01*
X9800000Y9220000D01*
X9715293Y9239484D01*
X9620000Y9300000D01*
X9567821Y9376534D01*
X9540000Y9480000D01*
X9559484Y9564708D01*
X9620000Y9660000D01*
X9696534Y9712180D01*
X9800000Y9740000D01*
X9884708Y9720517D01*
G37*
G36*
X12107456Y5754741D02*
G01*
X12113742Y5749231D01*
X12178083Y5708210D01*
X12209178Y5730000D01*
X12231252Y5757303D01*
X12303334Y5780000D01*
X12337519Y5774159D01*
X12360351Y5746432D01*
X12373155Y5682290D01*
X12378761Y5567209D01*
X12380000Y5386667D01*
X12379002Y5279193D01*
X12373643Y5126114D01*
X12364692Y5015721D01*
X12353334Y4966667D01*
X12329391Y4953060D01*
X12253334Y4940000D01*
X12249802Y4940038D01*
X12213069Y4950840D01*
X12191944Y4992184D01*
X12182298Y5080534D01*
X12180000Y5232355D01*
X12179281Y5291335D01*
X12163337Y5479284D01*
X12127743Y5599805D01*
X12074180Y5649155D01*
X12004329Y5623593D01*
X11987388Y5605832D01*
X11959175Y5540401D01*
X11944322Y5428008D01*
X11940000Y5252321D01*
X11939506Y5132503D01*
X11934887Y5022068D01*
X11921509Y4964812D01*
X11894753Y4945081D01*
X11850000Y4947218D01*
X11802751Y4960839D01*
X11773030Y4998536D01*
X11756895Y5078662D01*
X11747274Y5220000D01*
X11746386Y5407956D01*
X11773785Y5608066D01*
X11833072Y5741468D01*
X11923102Y5804353D01*
X11998398Y5809397D01*
X12107456Y5754741D01*
G37*
G36*
X10117097Y9262312D02*
G01*
X10136572Y9232589D01*
X10251913Y9134386D01*
X10411819Y9101273D01*
X10493306Y9087668D01*
X10613940Y9024249D01*
X10704381Y8927991D01*
X10740000Y8820000D01*
X10725226Y8749827D01*
X10651103Y8646256D01*
X10535451Y8569814D01*
X10401819Y8540000D01*
X10339504Y8533212D01*
X10223981Y8489154D01*
X10135379Y8418940D01*
X10100000Y8340000D01*
X10087632Y8306117D01*
X10038290Y8312269D01*
X9964346Y8375199D01*
X9928996Y8417044D01*
X9925874Y8451644D01*
X9991289Y8474240D01*
X10031151Y8490095D01*
X10112233Y8572625D01*
X10160954Y8697055D01*
X10176502Y8840762D01*
X10158064Y8981118D01*
X10104826Y9095498D01*
X10015976Y9161278D01*
X9980719Y9174111D01*
X9966747Y9200248D01*
X10012047Y9254358D01*
X10040333Y9282172D01*
X10082444Y9301892D01*
X10117097Y9262312D01*
G37*
G36*
X10811058Y6109606D02*
G01*
X10853139Y6052974D01*
X10853320Y5978496D01*
X10810000Y5928130D01*
X10773688Y5926654D01*
X10703437Y5962789D01*
X10668291Y6014695D01*
X10696361Y6075615D01*
X10733013Y6104757D01*
X10802925Y6113343D01*
X10811058Y6109606D01*
G37*
G36*
X9236387Y9070566D02*
G01*
X9327037Y8968531D01*
X9383792Y8800880D01*
X9399544Y8728492D01*
X9460012Y8576535D01*
X9554740Y8483723D01*
X9695492Y8436293D01*
X9732966Y8429128D01*
X9896289Y8374317D01*
X9990038Y8290254D01*
X10020000Y8172228D01*
X10001795Y8065597D01*
X9953801Y7973150D01*
X9886743Y7926519D01*
X9780000Y7900000D01*
X9690237Y7917356D01*
X9593434Y7990479D01*
X9540302Y8100387D01*
X9539878Y8224772D01*
X9601200Y8341326D01*
X9639301Y8396717D01*
X9624945Y8420000D01*
X9600223Y8413076D01*
X9554466Y8360000D01*
X9524374Y8314040D01*
X9480920Y8305620D01*
X9460000Y8357732D01*
X9437895Y8411309D01*
X9371630Y8477362D01*
X9353551Y8490535D01*
X9310153Y8541217D01*
X9331630Y8587630D01*
X9354954Y8614946D01*
X9380000Y8668000D01*
X9356546Y8667128D01*
X9300000Y8620000D01*
X9223467Y8567821D01*
X9120000Y8540000D01*
X9067648Y8546225D01*
X8961508Y8604240D01*
X8888820Y8704923D01*
X8857328Y8825748D01*
X8874774Y8944193D01*
X8948901Y9037732D01*
X8984916Y9060627D01*
X9119721Y9102695D01*
X9236387Y9070566D01*
G37*
G36*
X7242112Y7355269D02*
G01*
X7260000Y7260000D01*
X7260826Y7229024D01*
X7281443Y7158858D01*
X7340000Y7140000D01*
X7386653Y7128864D01*
X7420000Y7080000D01*
X7405152Y7045011D01*
X7340000Y7020000D01*
X7303885Y7015424D01*
X7268949Y6976491D01*
X7260000Y6880000D01*
X7259892Y6867250D01*
X7244378Y6770359D01*
X7200000Y6740000D01*
X7194536Y6740254D01*
X7153011Y6776454D01*
X7140000Y6880000D01*
X7137385Y6943203D01*
X7115138Y7004340D01*
X7060000Y7020000D01*
X7013348Y7031137D01*
X6980000Y7080000D01*
X6994849Y7114990D01*
X7060000Y7140000D01*
X7080652Y7141238D01*
X7127429Y7172164D01*
X7140000Y7260000D01*
X7152366Y7344223D01*
X7200000Y7380000D01*
X7242112Y7355269D01*
G37*
G36*
X9000000Y5380000D02*
G01*
X8998083Y5270041D01*
X8984753Y5168507D01*
X8950950Y5099755D01*
X8887770Y5036537D01*
X8807684Y4983281D01*
X8686881Y4944264D01*
X8574751Y4945461D01*
X8492167Y4985568D01*
X8460000Y5063280D01*
X8462938Y5094019D01*
X8494875Y5122463D01*
X8579901Y5114020D01*
X8697443Y5114341D01*
X8786579Y5167366D01*
X8820000Y5264898D01*
X8819522Y5277316D01*
X8800770Y5316941D01*
X8740655Y5335436D01*
X8620000Y5340000D01*
X8420000Y5340000D01*
X8420000Y5481819D01*
X8428850Y5541256D01*
X8620000Y5541256D01*
X8641807Y5478538D01*
X8720000Y5460000D01*
X8784099Y5471452D01*
X8817862Y5524312D01*
X8783425Y5615829D01*
X8768656Y5633660D01*
X8706180Y5651659D01*
X8646573Y5616269D01*
X8620000Y5541256D01*
X8428850Y5541256D01*
X8432882Y5568333D01*
X8494086Y5692247D01*
X8588264Y5784087D01*
X8695952Y5820000D01*
X8704781Y5819484D01*
X8791771Y5788233D01*
X8887770Y5723464D01*
X8936998Y5676900D01*
X8977935Y5612361D01*
X8995600Y5524312D01*
X8995968Y5522476D01*
X9000000Y5380000D01*
G37*
G36*
X10739400Y7318097D02*
G01*
X10828765Y7253115D01*
X10861870Y7154824D01*
X10832895Y7039342D01*
X10736016Y6922786D01*
X10657580Y6836396D01*
X10633598Y6760216D01*
X10668445Y6713340D01*
X10760498Y6709886D01*
X10775208Y6712468D01*
X10842108Y6707540D01*
X10860000Y6654454D01*
X10853903Y6618888D01*
X10810437Y6588091D01*
X10708000Y6580000D01*
X10680016Y6580471D01*
X10550510Y6605499D01*
X10480809Y6675601D01*
X10460000Y6800478D01*
X10460368Y6817202D01*
X10490792Y6923649D01*
X10582355Y7015416D01*
X10631605Y7056378D01*
X10683048Y7130345D01*
X10664588Y7181272D01*
X10576492Y7200757D01*
X10513898Y7212677D01*
X10480029Y7254231D01*
X10505459Y7302411D01*
X10588022Y7332467D01*
X10599599Y7333651D01*
X10739400Y7318097D01*
G37*
G36*
X7107456Y5754741D02*
G01*
X7113742Y5749231D01*
X7178083Y5708210D01*
X7209178Y5730000D01*
X7231252Y5757303D01*
X7303334Y5780000D01*
X7309597Y5779901D01*
X7341796Y5771426D01*
X7362365Y5739278D01*
X7373876Y5669376D01*
X7378898Y5547643D01*
X7380000Y5360000D01*
X7380000Y4940000D01*
X7280000Y4940000D01*
X7247920Y4940848D01*
X7209449Y4953463D01*
X7189197Y4994875D01*
X7181327Y5082150D01*
X7180000Y5232355D01*
X7179281Y5291335D01*
X7163337Y5479284D01*
X7127743Y5599805D01*
X7074180Y5649155D01*
X7004329Y5623593D01*
X6987388Y5605832D01*
X6959175Y5540401D01*
X6944322Y5428008D01*
X6940000Y5252321D01*
X6939506Y5132503D01*
X6934887Y5022068D01*
X6921509Y4964812D01*
X6894753Y4945081D01*
X6850000Y4947218D01*
X6802751Y4960839D01*
X6773030Y4998536D01*
X6756895Y5078662D01*
X6747274Y5220000D01*
X6746386Y5407956D01*
X6773785Y5608066D01*
X6833072Y5741468D01*
X6923102Y5804353D01*
X6998398Y5809397D01*
X7107456Y5754741D01*
G37*
G36*
X8487129Y7577458D02*
G01*
X8511708Y7559984D01*
X8527205Y7514497D01*
X8535700Y7428002D01*
X8539272Y7287501D01*
X8540000Y7080000D01*
X8539594Y6910445D01*
X8536798Y6756830D01*
X8529520Y6659973D01*
X8515681Y6606880D01*
X8493201Y6584554D01*
X8460000Y6580000D01*
X8431934Y6582347D01*
X8398486Y6606631D01*
X8383473Y6672863D01*
X8380000Y6800000D01*
X8380000Y6803365D01*
X8377862Y6927679D01*
X8364309Y6992096D01*
X8328603Y7016306D01*
X8260000Y7020000D01*
X8258165Y7020000D01*
X8190357Y7016080D01*
X8155221Y6991234D01*
X8142016Y6925771D01*
X8140000Y6800000D01*
X8138325Y6688735D01*
X8126913Y6615266D01*
X8096733Y6585552D01*
X8038769Y6580000D01*
X7937538Y6580000D01*
X7948769Y7070000D01*
X7952440Y7216226D01*
X7958726Y7374919D01*
X7968185Y7475542D01*
X7983258Y7531197D01*
X8006384Y7554983D01*
X8040000Y7560000D01*
X8046682Y7559889D01*
X8093943Y7543896D01*
X8119278Y7487129D01*
X8132192Y7370000D01*
X8137977Y7293970D01*
X8154126Y7216593D01*
X8190720Y7185634D01*
X8262192Y7180000D01*
X8319422Y7182228D01*
X8361177Y7202543D01*
X8377320Y7261591D01*
X8380000Y7380000D01*
X8380343Y7426260D01*
X8388085Y7524776D01*
X8412016Y7569471D01*
X8460000Y7580000D01*
X8487129Y7577458D01*
G37*
G36*
X11750000Y7572783D02*
G01*
X11760350Y7571208D01*
X11793294Y7560851D01*
X11816059Y7534212D01*
X11830936Y7478549D01*
X11840213Y7381120D01*
X11846181Y7229184D01*
X11851129Y7010000D01*
X11851256Y7003730D01*
X11856390Y6786043D01*
X11862762Y6635677D01*
X11872398Y6540261D01*
X11887322Y6487424D01*
X11909557Y6464795D01*
X11941129Y6460000D01*
X11991568Y6447006D01*
X12020000Y6380000D01*
X12002974Y6323051D01*
X11930000Y6300613D01*
X11916697Y6300864D01*
X11823971Y6316713D01*
X11755796Y6363977D01*
X11708741Y6452305D01*
X11679376Y6591344D01*
X11664273Y6790744D01*
X11660000Y7060153D01*
X11660008Y7117422D01*
X11660758Y7313443D01*
X11664298Y7444839D01*
X11672810Y7524041D01*
X11688476Y7563479D01*
X11713479Y7575582D01*
X11750000Y7572783D01*
G37*
G36*
X11580000Y4660000D02*
G01*
X11512580Y4612996D01*
X11375880Y4580783D01*
X11228563Y4597944D01*
X11098198Y4659585D01*
X11012354Y4760809D01*
X10990687Y4827896D01*
X10992673Y4850000D01*
X11187218Y4850000D01*
X11191514Y4828255D01*
X11232838Y4771377D01*
X11330000Y4747466D01*
X11406417Y4744380D01*
X11450641Y4767878D01*
X11460000Y4837466D01*
X11452706Y4900695D01*
X11412978Y4932990D01*
X11317218Y4940000D01*
X11231239Y4935373D01*
X11188893Y4910201D01*
X11187218Y4850000D01*
X10992673Y4850000D01*
X11003600Y4971612D01*
X11038949Y5039749D01*
X11103092Y5078994D01*
X11220754Y5100000D01*
X11259444Y5105674D01*
X11359342Y5138654D01*
X11403801Y5182841D01*
X11386220Y5225438D01*
X11300000Y5253648D01*
X11190408Y5288249D01*
X11094042Y5382713D01*
X11060000Y5523839D01*
X11059949Y5530585D01*
X11058114Y5544804D01*
X11249337Y5544804D01*
X11250635Y5451492D01*
X11264382Y5419598D01*
X11324186Y5380474D01*
X11393334Y5406667D01*
X11396865Y5410533D01*
X11419915Y5487276D01*
X11405883Y5584740D01*
X11360401Y5659669D01*
X11342718Y5673143D01*
X11300311Y5678818D01*
X11266370Y5616058D01*
X11249337Y5544804D01*
X11058114Y5544804D01*
X11047565Y5626553D01*
X11020000Y5680000D01*
X10999786Y5694307D01*
X10984259Y5735471D01*
X11046868Y5768375D01*
X11188383Y5793537D01*
X11318394Y5798162D01*
X11471173Y5761845D01*
X11565853Y5678502D01*
X11597015Y5553970D01*
X11581258Y5487276D01*
X11559241Y5394085D01*
X11535615Y5313461D01*
X11547259Y5209470D01*
X11560691Y5169614D01*
X11547084Y5074078D01*
X11535156Y5014686D01*
X11585393Y4934608D01*
X11641950Y4859515D01*
X11643779Y4837466D01*
X11649989Y4762577D01*
X11580000Y4660000D01*
G37*
G36*
X8889815Y8622107D02*
G01*
X8895122Y8612955D01*
X8898493Y8550153D01*
X8837259Y8474346D01*
X8827400Y8464451D01*
X8760030Y8360006D01*
X8717686Y8234346D01*
X8714488Y8218319D01*
X8670389Y8090734D01*
X8608086Y7990000D01*
X8517665Y7925033D01*
X8400194Y7909051D01*
X8291312Y7951611D01*
X8211190Y8043899D01*
X8180000Y8177097D01*
X8188492Y8235319D01*
X8254852Y8347530D01*
X8368834Y8428730D01*
X8508472Y8460000D01*
X8607667Y8481324D01*
X8738261Y8572107D01*
X8811570Y8638898D01*
X8856460Y8654488D01*
X8889815Y8622107D01*
G37*
G36*
X9892509Y11071597D02*
G01*
X10021893Y11021942D01*
X10108446Y10913874D01*
X10140000Y10760963D01*
X10140888Y10734066D01*
X10187261Y10578842D01*
X10296334Y10465173D01*
X10457408Y10405055D01*
X10516837Y10391325D01*
X10648938Y10328375D01*
X10743710Y10238044D01*
X10780000Y10137852D01*
X10771657Y10086419D01*
X10709587Y9978752D01*
X10609795Y9894219D01*
X10499701Y9860000D01*
X10366950Y9845787D01*
X10222281Y9784789D01*
X10134108Y9683042D01*
X10089199Y9584477D01*
X10017943Y9672239D01*
X9975957Y9727532D01*
X9971197Y9762884D01*
X10019064Y9787128D01*
X10120343Y9861186D01*
X10193149Y9993364D01*
X10220000Y10160000D01*
X10218166Y10213365D01*
X10178626Y10371336D01*
X10083984Y10473687D01*
X9929569Y10526308D01*
X9846567Y10547154D01*
X9712057Y10615989D01*
X9616410Y10710439D01*
X9580000Y10813751D01*
X9581292Y10836710D01*
X9629349Y10953915D01*
X9729939Y11039916D01*
X9860000Y11073334D01*
X9892509Y11071597D01*
G37*
G36*
X9723882Y5276449D02*
G01*
X9680941Y5132447D01*
X9591117Y5020159D01*
X9528982Y4980874D01*
X9409068Y4943533D01*
X9296371Y4946347D01*
X9212734Y4987027D01*
X9180000Y5063280D01*
X9183999Y5097896D01*
X9218216Y5122712D01*
X9306003Y5112800D01*
X9324768Y5109331D01*
X9422132Y5110491D01*
X9486003Y5161445D01*
X9528879Y5230601D01*
X9535065Y5295705D01*
X9473874Y5330008D01*
X9340000Y5340000D01*
X9140000Y5340000D01*
X9140000Y5481819D01*
X9149311Y5541256D01*
X9340000Y5541256D01*
X9361807Y5478538D01*
X9440000Y5460000D01*
X9504099Y5471452D01*
X9537862Y5524312D01*
X9503425Y5615829D01*
X9488656Y5633660D01*
X9426180Y5651659D01*
X9366573Y5616269D01*
X9340000Y5541256D01*
X9149311Y5541256D01*
X9154012Y5571267D01*
X9214898Y5693240D01*
X9306442Y5784257D01*
X9409282Y5820000D01*
X9511697Y5796163D01*
X9613846Y5712020D01*
X9686089Y5584906D01*
X9701334Y5524312D01*
X9724183Y5433492D01*
X9723882Y5276449D01*
G37*
G36*
X10860000Y5357218D02*
G01*
X10859880Y5247728D01*
X10857823Y5097404D01*
X10850827Y5005952D01*
X10835872Y4959610D01*
X10809936Y4944618D01*
X10770000Y4947218D01*
X10757259Y4949233D01*
X10720787Y4962517D01*
X10697247Y4996384D01*
X10683077Y5065686D01*
X10674716Y5185274D01*
X10668601Y5370000D01*
X10657202Y5780000D01*
X10860000Y5780000D01*
X10860000Y5357218D01*
G37*
G36*
X7740000Y5357218D02*
G01*
X7739880Y5247728D01*
X7737823Y5097404D01*
X7730827Y5005952D01*
X7715872Y4959610D01*
X7689936Y4944618D01*
X7650000Y4947218D01*
X7637259Y4949233D01*
X7600787Y4962517D01*
X7577247Y4996384D01*
X7563077Y5065686D01*
X7554716Y5185274D01*
X7548601Y5370000D01*
X7537202Y5780000D01*
X7740000Y5780000D01*
X7740000Y5357218D01*
G37*
G36*
X9593118Y9256986D02*
G01*
X9632976Y9216746D01*
X9639475Y9184516D01*
X9580680Y9160216D01*
X9516255Y9120870D01*
X9451215Y9036693D01*
X9423770Y8981352D01*
X9395378Y8966585D01*
X9354051Y9016357D01*
X9326613Y9072816D01*
X9342540Y9128344D01*
X9410398Y9209496D01*
X9437166Y9237820D01*
X9499044Y9293173D01*
X9542312Y9297296D01*
X9593118Y9256986D01*
G37*
G36*
X13020000Y4940000D02*
G01*
X12780000Y4940000D01*
X12771588Y4940003D01*
X12642091Y4942407D01*
X12572851Y4954657D01*
X12545082Y4984579D01*
X12540000Y5040000D01*
X12546566Y5098908D01*
X12585324Y5132529D01*
X12680000Y5140000D01*
X12721311Y5140358D01*
X12789593Y5152032D01*
X12815762Y5197558D01*
X12820000Y5300000D01*
X12819687Y5347213D01*
X12809473Y5425249D01*
X12769638Y5455157D01*
X12680000Y5460000D01*
X12616798Y5462616D01*
X12555661Y5484863D01*
X12540000Y5540000D01*
X12544577Y5576116D01*
X12583510Y5611052D01*
X12680000Y5620000D01*
X12690657Y5620018D01*
X12778873Y5627687D01*
X12813808Y5666168D01*
X12820000Y5760000D01*
X12819983Y5770657D01*
X12812314Y5858873D01*
X12773833Y5893808D01*
X12680000Y5900000D01*
X12616798Y5902616D01*
X12555661Y5924863D01*
X12540000Y5980000D01*
X12544413Y6015434D01*
X12573525Y6044259D01*
X12645956Y6057081D01*
X12780000Y6060000D01*
X13020000Y6060000D01*
X13020000Y4940000D01*
G37*
G36*
X8518301Y9725386D02*
G01*
X8629207Y9663260D01*
X8709237Y9555903D01*
X8740000Y9412788D01*
X8760813Y9315588D01*
X8841852Y9194512D01*
X8883266Y9150019D01*
X8916871Y9087507D01*
X8896711Y9036037D01*
X8869070Y9010746D01*
X8825220Y9015924D01*
X8757616Y9078794D01*
X8653853Y9154019D01*
X8496672Y9205172D01*
X8370228Y9240712D01*
X8248984Y9320699D01*
X8185569Y9426139D01*
X8186927Y9543688D01*
X8260000Y9660000D01*
X8277419Y9676064D01*
X8394908Y9732811D01*
X8518301Y9725386D01*
G37*
G36*
X10227456Y5754741D02*
G01*
X10233742Y5749231D01*
X10298083Y5708210D01*
X10329178Y5730000D01*
X10351252Y5757303D01*
X10423334Y5780000D01*
X10429597Y5779901D01*
X10461796Y5771426D01*
X10482365Y5739278D01*
X10493876Y5669376D01*
X10498898Y5547643D01*
X10500000Y5360000D01*
X10500000Y4940000D01*
X10400000Y4940000D01*
X10367920Y4940848D01*
X10329449Y4953463D01*
X10309197Y4994875D01*
X10301327Y5082150D01*
X10300000Y5232355D01*
X10299281Y5291335D01*
X10283337Y5479284D01*
X10247743Y5599805D01*
X10194180Y5649155D01*
X10124329Y5623593D01*
X10107388Y5605832D01*
X10079175Y5540401D01*
X10064322Y5428008D01*
X10060000Y5252321D01*
X10059506Y5132503D01*
X10054887Y5022068D01*
X10041509Y4964812D01*
X10014753Y4945081D01*
X9970000Y4947218D01*
X9922751Y4960839D01*
X9893030Y4998536D01*
X9876895Y5078662D01*
X9867274Y5220000D01*
X9866386Y5407956D01*
X9893785Y5608066D01*
X9953072Y5741468D01*
X10043102Y5804353D01*
X10118398Y5809397D01*
X10227456Y5754741D01*
G37*
G36*
X10257097Y6685395D02*
G01*
X10230441Y6655865D01*
X10111583Y6588821D01*
X9979831Y6589671D01*
X9860000Y6660000D01*
X9825817Y6702615D01*
X9790290Y6801361D01*
X9780471Y6945541D01*
X9945965Y6945541D01*
X9955668Y6830602D01*
X9982454Y6757044D01*
X10012409Y6727350D01*
X10065888Y6700000D01*
X10066243Y6700003D01*
X10111073Y6735981D01*
X10146544Y6824682D01*
X10165398Y6939060D01*
X10160376Y7052068D01*
X10146932Y7109727D01*
X10111699Y7166066D01*
X10047722Y7172484D01*
X9995227Y7154271D01*
X9962823Y7099476D01*
X9947556Y6987044D01*
X9945965Y6945541D01*
X9780471Y6945541D01*
X9780000Y6952458D01*
X9785054Y7046259D01*
X9830799Y7207712D01*
X9922624Y7306494D01*
X10058655Y7340000D01*
X10150672Y7319872D01*
X10249553Y7239992D01*
X10315506Y7117242D01*
X10342660Y6970984D01*
X10338943Y6939060D01*
X10325147Y6820581D01*
X10257097Y6685395D01*
G37*
G36*
X6580000Y4660000D02*
G01*
X6572532Y4652856D01*
X6454445Y4591641D01*
X6313748Y4584072D01*
X6174908Y4623522D01*
X6062393Y4703360D01*
X6000668Y4816959D01*
X5995111Y4850000D01*
X6187218Y4850000D01*
X6191514Y4828255D01*
X6232838Y4771377D01*
X6330000Y4747466D01*
X6406417Y4744380D01*
X6450641Y4767878D01*
X6460000Y4837466D01*
X6452706Y4900695D01*
X6412978Y4932990D01*
X6317218Y4940000D01*
X6231239Y4935373D01*
X6188893Y4910201D01*
X6187218Y4850000D01*
X5995111Y4850000D01*
X5992074Y4868054D01*
X6006729Y4994248D01*
X6085443Y5073303D01*
X6230182Y5107709D01*
X6262334Y5111078D01*
X6360571Y5139876D01*
X6404069Y5182590D01*
X6386116Y5225191D01*
X6300000Y5253648D01*
X6190408Y5288249D01*
X6094042Y5382713D01*
X6062534Y5513334D01*
X6260000Y5513334D01*
X6260002Y5512158D01*
X6279309Y5414004D01*
X6327980Y5375458D01*
X6393334Y5406667D01*
X6396719Y5410382D01*
X6419530Y5485935D01*
X6407765Y5582378D01*
X6366320Y5654756D01*
X6306520Y5680397D01*
X6271357Y5634208D01*
X6260000Y5513334D01*
X6062534Y5513334D01*
X6060000Y5523839D01*
X6059949Y5530585D01*
X6047565Y5626553D01*
X6020000Y5680000D01*
X5999786Y5694307D01*
X5984259Y5735471D01*
X6046868Y5768375D01*
X6188383Y5793537D01*
X6346859Y5794034D01*
X6491596Y5747589D01*
X6582081Y5658230D01*
X6610359Y5534508D01*
X6596755Y5485935D01*
X6568477Y5384973D01*
X6536237Y5288895D01*
X6556697Y5208002D01*
X6577858Y5155853D01*
X6553788Y5067213D01*
X6549324Y5059890D01*
X6532562Y4996912D01*
X6584080Y4946736D01*
X6648767Y4868754D01*
X6648533Y4837466D01*
X6648000Y4766218D01*
X6580000Y4660000D01*
G37*
G36*
X9600310Y7282855D02*
G01*
X9615556Y7157955D01*
X9620000Y6960000D01*
X9618933Y6790529D01*
X9613525Y6676163D01*
X9600650Y6612846D01*
X9577183Y6585739D01*
X9540000Y6580000D01*
X9505652Y6584039D01*
X9476144Y6612367D01*
X9463000Y6683797D01*
X9460000Y6816729D01*
X9460000Y6819711D01*
X9454327Y6996582D01*
X9434649Y7107035D01*
X9396577Y7163897D01*
X9335721Y7180000D01*
X9326353Y7179752D01*
X9291110Y7167301D01*
X9271066Y7124134D01*
X9262076Y7033837D01*
X9260000Y6880000D01*
X9259633Y6774630D01*
X9255064Y6664203D01*
X9240680Y6606190D01*
X9210865Y6583739D01*
X9160000Y6580000D01*
X9128441Y6580810D01*
X9089685Y6593247D01*
X9069277Y6634373D01*
X9061340Y6721290D01*
X9060000Y6871100D01*
X9062084Y6974300D01*
X9081491Y7146104D01*
X9122269Y7251100D01*
X9152883Y7284387D01*
X9242704Y7331031D01*
X9336701Y7336843D01*
X9402155Y7296515D01*
X9424232Y7274662D01*
X9472515Y7296515D01*
X9525925Y7339695D01*
X9571390Y7341252D01*
X9600310Y7282855D01*
G37*
G36*
X7691058Y6109606D02*
G01*
X7733139Y6052974D01*
X7733320Y5978496D01*
X7690000Y5928130D01*
X7653688Y5926654D01*
X7583437Y5962789D01*
X7548291Y6014695D01*
X7576361Y6075615D01*
X7613013Y6104757D01*
X7682925Y6113343D01*
X7691058Y6109606D01*
G37*
G36*
X11498593Y6657371D02*
G01*
X11448069Y6604224D01*
X11344009Y6582375D01*
X11217371Y6621408D01*
X11164486Y6642384D01*
X11140000Y6621408D01*
X11124990Y6597334D01*
X11060000Y6580000D01*
X11058071Y6580007D01*
X11016205Y6588460D01*
X10992745Y6624683D01*
X10982579Y6706066D01*
X10980813Y6833852D01*
X11187005Y6833852D01*
X11209770Y6756712D01*
X11272996Y6706833D01*
X11297743Y6703962D01*
X11332675Y6726130D01*
X11332996Y6806149D01*
X11310231Y6883289D01*
X11247005Y6933168D01*
X11222258Y6936039D01*
X11187326Y6913871D01*
X11187005Y6833852D01*
X10980813Y6833852D01*
X10980590Y6850000D01*
X10989819Y7032627D01*
X11028749Y7199716D01*
X11101881Y7300325D01*
X11213255Y7339388D01*
X11366911Y7321840D01*
X11422064Y7299530D01*
X11448342Y7256049D01*
X11410711Y7216966D01*
X11316500Y7200000D01*
X11227017Y7175832D01*
X11192702Y7121035D01*
X11216184Y7062309D01*
X11300000Y7026353D01*
X11403648Y6996231D01*
X11501703Y6912715D01*
X11532729Y6806149D01*
X11536046Y6794756D01*
X11498593Y6657371D01*
G37*
G36*
X8026851Y5753801D02*
G01*
X8076895Y5719501D01*
X8100000Y5733801D01*
X8115046Y5760689D01*
X8180000Y5780000D01*
X8190764Y5779756D01*
X8222803Y5770640D01*
X8243079Y5737927D01*
X8254258Y5667519D01*
X8259010Y5545315D01*
X8260000Y5357218D01*
X8259880Y5247728D01*
X8257823Y5097404D01*
X8250827Y5005952D01*
X8235872Y4959610D01*
X8209936Y4944618D01*
X8170000Y4947218D01*
X8154037Y4949931D01*
X8113265Y4968435D01*
X8088083Y5014678D01*
X8072368Y5106066D01*
X8060000Y5260000D01*
X8059113Y5273172D01*
X8045743Y5425293D01*
X8027204Y5517725D01*
X7997340Y5569459D01*
X7950000Y5599486D01*
X7896193Y5637801D01*
X7860000Y5729486D01*
X7879692Y5802757D01*
X7937483Y5812476D01*
X8026851Y5753801D01*
G37*
%TD*%
M02*
